<svg width="373" height="129" viewBox="0 0 373 129" fill="none" xmlns="http://www.w3.org/2000/svg">
<g filter="url(#filter0_d_0_190)">
<path d="M313.034 49.5297C313.034 41.7991 321.403 36.9674 328.098 40.8328L346.174 51.2691C352.869 55.1344 352.869 64.7977 346.174 68.663L328.098 79.0994C321.403 82.9647 313.034 78.1331 313.034 70.4024L313.034 49.5297Z" fill="#FFDF6D"/>
</g>
<g filter="url(#filter1_d_0_190)">
<rect width="329.39" height="120.509" rx="40.1695" fill="#FFDF6D"/>
</g>
<g filter="url(#filter2_di_0_190)">
<rect x="10.042" y="6.02539" width="309.306" height="100.424" rx="40.1695" fill="#FED33B"/>
</g>
<path d="M27 38.7462C27 27.2884 36.2884 18 47.7462 18H275.392C286.848 18 296.136 27.2876 296.136 38.7444C296.136 51.2021 285.257 60.8826 272.868 59.574C244.748 56.6038 196.868 52.16 161.98 52.1441C126.817 52.1281 78.5378 56.5978 50.2647 59.5787C37.8759 60.8849 27 51.2037 27 38.7462Z" fill="#FFD84C"/>
<path d="M72.7853 83.8088C71.0714 83.8088 69.2718 83.6802 67.3865 83.4232C65.5441 83.2089 63.7873 82.8661 62.1163 82.3948C60.4452 81.9235 58.9455 81.3665 57.6173 80.7238C56.4604 80.1668 55.6463 79.4383 55.175 78.5385C54.7036 77.5959 54.5322 76.6104 54.6608 75.5821C54.7893 74.5537 55.1535 73.6539 55.7534 72.8827C56.3533 72.0686 57.1459 71.533 58.1314 71.2759C59.1169 70.976 60.231 71.1045 61.4735 71.6615C63.1017 72.4328 64.9442 73.0326 67.0009 73.4611C69.0576 73.8896 70.9857 74.1038 72.7853 74.1038C75.6132 74.1038 77.5842 73.7396 78.6982 73.0112C79.8551 72.24 80.4336 71.2973 80.4336 70.1833C80.4336 69.1978 80.0265 68.4051 79.2124 67.8052C78.4412 67.2054 77.0486 66.6912 75.0348 66.2627L67.515 64.6559C63.4017 63.799 60.3381 62.2993 58.3242 60.157C56.3104 58.0146 55.3035 55.2509 55.3035 51.866C55.3035 49.6379 55.7534 47.6241 56.6532 45.8245C57.5958 43.982 58.9027 42.4181 60.5737 41.1327C62.2876 39.8472 64.3015 38.8617 66.6152 38.1762C68.9719 37.4478 71.5856 37.0836 74.4563 37.0836C76.6844 37.0836 78.9339 37.3407 81.2048 37.8548C83.5186 38.3261 85.511 39.0546 87.1821 40.04C88.1675 40.5542 88.8745 41.2612 89.303 42.161C89.7315 43.0608 89.9029 44.0034 89.8172 44.9889C89.7315 45.9316 89.3887 46.7671 88.7888 47.4955C88.2318 48.2239 87.4606 48.7167 86.4751 48.9738C85.5324 49.188 84.397 49.0166 83.0687 48.4596C81.8261 47.9026 80.4121 47.4955 78.8268 47.2384C77.2843 46.9385 75.7846 46.7885 74.3278 46.7885C72.7424 46.7885 71.3927 46.9813 70.2787 47.367C69.1647 47.7098 68.3077 48.2239 67.7079 48.9095C67.1508 49.595 66.8723 50.3877 66.8723 51.2875C66.8723 52.1873 67.2365 52.9586 67.9649 53.6013C68.7362 54.2012 70.1287 54.7153 72.1426 55.1438L79.598 56.7506C83.7543 57.6504 86.8607 59.1286 88.9174 61.1853C90.9741 63.242 92.0024 65.92 92.0024 69.2192C92.0024 71.4473 91.5525 73.4611 90.6527 75.2607C89.7529 77.0603 88.4675 78.6028 86.7964 79.8882C85.1254 81.1308 83.1115 82.0949 80.7549 82.7805C78.3983 83.466 75.7418 83.8088 72.7853 83.8088ZM117.307 83.6802C115.422 83.6802 113.965 83.1661 112.937 82.1377C111.908 81.0665 111.394 79.5883 111.394 77.703V47.4312H101.304C99.7183 47.4312 98.4971 47.0242 97.6402 46.2101C96.8261 45.3531 96.419 44.1534 96.419 42.6109C96.419 41.0255 96.8261 39.8258 97.6402 39.0117C98.4971 38.1976 99.7183 37.7906 101.304 37.7906H133.311C134.896 37.7906 136.096 38.1976 136.91 39.0117C137.767 39.8258 138.195 41.0255 138.195 42.6109C138.195 44.1534 137.767 45.3531 136.91 46.2101C136.096 47.0242 134.896 47.4312 133.311 47.4312H123.22V77.703C123.22 79.5883 122.727 81.0665 121.742 82.1377C120.756 83.1661 119.278 83.6802 117.307 83.6802ZM142.981 83.6802C141.652 83.6802 140.538 83.3803 139.638 82.7805C138.739 82.1377 138.182 81.2808 137.967 80.2096C137.753 79.0956 137.946 77.853 138.546 76.4819L154.549 42.0325C155.321 40.3614 156.263 39.1402 157.377 38.369C158.534 37.5977 159.841 37.2121 161.298 37.2121C162.755 37.2121 164.019 37.5977 165.09 38.369C166.204 39.1402 167.168 40.3614 167.982 42.0325L183.986 76.4819C184.671 77.853 184.907 79.0956 184.693 80.2096C184.521 81.3236 183.986 82.1806 183.086 82.7805C182.229 83.3803 181.158 83.6802 179.872 83.6802C178.158 83.6802 176.83 83.2946 175.887 82.5234C174.988 81.7521 174.174 80.5095 173.445 78.7956L169.975 70.6332L174.473 73.911H147.994L152.557 70.6332L149.086 78.7956C148.315 80.5095 147.522 81.7521 146.708 82.5234C145.894 83.2946 144.652 83.6802 142.981 83.6802ZM161.169 50.1306L153.714 67.9338L151.914 64.8488H170.617L168.818 67.9338L161.298 50.1306H161.169ZM199.648 83.6802C197.763 83.6802 196.306 83.1661 195.278 82.1377C194.249 81.0665 193.735 79.5883 193.735 77.703V43.7678C193.735 41.8396 194.249 40.3614 195.278 39.3331C196.349 38.3047 197.827 37.7906 199.713 37.7906H215.523C220.665 37.7906 224.628 39.0546 227.413 41.5826C230.241 44.0677 231.655 47.5384 231.655 51.9945C231.655 54.8653 231.013 57.3719 229.727 59.5142C228.485 61.6138 226.664 63.242 224.264 64.3989C221.908 65.5129 218.994 66.0699 215.523 66.0699L216.037 64.913H219.122C220.965 64.913 222.593 65.3629 224.007 66.2627C225.421 67.1197 226.599 68.448 227.542 70.2476L230.756 76.032C231.441 77.2745 231.762 78.4957 231.72 79.6954C231.677 80.8523 231.205 81.8164 230.306 82.5876C229.449 83.316 228.185 83.6802 226.514 83.6802C224.843 83.6802 223.471 83.3375 222.4 82.6519C221.372 81.9663 220.451 80.8952 219.637 79.4383L213.788 68.705C213.274 67.7624 212.61 67.1197 211.796 66.7769C211.024 66.3913 210.124 66.1985 209.096 66.1985H205.561V77.703C205.561 79.5883 205.068 81.0665 204.083 82.1377C203.097 83.1661 201.619 83.6802 199.648 83.6802ZM205.561 57.8432H213.402C215.673 57.8432 217.409 57.3933 218.608 56.4935C219.808 55.5937 220.408 54.2012 220.408 52.3159C220.408 50.5163 219.808 49.1666 218.608 48.2668C217.409 47.3241 215.673 46.8528 213.402 46.8528H205.561V57.8432ZM258.297 83.6802C256.412 83.6802 254.955 83.1661 253.927 82.1377C252.899 81.0665 252.384 79.5883 252.384 77.703V47.4312H242.294C240.708 47.4312 239.487 47.0242 238.63 46.2101C237.816 45.3531 237.409 44.1534 237.409 42.6109C237.409 41.0255 237.816 39.8258 238.63 39.0117C239.487 38.1976 240.708 37.7906 242.294 37.7906H274.301C275.886 37.7906 277.086 38.1976 277.9 39.0117C278.757 39.8258 279.185 41.0255 279.185 42.6109C279.185 44.1534 278.757 45.3531 277.9 46.2101C277.086 47.0242 275.886 47.4312 274.301 47.4312H264.21V77.703C264.21 79.5883 263.718 81.0665 262.732 82.1377C261.747 83.1661 260.268 83.6802 258.297 83.6802Z" fill="white"/>
<path d="M67.3865 83.4232L67.5222 82.4281L67.5123 82.4268L67.5025 82.4256L67.3865 83.4232ZM57.6173 80.7238L58.0547 79.8198L58.0529 79.8189L57.6173 80.7238ZM55.175 78.5385L54.2767 78.9877L54.281 78.9961L54.2854 79.0045L55.175 78.5385ZM54.6608 75.5821L55.6573 75.7066L54.6608 75.5821ZM55.7534 72.8827L56.5461 73.4992L56.5541 73.4889L56.5619 73.4784L55.7534 72.8827ZM58.1314 71.2759L58.3849 72.2476L58.4045 72.2425L58.4238 72.2366L58.1314 71.2759ZM61.4735 71.6615L61.9034 70.754L61.8939 70.7494L61.8843 70.7451L61.4735 71.6615ZM67.0009 73.4611L67.2057 72.478L67.0009 73.4611ZM78.6982 73.0112L79.2478 73.8518L79.2553 73.8468L78.6982 73.0112ZM79.2124 67.8052L78.5959 68.5979L78.6062 68.606L78.6167 68.6137L79.2124 67.8052ZM75.0348 66.2627L74.8249 67.2448L74.8258 67.245L75.0348 66.2627ZM67.515 64.6559L67.7249 63.6739L67.7199 63.6728L67.515 64.6559ZM58.3242 60.157L59.056 59.4691L58.3242 60.157ZM56.6532 45.8245L55.7591 45.367L55.755 45.3754L56.6532 45.8245ZM60.5737 41.1327L59.9712 40.3292L59.9614 40.3367L60.5737 41.1327ZM66.6152 38.1762L66.9006 39.1391L66.9118 39.1356L66.6152 38.1762ZM81.2048 37.8548L80.9831 38.8343L80.9937 38.8367L81.0044 38.8389L81.2048 37.8548ZM87.1821 40.04L86.6719 40.9051L86.6944 40.9183L86.7175 40.9304L87.1821 40.04ZM89.303 42.161L88.3963 42.5928V42.5928L89.303 42.161ZM89.8172 44.9889L90.8173 45.0799L90.8176 45.0759L89.8172 44.9889ZM88.7888 47.4955L88.0136 46.8571L88.0021 46.8711L87.9911 46.8855L88.7888 47.4955ZM86.4751 48.9738L86.6976 49.953L86.7132 49.9495L86.7286 49.9455L86.4751 48.9738ZM83.0687 48.4596L82.6579 49.376L82.6691 49.381L82.6803 49.3857L83.0687 48.4596ZM78.8268 47.2384L78.6351 48.2242L78.6505 48.2272L78.666 48.2297L78.8268 47.2384ZM70.2787 47.367L70.574 48.3268L70.5907 48.3217L70.6072 48.316L70.2787 47.367ZM67.7079 48.9095L66.9521 48.2482L66.94 48.262L66.9285 48.2762L67.7079 48.9095ZM67.9649 53.6013L67.3005 54.3543L67.3238 54.3749L67.3484 54.394L67.9649 53.6013ZM72.1426 55.1438L72.3541 54.1621L72.3516 54.1615L72.1426 55.1438ZM79.598 56.7506L79.8105 55.7691L79.8096 55.7689L79.598 56.7506ZM90.6527 75.2607L91.5509 75.7098L90.6527 75.2607ZM86.7964 79.8882L87.3957 80.6941L87.4022 80.6892L87.4087 80.6842L86.7964 79.8882ZM80.7549 82.7804L81.0354 83.7447H81.0354L80.7549 82.7804ZM72.7853 82.8046C71.1214 82.8046 69.3673 82.6797 67.5222 82.4281L67.2508 84.4182C69.1762 84.6807 71.0214 84.813 72.7853 84.813V82.8046ZM67.5025 82.4256C65.7094 82.2171 64.0053 81.8842 62.3889 81.4283L61.8436 83.3614C63.5693 83.8481 65.3787 84.2007 67.2705 84.4207L67.5025 82.4256ZM62.3889 81.4283C60.7648 80.9702 59.3217 80.4328 58.0547 79.8198L57.1799 81.6277C58.5694 82.3001 60.1256 82.8768 61.8436 83.3614L62.3889 81.4283ZM58.0529 79.8189C57.0387 79.3306 56.4119 78.7357 56.0645 78.0726L54.2854 79.0045C54.8807 80.141 55.8821 81.0029 57.1816 81.6286L58.0529 79.8189ZM56.0732 78.0894C55.6889 77.3209 55.5538 76.5347 55.6573 75.7066L53.6643 75.4575C53.5107 76.6861 53.7183 77.8709 54.2767 78.9877L56.0732 78.0894ZM55.6573 75.7066C55.7648 74.8463 56.064 74.1191 56.5461 73.4992L54.9607 72.2661C54.2431 73.1888 53.8138 74.2611 53.6643 75.4575L55.6573 75.7066ZM56.5619 73.4784C57.0242 72.8509 57.6203 72.4471 58.3849 72.2476L57.8779 70.3042C56.6716 70.6189 55.6823 71.2862 54.9449 72.287L56.5619 73.4784ZM58.4238 72.2366C59.1112 72.0274 59.9692 72.0877 61.0627 72.5779L61.8843 70.7451C60.4928 70.1213 59.1226 69.9245 57.839 70.3152L58.4238 72.2366ZM61.0436 72.5691C62.7543 73.3794 64.6741 74.0022 66.7961 74.4442L67.2057 72.478C65.2142 72.0631 63.4492 71.4861 61.9034 70.754L61.0436 72.5691ZM66.7961 74.4442C68.9092 74.8845 70.9066 75.1081 72.7853 75.1081V73.0996C71.0648 73.0996 69.2059 72.8947 67.2057 72.478L66.7961 74.4442ZM72.7853 75.1081C75.6327 75.1081 77.8681 74.7539 79.2478 73.8517L78.1487 72.1707C77.3003 72.7254 75.5937 73.0996 72.7853 73.0996V75.1081ZM79.2553 73.8468C80.613 72.9417 81.4378 71.7177 81.4378 70.1833H79.4293C79.4293 70.8769 79.0973 71.5382 78.1412 72.1756L79.2553 73.8468ZM81.4378 70.1833C81.4378 68.869 80.8712 67.7801 79.8081 66.9968L78.6167 68.6137C79.1818 69.0301 79.4293 69.5266 79.4293 70.1833H81.4378ZM79.829 67.0125C78.8652 66.263 77.277 65.7131 75.2438 65.2805L74.8258 67.245C76.8203 67.6693 78.0171 68.1478 78.5959 68.5979L79.829 67.0125ZM75.2446 65.2807L67.7249 63.6739L67.3052 65.638L74.8249 67.2448L75.2446 65.2807ZM67.7199 63.6728C63.7251 62.8406 60.8799 61.4095 59.056 59.4691L57.5925 60.8448C59.7963 63.1892 63.0783 64.7574 67.3102 65.6391L67.7199 63.6728ZM59.056 59.4691C57.2437 57.5412 56.3077 55.0368 56.3077 51.866H54.2993C54.2993 55.465 55.3771 58.488 57.5925 60.8448L59.056 59.4691ZM56.3077 51.866C56.3077 49.7768 56.7285 47.9193 57.5514 46.2736L55.755 45.3754C54.7782 47.3288 54.2993 49.499 54.2993 51.866H56.3077ZM57.5472 46.2819C58.4209 44.5743 59.6305 43.1252 61.186 41.9286L59.9614 40.3367C58.1749 41.711 56.7708 43.3898 55.7592 45.3671L57.5472 46.2819ZM61.1763 41.9361C62.7835 40.7307 64.6868 39.795 66.9005 39.139L66.3299 37.2133C63.9161 37.9285 61.7918 38.9638 59.9712 40.3293L61.1763 41.9361ZM66.9118 39.1356C69.1581 38.4413 71.67 38.0878 74.4563 38.0878V36.0793C71.5011 36.0793 68.7856 36.4542 66.3187 37.2167L66.9118 39.1356ZM74.4563 38.0878C76.6065 38.0878 78.7816 38.3358 80.9831 38.8343L81.4266 36.8754C79.0862 36.3455 76.7623 36.0793 74.4563 36.0793V38.0878ZM81.0044 38.8389C83.2319 39.2926 85.115 39.9869 86.6719 40.9051L87.6922 39.175C85.907 38.1222 83.8053 37.3597 81.4053 36.8708L81.0044 38.8389ZM86.7175 40.9304C87.5332 41.356 88.0723 41.9124 88.3963 42.5928L90.2097 41.7292C89.6767 40.61 88.8019 39.7525 87.6466 39.1497L86.7175 40.9304ZM88.3963 42.5928C88.7485 43.3323 88.8868 44.096 88.8167 44.9019L90.8176 45.0759C90.9189 43.9109 90.7145 42.7892 90.2097 41.7292L88.3963 42.5928ZM88.8171 44.898C88.7496 45.6404 88.4848 46.285 88.0136 46.8571L89.564 48.1339C90.2926 47.2492 90.7134 46.2228 90.8173 45.0799L88.8171 44.898ZM87.9911 46.8855C87.5852 47.4163 87.0158 47.7949 86.2216 48.002L86.7286 49.9455C87.9053 49.6385 88.8784 49.0316 89.5866 48.1055L87.9911 46.8855ZM86.2525 47.9945C85.5919 48.1446 84.6819 48.0471 83.4571 47.5335L82.6803 49.3857C84.112 49.9861 85.4729 50.2314 86.6976 49.953L86.2525 47.9945ZM83.4795 47.5432C82.1444 46.9447 80.6442 46.5158 78.9875 46.2471L78.666 48.2297C80.1801 48.4752 81.5078 48.8604 82.6579 49.376L83.4795 47.5432ZM79.0185 46.2527C77.4177 45.9414 75.8538 45.7843 74.3278 45.7843V47.7928C75.7155 47.7928 77.1508 47.9356 78.6351 48.2242L79.0185 46.2527ZM74.3278 45.7843C72.6667 45.7843 71.1993 45.9856 69.9502 46.418L70.6072 48.316C71.5862 47.9771 72.8182 47.7928 74.3278 47.7928V45.7843ZM69.9834 46.4071C68.7403 46.7896 67.7047 47.3881 66.9521 48.2482L68.4636 49.5708C68.9108 49.0598 69.5891 48.6299 70.574 48.3268L69.9834 46.4071ZM66.9285 48.2762C66.2231 49.1444 65.8681 50.1618 65.8681 51.2875H67.8766C67.8766 50.6137 68.0786 50.0457 68.4873 49.5428L66.9285 48.2762ZM65.8681 51.2875C65.8681 52.5003 66.3754 53.5381 67.3005 54.3543L68.6294 52.8483C68.0976 52.3791 67.8766 51.8743 67.8766 51.2875H65.8681ZM67.3484 54.394C68.3121 55.1436 69.9004 55.6935 71.9336 56.126L72.3516 54.1615C70.3571 53.7372 69.1602 53.2587 68.5815 52.8086L67.3484 54.394ZM71.931 56.1255L79.3865 57.7323L79.8096 55.7689L72.3541 54.1621L71.931 56.1255ZM79.3856 57.7321C83.4355 58.6089 86.3363 60.0244 88.2073 61.8954L89.6275 60.4752C87.3851 58.2328 84.073 56.6919 79.8105 55.7691L79.3856 57.7321ZM88.2073 61.8954C90.0498 63.7379 90.9982 66.1473 90.9982 69.2192H93.0066C93.0066 65.6926 91.8984 62.7461 89.6275 60.4752L88.2073 61.8954ZM90.9982 69.2192C90.9982 71.3083 90.5773 73.1659 89.7545 74.8116L91.5509 75.7098C92.5277 73.7564 93.0066 71.5862 93.0066 69.2192H90.9982ZM89.7545 74.8116C88.9258 76.4689 87.7408 77.8948 86.1841 79.0923L87.4087 80.6842C89.1942 79.3108 90.58 77.6517 91.5509 75.7098L89.7545 74.8116ZM86.1972 79.0824C84.6376 80.2421 82.7363 81.1582 80.4744 81.8162L81.0354 83.7447C83.4868 83.0316 85.6132 82.0195 87.3957 80.6941L86.1972 79.0824ZM80.4744 81.8162C78.2253 82.4705 75.6656 82.8046 72.7853 82.8046V84.813C75.818 84.813 78.5713 84.4616 81.0354 83.7447L80.4744 81.8162ZM112.937 82.1377L112.212 82.8332L112.219 82.8406L112.227 82.8478L112.937 82.1377ZM111.394 47.4312H112.398V46.427H111.394V47.4312ZM97.6402 46.2101L96.9121 46.9018L96.9299 46.9204L96.9485 46.9382L97.6402 46.2101ZM97.6402 39.0117L96.9485 38.2836L96.9392 38.2925L96.9301 38.3016L97.6402 39.0117ZM136.91 39.0117L136.2 39.7218L136.209 39.7309L136.218 39.7398L136.91 39.0117ZM136.91 46.2101L137.62 46.9202H137.62L136.91 46.2101ZM123.22 47.4312V46.427H122.216V47.4312H123.22ZM121.742 82.1377L122.467 82.8326L122.474 82.8252L122.481 82.8177L121.742 82.1377ZM117.307 82.676C115.606 82.676 114.436 82.2165 113.647 81.4276L112.227 82.8478C113.495 84.1157 115.238 84.6845 117.307 84.6845V82.676ZM113.661 81.4423C112.857 80.6049 112.398 79.4021 112.398 77.703H110.39C110.39 79.7746 110.96 81.5282 112.212 82.8332L113.661 81.4423ZM112.398 77.703V47.4312H110.39V77.703H112.398ZM111.394 46.427H101.304V48.4355H111.394V46.427ZM101.304 46.427C99.8859 46.427 98.9459 46.0653 98.3319 45.482L96.9485 46.9382C98.0484 47.9831 99.5507 48.4355 101.304 48.4355V46.427ZM98.3683 45.5184C97.7804 44.8996 97.4233 43.9771 97.4233 42.6109H95.4148C95.4148 44.3297 95.8718 45.8067 96.9121 46.9018L98.3683 45.5184ZM97.4233 42.6109C97.4233 41.1893 97.7864 40.2857 98.3503 39.7218L96.9301 38.3016C95.8658 39.3659 95.4148 40.8617 95.4148 42.6109H97.4233ZM98.3319 39.7398C98.9459 39.1565 99.8859 38.7948 101.304 38.7948V36.7863C99.5507 36.7863 98.0484 37.2387 96.9485 38.2836L98.3319 39.7398ZM101.304 38.7948H133.311V36.7863H101.304V38.7948ZM133.311 38.7948C134.732 38.7948 135.636 39.1579 136.2 39.7218L137.62 38.3016C136.556 37.2373 135.06 36.7863 133.311 36.7863V38.7948ZM136.218 39.7398C136.814 40.3062 137.191 41.2032 137.191 42.6109H139.2C139.2 40.8479 138.719 39.3454 137.602 38.2836L136.218 39.7398ZM137.191 42.6109C137.191 43.9634 136.821 44.8792 136.2 45.5L137.62 46.9202C138.713 45.8271 139.2 44.3435 139.2 42.6109H137.191ZM136.2 45.5C135.636 46.0639 134.732 46.427 133.311 46.427V48.4355C135.06 48.4355 136.556 47.9845 137.62 46.9202L136.2 45.5ZM133.311 46.427H123.22V48.4355H133.311V46.427ZM122.216 47.4312V77.703H124.224V47.4312H122.216ZM122.216 77.703C122.216 79.4131 121.772 80.6216 121.003 81.4578L122.481 82.8177C123.683 81.5115 124.224 79.7635 124.224 77.703H122.216ZM121.017 81.4429C120.284 82.2073 119.112 82.676 117.307 82.676V84.6845C119.444 84.6845 121.229 84.1248 122.467 82.8326L121.017 81.4429ZM139.638 82.7804L139.055 83.5976L139.068 83.607L139.081 83.616L139.638 82.7804ZM137.967 80.2096L136.981 80.3993L136.983 80.4065L137.967 80.2096ZM138.546 76.4819L137.635 76.0588L137.63 76.069L137.626 76.0793L138.546 76.4819ZM154.549 42.0325L155.46 42.4556L155.461 42.4533L154.549 42.0325ZM157.377 38.369L156.82 37.5334L156.813 37.5383L156.806 37.5433L157.377 38.369ZM165.09 38.369L164.503 39.184L164.511 39.1894L164.518 39.1947L165.09 38.369ZM167.982 42.0325L168.893 41.6094L168.889 41.601L168.885 41.5926L167.982 42.0325ZM183.986 76.4819L183.075 76.905L183.081 76.9181L183.087 76.931L183.986 76.4819ZM184.693 80.2096L183.706 80.02L183.703 80.0384L183.7 80.0569L184.693 80.2096ZM183.086 82.7804L182.529 81.9449L182.519 81.9512L182.51 81.9577L183.086 82.7804ZM175.887 82.5234L175.234 83.2858L175.243 83.2933L175.252 83.3006L175.887 82.5234ZM173.445 78.7956L174.369 78.4028L174.369 78.4027L173.445 78.7956ZM169.975 70.6332L170.566 69.8215L167.628 67.6811L169.05 71.0261L169.975 70.6332ZM174.473 73.911V74.9153H177.557L175.065 73.0993L174.473 73.911ZM147.994 73.911L147.408 73.0954L144.874 74.9153H147.994V73.911ZM152.557 70.6332L153.481 71.0261L154.885 67.7245L151.971 69.8176L152.557 70.6332ZM149.086 78.7956L150.002 79.2077L150.006 79.1982L150.011 79.1886L149.086 78.7956ZM146.708 82.5234L146.018 81.7943L146.708 82.5234ZM161.169 50.1306V49.1264H160.501L160.243 49.7427L161.169 50.1306ZM153.714 67.9338L152.846 68.4398L153.862 70.1804L154.64 68.3217L153.714 67.9338ZM151.914 64.8488V63.8445H150.166L151.047 65.3548L151.914 64.8488ZM170.617 64.8488L171.485 65.3548L172.366 63.8445H170.617V64.8488ZM168.818 67.9338L167.893 68.3245L168.674 70.1737L169.685 68.4398L168.818 67.9338ZM161.298 50.1306L162.223 49.7399L161.964 49.1264H161.298V50.1306ZM142.981 82.676C141.805 82.676 140.896 82.4119 140.196 81.9449L139.081 83.616C140.18 84.3487 141.5 84.6845 142.981 84.6845V82.676ZM140.222 81.9633C139.527 81.4668 139.116 80.8303 138.952 80.0127L136.983 80.4065C137.248 81.7313 137.95 82.8086 139.055 83.5976L140.222 81.9633ZM138.954 80.02C138.788 79.1602 138.922 78.128 139.466 76.8844L137.626 76.0793C136.97 77.578 136.718 79.0309 136.981 80.3992L138.954 80.02ZM139.457 76.905L155.46 42.4556L153.639 41.6094L137.635 76.0588L139.457 76.905ZM155.461 42.4533C156.183 40.889 157.026 39.8335 157.949 39.1947L156.806 37.5433C155.5 38.447 154.458 39.8338 153.638 41.6116L155.461 42.4533ZM157.934 39.2046C158.918 38.5487 160.029 38.2164 161.298 38.2164V36.2079C159.653 36.2079 158.15 36.6468 156.82 37.5334L157.934 39.2046ZM161.298 38.2164C162.567 38.2164 163.621 38.5485 164.503 39.184L165.677 37.554C164.417 36.647 162.942 36.2079 161.298 36.2079V38.2164ZM164.518 39.1947C165.448 39.8381 166.314 40.9011 167.079 42.4723L168.885 41.5926C168.022 39.8217 166.96 38.4424 165.662 37.5433L164.518 39.1947ZM167.071 42.4556L183.075 76.905L184.896 76.0588L168.893 41.6094L167.071 42.4556ZM183.087 76.931C183.709 78.1734 183.867 79.1877 183.706 80.02L185.679 80.3992C185.947 79.0034 185.634 77.5326 184.884 76.0328L183.087 76.931ZM183.7 80.0569C183.57 80.9056 183.183 81.5087 182.529 81.9449L183.643 83.616C184.788 82.8524 185.473 81.7417 185.685 80.3623L183.7 80.0569ZM182.51 81.9577C181.857 82.4147 180.999 82.676 179.872 82.676V84.6845C181.316 84.6845 182.601 84.3459 183.662 83.6032L182.51 81.9577ZM179.872 82.676C178.297 82.676 177.226 82.3209 176.523 81.7461L175.252 83.3006C176.434 84.2683 178.019 84.6845 179.872 84.6845V82.676ZM176.541 81.7609C175.807 81.1317 175.068 80.0474 174.369 78.4028L172.521 79.1884C173.279 80.9717 174.168 82.3725 175.234 83.2858L176.541 81.7609ZM174.369 78.4027L170.899 70.2402L169.05 71.0261L172.521 79.1886L174.369 78.4027ZM169.383 71.4448L173.882 74.7227L175.065 73.0993L170.566 69.8215L169.383 71.4448ZM174.473 72.9068H147.994V74.9153H174.473V72.9068ZM148.58 74.7266L153.143 71.4488L151.971 69.8176L147.408 73.0954L148.58 74.7266ZM151.633 70.2402L148.162 78.4027L150.011 79.1886L153.481 71.0261L151.633 70.2402ZM148.171 78.3835C147.422 80.0479 146.694 81.1539 146.018 81.7943L147.399 83.2524C148.351 82.3503 149.209 80.9712 150.002 79.2077L148.171 78.3835ZM146.018 81.7943C145.464 82.319 144.518 82.676 142.981 82.676V84.6845C144.785 84.6845 146.325 84.2703 147.399 83.2524L146.018 81.7943ZM160.243 49.7427L152.788 67.5459L154.64 68.3217L162.096 50.5185L160.243 49.7427ZM154.581 67.4278L152.782 64.3428L151.047 65.3548L152.846 68.4398L154.581 67.4278ZM151.914 65.853H170.617V63.8445H151.914V65.853ZM169.75 64.3428L167.95 67.4278L169.685 68.4398L171.485 65.3548L169.75 64.3428ZM169.743 67.543L162.223 49.7399L160.373 50.5214L167.893 68.3245L169.743 67.543ZM161.298 49.1264H161.169V51.1349H161.298V49.1264ZM195.278 82.1377L194.553 82.8332L194.56 82.8406L194.568 82.8478L195.278 82.1377ZM195.278 39.3331L194.582 38.6086L194.575 38.6157L194.568 38.623L195.278 39.3331ZM227.413 41.5826L226.739 42.3262L226.744 42.3316L226.751 42.3369L227.413 41.5826ZM229.727 59.5142L228.866 58.9976L228.863 59.0028L229.727 59.5142ZM224.264 64.3989L224.693 65.3068L224.7 65.3035L224.264 64.3989ZM215.523 66.0699L214.606 65.6621L213.978 67.0742H215.523V66.0699ZM216.037 64.913V63.9088H215.385L215.12 64.5052L216.037 64.913ZM224.007 66.2627L223.468 67.11L223.477 67.1159L223.487 67.1216L224.007 66.2627ZM227.542 70.2476L226.652 70.7135L226.658 70.7245L226.664 70.7353L227.542 70.2476ZM230.756 76.032L231.635 75.5468L231.633 75.5443L230.756 76.032ZM231.72 79.6954L232.723 79.7326L232.723 79.7313L231.72 79.6954ZM230.306 82.5876L230.956 83.3528L230.959 83.3501L230.306 82.5876ZM222.4 82.6519L221.843 83.4875L221.851 83.4927L221.859 83.4977L222.4 82.6519ZM219.637 79.4383L218.755 79.9189L218.76 79.9282L219.637 79.4383ZM213.788 68.705L214.67 68.2245L214.67 68.2242L213.788 68.705ZM211.796 66.7769L211.346 67.6751L211.376 67.6898L211.406 67.7024L211.796 66.7769ZM205.561 66.1985V65.1942H204.557V66.1985H205.561ZM204.083 82.1377L204.808 82.8326L204.815 82.8252L204.822 82.8177L204.083 82.1377ZM205.561 57.8432H204.557V58.8474H205.561V57.8432ZM218.608 56.4935L218.006 55.6901L218.608 56.4935ZM218.608 48.2668L217.988 49.0564L217.997 49.0634L218.006 49.0702L218.608 48.2668ZM205.561 46.8528V45.8486H204.557V46.8528H205.561ZM199.648 82.676C197.947 82.676 196.777 82.2165 195.988 81.4276L194.568 82.8478C195.836 84.1157 197.579 84.6845 199.648 84.6845V82.676ZM196.002 81.4423C195.198 80.6049 194.74 79.4021 194.74 77.703H192.731C192.731 79.7746 193.301 81.5282 194.553 82.8332L196.002 81.4423ZM194.74 77.703V43.7678H192.731V77.703H194.74ZM194.74 43.7678C194.74 42.0162 195.203 40.828 195.988 40.0432L194.568 38.623C193.296 39.8948 192.731 41.6631 192.731 43.7678H194.74ZM195.973 40.0575C196.811 39.2536 198.014 38.7948 199.713 38.7948V36.7863C197.641 36.7863 195.887 37.3559 194.582 38.6086L195.973 40.0575ZM199.713 38.7948H215.523V36.7863H199.713V38.7948ZM215.523 38.7948C220.508 38.7948 224.197 40.0191 226.739 42.3262L228.088 40.839C225.06 38.09 220.822 36.7863 215.523 36.7863V38.7948ZM226.751 42.3369C229.321 44.5961 230.651 47.769 230.651 51.9945H232.66C232.66 47.3078 231.161 43.5394 228.076 40.8282L226.751 42.3369ZM230.651 51.9945C230.651 54.7109 230.045 57.0334 228.866 58.9976L230.588 60.0309C231.981 57.7104 232.66 55.0197 232.66 51.9945H230.651ZM228.863 59.0028C227.73 60.9163 226.066 62.4151 223.828 63.4943L224.7 65.3035C227.261 64.0688 229.239 62.3112 230.591 60.0257L228.863 59.0028ZM223.835 63.491C221.649 64.5242 218.892 65.0657 215.523 65.0657V67.0742C219.095 67.0742 222.166 66.5016 224.693 65.3068L223.835 63.491ZM216.441 66.4778L216.955 65.3209L215.12 64.5052L214.606 65.6621L216.441 66.4778ZM216.037 65.9173H219.122V63.9088H216.037V65.9173ZM219.122 65.9173C220.794 65.9173 222.231 66.3228 223.468 67.11L224.546 65.4155C222.955 64.4031 221.136 63.9088 219.122 63.9088V65.9173ZM223.487 67.1216C224.712 67.8641 225.775 69.0391 226.652 70.7135L228.432 69.7816C227.423 67.8568 226.13 66.3753 224.528 65.4039L223.487 67.1216ZM226.664 70.7353L229.878 76.5197L231.633 75.5443L228.42 69.7598L226.664 70.7353ZM229.876 76.5171C230.49 77.6297 230.751 78.6723 230.716 79.6596L232.723 79.7313C232.774 78.3191 232.392 76.9194 231.635 75.5468L229.876 76.5171ZM230.716 79.6583C230.684 80.5277 230.345 81.2314 229.652 81.8252L230.959 83.3501C232.066 82.4014 232.67 81.1769 232.723 79.7326L230.716 79.6583ZM229.655 81.8225C229.05 82.3368 228.059 82.676 226.514 82.676V84.6845C228.311 84.6845 229.847 84.2953 230.956 83.3528L229.655 81.8225ZM226.514 82.676C224.975 82.676 223.808 82.3604 222.942 81.8061L221.859 83.4977C223.135 84.3145 224.71 84.6845 226.514 84.6845V82.676ZM222.957 81.8163C222.1 81.2444 221.276 80.3127 220.513 78.9485L218.76 79.9282C219.626 81.4776 220.644 82.6883 221.843 83.4875L222.957 81.8163ZM220.518 78.9578L214.67 68.2245L212.906 69.1856L218.755 79.9189L220.518 78.9578ZM214.67 68.2242C214.071 67.1263 213.251 66.3002 212.185 65.8514L211.406 67.7024C211.968 67.9392 212.477 68.3985 212.906 69.1859L214.67 68.2242ZM212.245 65.8787C211.31 65.4111 210.251 65.1942 209.096 65.1942V67.2027C209.998 67.2027 210.739 67.3714 211.346 67.6751L212.245 65.8787ZM209.096 65.1942H205.561V67.2027H209.096V65.1942ZM204.557 66.1985V77.703H206.565V66.1985H204.557ZM204.557 77.703C204.557 79.4131 204.113 80.6216 203.344 81.4578L204.822 82.8177C206.024 81.5115 206.565 79.7635 206.565 77.703H204.557ZM203.358 81.4429C202.625 82.2073 201.453 82.676 199.648 82.676V84.6845C201.785 84.6845 203.57 84.1248 204.808 82.8326L203.358 81.4429ZM205.561 58.8474H213.402V56.839H205.561V58.8474ZM213.402 58.8474C215.785 58.8474 217.768 58.3788 219.211 57.2969L218.006 55.6901C217.049 56.4078 215.562 56.839 213.402 56.839V58.8474ZM219.211 57.2969C220.728 56.1593 221.412 54.4273 221.412 52.3159H219.404C219.404 53.975 218.888 55.0281 218.006 55.6901L219.211 57.2969ZM221.412 52.3159C221.412 50.2712 220.715 48.5918 219.211 47.4634L218.006 49.0702C218.901 49.7414 219.404 50.7613 219.404 52.3159H221.412ZM219.229 47.4771C217.784 46.342 215.793 45.8486 213.402 45.8486V47.857C215.554 47.857 217.033 48.3063 217.988 49.0564L219.229 47.4771ZM213.402 45.8486H205.561V47.857H213.402V45.8486ZM204.557 46.8528V57.8432H206.565V46.8528H204.557ZM253.927 82.1377L253.202 82.8332L253.21 82.8406L253.217 82.8478L253.927 82.1377ZM252.384 47.4312H253.389V46.427H252.384V47.4312ZM238.63 46.2101L237.902 46.9018L237.92 46.9204L237.939 46.9382L238.63 46.2101ZM238.63 39.0117L237.939 38.2836L237.929 38.2925L237.92 38.3016L238.63 39.0117ZM277.9 39.0117L277.19 39.7218L277.199 39.7309L277.208 39.7398L277.9 39.0117ZM277.9 46.2101L278.61 46.9202L277.9 46.2101ZM264.21 47.4312V46.427H263.206V47.4312H264.21ZM262.732 82.1377L263.457 82.8326L263.464 82.8252L263.471 82.8177L262.732 82.1377ZM258.297 82.676C256.596 82.676 255.426 82.2165 254.637 81.4276L253.217 82.8478C254.485 84.1157 256.228 84.6845 258.297 84.6845V82.676ZM254.651 81.4423C253.847 80.6049 253.389 79.4021 253.389 77.703H251.38C251.38 79.7746 251.95 81.5282 253.202 82.8332L254.651 81.4423ZM253.389 77.703V47.4312H251.38V77.703H253.389ZM252.384 46.427H242.294V48.4355H252.384V46.427ZM242.294 46.427C240.876 46.427 239.936 46.0653 239.322 45.482L237.939 46.9382C239.039 47.9831 240.541 48.4355 242.294 48.4355V46.427ZM239.358 45.5184C238.771 44.8996 238.413 43.9771 238.413 42.6109H236.405C236.405 44.3297 236.862 45.8067 237.902 46.9018L239.358 45.5184ZM238.413 42.6109C238.413 41.1893 238.776 40.2857 239.34 39.7218L237.92 38.3016C236.856 39.3659 236.405 40.8617 236.405 42.6109H238.413ZM239.322 39.7398C239.936 39.1565 240.876 38.7948 242.294 38.7948V36.7863C240.541 36.7863 239.039 37.2387 237.939 38.2836L239.322 39.7398ZM242.294 38.7948H274.301V36.7863H242.294V38.7948ZM274.301 38.7948C275.722 38.7948 276.626 39.1579 277.19 39.7218L278.61 38.3016C277.546 37.2373 276.05 36.7863 274.301 36.7863V38.7948ZM277.208 39.7398C277.805 40.3062 278.181 41.2032 278.181 42.6109H280.19C280.19 40.8479 279.709 39.3454 278.592 38.2836L277.208 39.7398ZM278.181 42.6109C278.181 43.9634 277.811 44.8792 277.19 45.5L278.61 46.9202C279.703 45.8271 280.19 44.3435 280.19 42.6109H278.181ZM277.19 45.5C276.626 46.0639 275.722 46.427 274.301 46.427V48.4355C276.05 48.4355 277.546 47.9845 278.61 46.9202L277.19 45.5ZM274.301 46.427H264.21V48.4355H274.301V46.427ZM263.206 47.4312V77.703H265.215V47.4312H263.206ZM263.206 77.703C263.206 79.4131 262.762 80.6216 261.993 81.4578L263.471 82.8177C264.673 81.5115 265.215 79.7635 265.215 77.703H263.206ZM262.007 81.4429C261.274 82.2073 260.102 82.676 258.297 82.676V84.6845C260.434 84.6845 262.219 84.1248 263.457 82.8326L262.007 81.4429Z" fill="white"/>
<path d="M58.4865 16.5919C62.3325 21.1287 58.9785 30.2931 53.2272 35.1687C47.476 40.0444 37.8862 41.8532 34.0401 37.3164C30.194 32.7796 32.5487 24.4625 39.2993 18.7396C46.05 13.0167 54.6404 12.0551 58.4865 16.5919Z" fill="#FFF7DD"/>
<defs>
<filter id="filter0_d_0_190" x="313.034" y="39.4724" width="38.1611" height="49.0212" filterUnits="userSpaceOnUse" color-interpolation-filters="sRGB">
<feFlood flood-opacity="0" result="BackgroundImageFix"/>
<feColorMatrix in="SourceAlpha" type="matrix" values="0 0 0 0 0 0 0 0 0 0 0 0 0 0 0 0 0 0 127 0" result="hardAlpha"/>
<feOffset dy="8.03391"/>
<feComposite in2="hardAlpha" operator="out"/>
<feColorMatrix type="matrix" values="0 0 0 0 1 0 0 0 0 0.835982 0 0 0 0 0.251667 0 0 0 1 0"/>
<feBlend mode="normal" in2="BackgroundImageFix" result="effect1_dropShadow_0_190"/>
<feBlend mode="normal" in="SourceGraphic" in2="effect1_dropShadow_0_190" result="shape"/>
</filter>
<filter id="filter1_d_0_190" x="0" y="0" width="329.391" height="128.542" filterUnits="userSpaceOnUse" color-interpolation-filters="sRGB">
<feFlood flood-opacity="0" result="BackgroundImageFix"/>
<feColorMatrix in="SourceAlpha" type="matrix" values="0 0 0 0 0 0 0 0 0 0 0 0 0 0 0 0 0 0 127 0" result="hardAlpha"/>
<feOffset dy="8.03391"/>
<feComposite in2="hardAlpha" operator="out"/>
<feColorMatrix type="matrix" values="0 0 0 0 1 0 0 0 0 0.835982 0 0 0 0 0.251667 0 0 0 1 0"/>
<feBlend mode="normal" in2="BackgroundImageFix" result="effect1_dropShadow_0_190"/>
<feBlend mode="normal" in="SourceGraphic" in2="effect1_dropShadow_0_190" result="shape"/>
</filter>
<filter id="filter2_di_0_190" x="3.04199" y="6.02539" width="316.306" height="108.458" filterUnits="userSpaceOnUse" color-interpolation-filters="sRGB">
<feFlood flood-opacity="0" result="BackgroundImageFix"/>
<feColorMatrix in="SourceAlpha" type="matrix" values="0 0 0 0 0 0 0 0 0 0 0 0 0 0 0 0 0 0 127 0" result="hardAlpha"/>
<feOffset dy="8.03391"/>
<feComposite in2="hardAlpha" operator="out"/>
<feColorMatrix type="matrix" values="0 0 0 0 0.929167 0 0 0 0 0.72458 0 0 0 0 0 0 0 0 1 0"/>
<feBlend mode="normal" in2="BackgroundImageFix" result="effect1_dropShadow_0_190"/>
<feBlend mode="normal" in="SourceGraphic" in2="effect1_dropShadow_0_190" result="shape"/>
<feColorMatrix in="SourceAlpha" type="matrix" values="0 0 0 0 0 0 0 0 0 0 0 0 0 0 0 0 0 0 127 0" result="hardAlpha"/>
<feOffset dx="-7" dy="8"/>
<feGaussianBlur stdDeviation="9.9"/>
<feComposite in2="hardAlpha" operator="arithmetic" k2="-1" k3="1"/>
<feColorMatrix type="matrix" values="0 0 0 0 0.929412 0 0 0 0 0.72549 0 0 0 0 0 0 0 0 1 0"/>
<feBlend mode="normal" in2="shape" result="effect2_innerShadow_0_190"/>
</filter>
</defs>
</svg>
