<svg width="373" height="129" viewBox="0 0 373 129" fill="none" xmlns="http://www.w3.org/2000/svg">
<g filter="url(#filter0_d_0_364)">
<path d="M313.034 49.5297C313.034 41.7991 321.403 36.9674 328.097 40.8328L346.174 51.2691C352.869 55.1344 352.869 64.7977 346.174 68.663L328.097 79.0994C321.403 82.9647 313.034 78.1331 313.034 70.4024L313.034 49.5297Z" fill="#FFDF6D"/>
</g>
<g filter="url(#filter1_d_0_364)">
<rect width="329.39" height="120.509" rx="40.1695" fill="#FFDF6D"/>
</g>
<g filter="url(#filter2_di_0_364)">
<rect x="10.042" y="6.02539" width="309.306" height="100.424" rx="40.1695" fill="#FFCF25"/>
</g>
<path d="M27 38.7462C27 27.2884 36.2884 18 47.7462 18H275.392C286.848 18 296.136 27.2876 296.136 38.7444C296.136 51.2021 285.257 60.8826 272.868 59.574C244.748 56.6038 196.868 52.16 161.98 52.1441C126.817 52.1281 78.5378 56.5978 50.2647 59.5787C37.8759 60.8849 27 51.2037 27 38.7462Z" fill="#FFD84C"/>
<path d="M82.1056 83.6802C80.306 83.6802 78.9349 83.2089 77.9923 82.2663C77.0496 81.3236 76.5783 79.9311 76.5783 78.0886V43.0608C76.5783 41.1755 77.0496 39.7401 77.9923 38.7546C78.9349 37.7263 80.1775 37.2121 81.72 37.2121C83.0911 37.2121 84.1623 37.4692 84.9336 37.9834C85.7048 38.4975 86.5618 39.3545 87.5044 40.5542L107.878 66.0056H106.079V42.7394C106.079 40.9398 106.529 39.5687 107.429 38.6261C108.371 37.6834 109.742 37.2121 111.542 37.2121C113.341 37.2121 114.691 37.6834 115.591 38.6261C116.534 39.5687 117.005 40.9398 117.005 42.7394V78.3457C117.005 79.9739 116.576 81.2808 115.72 82.2663C114.863 83.2089 113.706 83.6802 112.249 83.6802C110.792 83.6802 109.635 83.4232 108.778 82.909C107.964 82.352 107.086 81.495 106.143 80.3381L85.7691 54.8224H87.5687V78.0886C87.5687 79.9311 87.0974 81.3236 86.1547 82.2663C85.2549 83.2089 83.9052 83.6802 82.1056 83.6802ZM135.31 83.1018C133.296 83.1018 131.754 82.5876 130.683 81.5593C129.654 80.4881 129.14 78.967 129.14 76.996V43.8963C129.14 41.9253 129.654 40.4257 130.683 39.3973C131.754 38.3261 133.296 37.7906 135.31 37.7906H157.098C158.641 37.7906 159.798 38.1762 160.569 38.9474C161.34 39.7187 161.726 40.8327 161.726 42.2895C161.726 43.7892 161.34 44.9461 160.569 45.7602C159.798 46.5314 158.641 46.9171 157.098 46.9171H140.452V55.5294H155.684C157.184 55.5294 158.319 55.9151 159.091 56.6863C159.905 57.4576 160.312 58.593 160.312 60.0927C160.312 61.5924 159.905 62.7278 159.091 63.4991C158.319 64.2703 157.184 64.6559 155.684 64.6559H140.452V73.9753H157.098C158.641 73.9753 159.798 74.3823 160.569 75.1964C161.34 75.9677 161.726 77.0817 161.726 78.5385C161.726 80.0382 161.34 81.1737 160.569 81.9449C159.798 82.7162 158.641 83.1018 157.098 83.1018H135.31ZM176.528 83.6802C175.028 83.6802 173.785 83.2732 172.8 82.4591C171.814 81.645 171.236 80.6167 171.065 79.3741C170.936 78.1315 171.365 76.8675 172.35 75.5821L185.976 57.5861V62.9206L172.736 45.3746C171.75 44.0463 171.322 42.7609 171.45 41.5183C171.622 40.2757 172.2 39.2474 173.186 38.4333C174.171 37.6192 175.414 37.2121 176.913 37.2121C178.156 37.2121 179.248 37.512 180.191 38.1119C181.134 38.7118 182.076 39.6758 183.019 41.0041L192.595 54.3083H188.739L198.38 41.0041C199.323 39.633 200.265 38.6689 201.208 38.1119C202.15 37.512 203.243 37.2121 204.486 37.2121C206.028 37.2121 207.292 37.6192 208.278 38.4333C209.263 39.2045 209.82 40.2114 209.949 41.454C210.12 42.6966 209.692 44.0034 208.663 45.3746L195.359 62.9206V57.5861L208.985 75.5821C210.013 76.8675 210.441 78.1315 210.27 79.3741C210.142 80.6167 209.585 81.645 208.599 82.4591C207.614 83.2732 206.35 83.6802 204.807 83.6802C203.607 83.6802 202.536 83.4017 201.593 82.8447C200.651 82.2449 199.687 81.2594 198.701 79.8882L188.803 66.1985H192.531L182.698 79.8882C181.712 81.2594 180.748 82.2449 179.805 82.8447C178.863 83.4017 177.77 83.6802 176.528 83.6802ZM237.665 83.6802C235.78 83.6802 234.323 83.1661 233.295 82.1377C232.266 81.0665 231.752 79.5883 231.752 77.703V47.4312H221.662C220.076 47.4312 218.855 47.0242 217.998 46.2101C217.184 45.3531 216.777 44.1534 216.777 42.6109C216.777 41.0255 217.184 39.8258 217.998 39.0117C218.855 38.1976 220.076 37.7906 221.662 37.7906H253.669C255.254 37.7906 256.454 38.1976 257.268 39.0117C258.125 39.8258 258.553 41.0255 258.553 42.6109C258.553 44.1534 258.125 45.3531 257.268 46.2101C256.454 47.0242 255.254 47.4312 253.669 47.4312H243.578V77.703C243.578 79.5883 243.085 81.0665 242.1 82.1377C241.114 83.1661 239.636 83.6802 237.665 83.6802Z" fill="white"/>
<path d="M77.9923 82.2663L78.7024 81.5562L77.9923 82.2663ZM77.9923 38.7546L78.718 39.4488L78.7253 39.4411L78.7325 39.4332L77.9923 38.7546ZM84.9336 37.9834L84.3765 38.8189H84.3765L84.9336 37.9834ZM87.5044 40.5542L86.7147 41.1747L86.7204 41.1818L87.5044 40.5542ZM107.878 66.0056V67.0099H109.969L108.662 65.3781L107.878 66.0056ZM106.079 66.0056H105.075V67.0099H106.079V66.0056ZM107.429 38.6261L106.718 37.916L106.71 37.9242L106.702 37.9327L107.429 38.6261ZM115.591 38.6261L114.865 39.3195L114.873 39.3279L114.881 39.3362L115.591 38.6261ZM115.72 82.2663L116.463 82.9418L116.47 82.9336L116.477 82.9252L115.72 82.2663ZM108.778 82.909L108.211 83.7378L108.236 83.7547L108.262 83.7701L108.778 82.909ZM106.143 80.3381L105.358 80.9648L105.365 80.9725L106.143 80.3381ZM85.7691 54.8224V53.8182H83.6821L84.9843 55.4491L85.7691 54.8224ZM87.5687 54.8224H88.5729V53.8182H87.5687V54.8224ZM86.1547 82.2663L85.4446 81.5562L85.4364 81.5644L85.4283 81.5729L86.1547 82.2663ZM82.1056 82.676C80.4765 82.676 79.3983 82.2521 78.7024 81.5562L77.2822 82.9764C78.4715 84.1658 80.1355 84.6845 82.1056 84.6845V82.676ZM78.7024 81.5562C78.0105 80.8644 77.5825 79.7685 77.5825 78.0886H75.5741C75.5741 80.0937 76.0887 81.7829 77.2822 82.9764L78.7024 81.5562ZM77.5825 78.0886V43.0608H75.5741V78.0886H77.5825ZM77.5825 43.0608C77.5825 41.3339 78.013 40.1857 78.718 39.4488L77.2666 38.0605C76.0862 39.2945 75.5741 41.0171 75.5741 43.0608H77.5825ZM78.7325 39.4332C79.4637 38.6356 80.4259 38.2164 81.72 38.2164V36.2079C79.9291 36.2079 78.4061 36.817 77.252 38.076L78.7325 39.4332ZM81.72 38.2164C82.9825 38.2164 83.8317 38.4557 84.3765 38.8189L85.4906 37.1478C84.4929 36.4827 83.1997 36.2079 81.72 36.2079V38.2164ZM84.3765 38.8189C85.0207 39.2484 85.8011 40.0119 86.7148 41.1747L88.2941 39.9338C87.3224 38.6971 86.3889 37.7466 85.4906 37.1478L84.3765 38.8189ZM86.7204 41.1818L107.094 66.6332L108.662 65.3781L88.2884 39.9266L86.7204 41.1818ZM107.878 65.0014H106.079V67.0099H107.878V65.0014ZM107.083 66.0056V42.7394H105.075V66.0056H107.083ZM107.083 42.7394C107.083 41.0985 107.492 40.0139 108.155 39.3195L106.702 37.9327C105.565 39.1236 105.075 40.7812 105.075 42.7394H107.083ZM108.139 39.3362C108.835 38.6403 109.913 38.2164 111.542 38.2164V36.2079C109.572 36.2079 107.908 36.7266 106.718 37.916L108.139 39.3362ZM111.542 38.2164C113.174 38.2164 114.217 38.6416 114.865 39.3195L116.317 37.9327C115.165 36.7253 113.508 36.2079 111.542 36.2079V38.2164ZM114.881 39.3362C115.577 40.0321 116.001 41.1103 116.001 42.7394H118.009C118.009 40.7694 117.49 39.1054 116.301 37.916L114.881 39.3362ZM116.001 42.7394V78.3457H118.009V42.7394H116.001ZM116.001 78.3457C116.001 79.7936 115.623 80.8464 114.962 81.6073L116.477 82.9252C117.53 81.7152 118.009 80.1542 118.009 78.3457H116.001ZM114.976 81.5908C114.338 82.293 113.468 82.676 112.249 82.676V84.6845C113.944 84.6845 115.387 84.1248 116.463 82.9418L114.976 81.5908ZM112.249 82.676C110.896 82.676 109.94 82.435 109.295 82.0479L108.262 83.7701C109.33 84.4113 110.688 84.6845 112.249 84.6845V82.676ZM109.345 82.0802C108.64 81.5977 107.831 80.8201 106.922 79.7038L105.365 80.9725C106.34 82.1699 107.288 83.1062 108.211 83.7378L109.345 82.0802ZM106.928 79.7115L86.5538 54.1958L84.9843 55.4491L105.358 80.9648L106.928 79.7115ZM85.7691 55.8267H87.5687V53.8182H85.7691V55.8267ZM86.5644 54.8224V78.0886H88.5729V54.8224H86.5644ZM86.5644 78.0886C86.5644 79.7685 86.1364 80.8644 85.4446 81.5562L86.8648 82.9764C88.0583 81.7829 88.5729 80.0937 88.5729 78.0886H86.5644ZM85.4283 81.5729C84.7812 82.2508 83.7382 82.676 82.1056 82.676V84.6845C84.0722 84.6845 85.7286 84.1671 86.8811 82.9597L85.4283 81.5729ZM130.683 81.5593L129.958 82.2548L129.972 82.2695L129.987 82.2837L130.683 81.5593ZM130.683 39.3973L131.393 40.1074L130.683 39.3973ZM160.569 45.7602L161.279 46.4703L161.288 46.4607L161.298 46.4509L160.569 45.7602ZM140.452 46.9171V45.9128H139.448V46.9171H140.452ZM140.452 55.5294H139.448V56.5337H140.452V55.5294ZM159.091 56.6863L158.38 57.3964L158.39 57.406L158.4 57.4153L159.091 56.6863ZM159.091 63.4991L158.4 62.77L158.39 62.7794L158.38 62.789L159.091 63.4991ZM140.452 64.6559V63.6517H139.448V64.6559H140.452ZM140.452 73.9753H139.448V74.9795H140.452V73.9753ZM160.569 75.1964L159.84 75.8871L159.849 75.8969L159.859 75.9065L160.569 75.1964ZM135.31 82.0976C133.461 82.0976 132.204 81.6276 131.378 80.8349L129.987 82.2837C131.304 83.5477 133.131 84.106 135.31 84.106V82.0976ZM131.407 80.8638C130.611 80.0343 130.144 78.795 130.144 76.996H128.136C128.136 79.139 128.698 80.9419 129.958 82.2548L131.407 80.8638ZM130.144 76.996V43.8963H128.136V76.996H130.144ZM130.144 43.8963C130.144 42.0945 130.612 40.8884 131.393 40.1074L129.973 38.6872C128.697 39.963 128.136 41.7562 128.136 43.8963H130.144ZM131.393 40.1074C132.22 39.2803 133.472 38.7948 135.31 38.7948V36.7863C133.121 36.7863 131.288 37.372 129.973 38.6872L131.393 40.1074ZM135.31 38.7948H157.098V36.7863H135.31V38.7948ZM157.098 38.7948C158.486 38.7948 159.342 39.141 159.859 39.6575L161.279 38.2373C160.253 37.2113 158.795 36.7863 157.098 36.7863V38.7948ZM159.859 39.6575C160.385 40.1839 160.721 41.0068 160.721 42.2895H162.73C162.73 40.6587 162.295 39.2534 161.279 38.2373L159.859 39.6575ZM160.721 42.2895C160.721 43.621 160.382 44.4977 159.84 45.0695L161.298 46.4509C162.299 45.3945 162.73 43.9574 162.73 42.2895H160.721ZM159.859 45.0501C159.342 45.5666 158.486 45.9128 157.098 45.9128V47.9213C158.795 47.9213 160.253 47.4963 161.279 46.4703L159.859 45.0501ZM157.098 45.9128H140.452V47.9213H157.098V45.9128ZM139.448 46.9171V55.5294H141.456V46.9171H139.448ZM140.452 56.5337H155.684V54.5252H140.452V56.5337ZM155.684 56.5337C157.02 56.5337 157.859 56.8751 158.38 57.3964L159.801 55.9762C158.779 54.955 157.348 54.5252 155.684 54.5252V56.5337ZM158.4 57.4153C158.953 57.9393 159.307 58.772 159.307 60.0927H161.316C161.316 58.4141 160.856 56.9758 159.781 55.9573L158.4 57.4153ZM159.307 60.0927C159.307 61.4134 158.953 62.2461 158.4 62.77L159.781 64.2281C160.856 63.2096 161.316 61.7713 161.316 60.0927H159.307ZM158.38 62.789C157.859 63.3103 157.02 63.6517 155.684 63.6517V65.6602C157.348 65.6602 158.779 65.2304 159.801 64.2092L158.38 62.789ZM155.684 63.6517H140.452V65.6602H155.684V63.6517ZM139.448 64.6559V73.9753H141.456V64.6559H139.448ZM140.452 74.9795H157.098V72.971H140.452V74.9795ZM157.098 74.9795C158.472 74.9795 159.321 75.3393 159.84 75.8871L161.298 74.5058C160.274 73.4254 158.81 72.971 157.098 72.971V74.9795ZM159.859 75.9065C160.385 76.4329 160.721 77.2558 160.721 78.5385H162.73C162.73 76.9077 162.295 75.5024 161.279 74.4863L159.859 75.9065ZM160.721 78.5385C160.721 79.8739 160.38 80.7135 159.859 81.2348L161.279 82.655C162.3 81.6338 162.73 80.2025 162.73 78.5385H160.721ZM159.859 81.2348C159.342 81.7513 158.486 82.0976 157.098 82.0976V84.106C158.795 84.106 160.253 83.681 161.279 82.655L159.859 81.2348ZM157.098 82.0976H135.31V84.106H157.098V82.0976ZM172.8 82.4591L173.44 81.6849L172.8 82.4591ZM171.065 79.3741L170.066 79.4774L170.067 79.4944L170.07 79.5113L171.065 79.3741ZM172.35 75.5821L173.147 76.1931L173.151 76.1883L172.35 75.5821ZM185.976 57.5861H186.98V54.5961L185.175 56.9799L185.976 57.5861ZM185.976 62.9206L185.174 63.5255L186.98 65.9187V62.9206H185.976ZM172.736 45.3746L171.929 45.973L171.934 45.9795L172.736 45.3746ZM171.45 41.5183L170.455 41.3811L170.453 41.398L170.451 41.415L171.45 41.5183ZM173.186 38.4333L173.825 39.2075L173.186 38.4333ZM183.019 41.0041L182.2 41.5853L182.204 41.5908L183.019 41.0041ZM192.595 54.3083V55.3125H194.556L193.411 53.7216L192.595 54.3083ZM188.739 54.3083L187.926 53.719L186.771 55.3125H188.739V54.3083ZM198.38 41.0041L199.193 41.5934L199.2 41.5833L199.207 41.573L198.38 41.0041ZM201.208 38.1119L201.719 38.9765L201.733 38.968L201.747 38.9591L201.208 38.1119ZM208.278 38.4333L207.638 39.2075L207.648 39.2159L207.659 39.2241L208.278 38.4333ZM209.949 41.454L208.95 41.5574L208.952 41.5743L208.954 41.5912L209.949 41.454ZM208.663 45.3746L209.464 45.9813L209.467 45.9771L208.663 45.3746ZM195.359 62.9206H194.355V65.9072L196.159 63.5274L195.359 62.9206ZM195.359 57.5861L196.16 56.9799L194.355 54.5961V57.5861H195.359ZM208.985 75.5821L208.184 76.1883L208.192 76.1989L208.2 76.2094L208.985 75.5821ZM210.27 79.3741L209.275 79.2369L209.273 79.2538L209.271 79.2707L210.27 79.3741ZM208.599 82.4591L207.959 81.6849L208.599 82.4591ZM201.593 82.8447L201.054 83.692L201.068 83.7009L201.083 83.7093L201.593 82.8447ZM198.701 79.8882L199.517 79.3021L199.515 79.2999L198.701 79.8882ZM188.803 66.1985V65.1942H186.838L187.99 66.7868L188.803 66.1985ZM192.531 66.1985L193.347 66.7843L194.489 65.1942H192.531V66.1985ZM182.698 79.8882L183.513 80.4744L183.513 80.4741L182.698 79.8882ZM179.805 82.8447L180.316 83.7093L180.331 83.7009L180.345 83.692L179.805 82.8447ZM176.528 82.676C175.219 82.676 174.215 82.3254 173.44 81.6849L172.16 83.2333C173.356 84.221 174.837 84.6845 176.528 84.6845V82.676ZM173.44 81.6849C172.644 81.0277 172.196 80.2249 172.059 79.2369L170.07 79.5113C170.276 81.0084 170.985 82.2623 172.16 83.2333L173.44 81.6849ZM172.064 79.2707C171.968 78.3521 172.27 77.3374 173.147 76.1931L171.553 74.9711C170.459 76.3976 169.904 77.9109 170.066 79.4774L172.064 79.2707ZM173.151 76.1883L186.776 58.1923L185.175 56.9799L171.549 74.9759L173.151 76.1883ZM184.971 57.5861V62.9206H186.98V57.5861H184.971ZM186.777 62.3157L173.537 44.7697L171.934 45.9795L185.174 63.5255L186.777 62.3157ZM173.542 44.7762C172.657 43.5828 172.354 42.5425 172.449 41.6216L170.451 41.415C170.29 42.9792 170.844 44.5098 171.929 45.9729L173.542 44.7762ZM172.445 41.6555C172.581 40.6675 173.03 39.8647 173.825 39.2075L172.546 37.659C171.371 38.6301 170.662 39.8839 170.455 41.3811L172.445 41.6555ZM173.825 39.2075C174.6 38.567 175.605 38.2164 176.913 38.2164V36.2079C175.223 36.2079 173.742 36.6713 172.546 37.659L173.825 39.2075ZM176.913 38.2164C177.987 38.2164 178.888 38.4731 179.652 38.9591L180.73 37.2647C179.609 36.551 178.325 36.2079 176.913 36.2079V38.2164ZM179.652 38.9591C180.447 39.465 181.301 40.3186 182.2 41.5853L183.838 40.4229C182.852 39.033 181.821 37.9585 180.73 37.2647L179.652 38.9591ZM182.204 41.5908L191.78 54.895L193.411 53.7216L183.834 40.4174L182.204 41.5908ZM192.595 53.304H188.739V55.3125H192.595V53.304ZM189.552 54.8975L199.193 41.5934L197.567 40.4149L187.926 53.719L189.552 54.8975ZM199.207 41.573C200.106 40.2656 200.95 39.4307 201.719 38.9765L200.697 37.2473C199.58 37.9072 198.539 39.0004 197.552 40.4352L199.207 41.573ZM201.747 38.9591C202.511 38.4731 203.412 38.2164 204.486 38.2164V36.2079C203.074 36.2079 201.79 36.551 200.669 37.2647L201.747 38.9591ZM204.486 38.2164C205.845 38.2164 206.868 38.5712 207.638 39.2075L208.917 37.659C207.717 36.6672 206.211 36.2079 204.486 36.2079V38.2164ZM207.659 39.2241C208.43 39.8276 208.849 40.5866 208.95 41.5574L210.948 41.3507C210.791 39.8363 210.096 38.5814 208.897 37.6424L207.659 39.2241ZM208.954 41.5912C209.078 42.4875 208.789 43.5333 207.86 44.772L209.467 45.9771C210.594 44.4736 211.163 42.9057 210.944 41.3168L208.954 41.5912ZM207.863 44.7678L194.559 62.3139L196.159 63.5274L209.464 45.9813L207.863 44.7678ZM196.363 62.9206V57.5861H194.355V62.9206H196.363ZM194.559 58.1923L208.184 76.1883L209.785 74.9759L196.16 56.9799L194.559 58.1923ZM208.2 76.2094C209.113 77.3501 209.398 78.3453 209.275 79.2369L211.265 79.5113C211.485 77.9177 210.913 76.3849 209.769 74.9547L208.2 76.2094ZM209.271 79.2707C209.17 80.2445 208.747 81.0342 207.959 81.6849L209.239 83.2333C210.422 82.2558 211.113 80.9888 211.269 79.4774L209.271 79.2707ZM207.959 81.6849C207.189 82.3212 206.166 82.676 204.807 82.676V84.6845C206.533 84.6845 208.038 84.2252 209.239 83.2333L207.959 81.6849ZM204.807 82.676C203.769 82.676 202.878 82.4371 202.104 81.9801L201.083 83.7093C202.195 84.3664 203.445 84.6845 204.807 84.6845V82.676ZM202.133 81.9975C201.338 81.4921 200.462 80.6173 199.517 79.3021L197.886 80.4744C198.912 81.9015 199.963 82.9977 201.054 83.692L202.133 81.9975ZM199.515 79.2999L189.617 65.6101L187.99 66.7868L197.887 80.4766L199.515 79.2999ZM188.803 67.2027H192.531V65.1942H188.803V67.2027ZM191.716 65.6126L181.882 79.3024L183.513 80.4741L193.347 66.7843L191.716 65.6126ZM181.882 79.3021C180.937 80.6173 180.061 81.4921 179.266 81.9975L180.345 83.692C181.436 82.9977 182.487 81.9015 183.513 80.4744L181.882 79.3021ZM179.295 81.9801C178.527 82.4339 177.615 82.676 176.528 82.676V84.6845C177.925 84.6845 179.199 84.3696 180.316 83.7093L179.295 81.9801ZM233.295 82.1377L232.57 82.8332L232.577 82.8406L232.585 82.8478L233.295 82.1377ZM231.752 47.4312H232.756V46.427H231.752V47.4312ZM217.998 46.2101L217.27 46.9018L217.288 46.9204L217.307 46.9382L217.998 46.2101ZM217.998 39.0117L217.307 38.2836L217.297 38.2925L217.288 38.3016L217.998 39.0117ZM257.268 39.0117L256.558 39.7218L256.567 39.7309L256.576 39.7398L257.268 39.0117ZM257.268 46.2101L257.978 46.9202L257.268 46.2101ZM243.578 47.4312V46.427H242.574V47.4312H243.578ZM242.1 82.1377L242.825 82.8326L242.832 82.8252L242.839 82.8177L242.1 82.1377ZM237.665 82.676C235.964 82.676 234.794 82.2165 234.005 81.4276L232.585 82.8478C233.852 84.1157 235.596 84.6845 237.665 84.6845V82.676ZM234.019 81.4423C233.215 80.6049 232.756 79.4021 232.756 77.703H230.748C230.748 79.7746 231.318 81.5282 232.57 82.8332L234.019 81.4423ZM232.756 77.703V47.4312H230.748V77.703H232.756ZM231.752 46.427H221.662V48.4355H231.752V46.427ZM221.662 46.427C220.244 46.427 219.304 46.0653 218.69 45.482L217.307 46.9382C218.406 47.9831 219.909 48.4355 221.662 48.4355V46.427ZM218.726 45.5184C218.138 44.8996 217.781 43.9771 217.781 42.6109H215.773C215.773 44.3297 216.23 45.8067 217.27 46.9018L218.726 45.5184ZM217.781 42.6109C217.781 41.1893 218.144 40.2857 218.708 39.7218L217.288 38.3016C216.224 39.3659 215.773 40.8617 215.773 42.6109H217.781ZM218.69 39.7398C219.304 39.1565 220.244 38.7948 221.662 38.7948V36.7863C219.909 36.7863 218.406 37.2387 217.307 38.2836L218.69 39.7398ZM221.662 38.7948H253.669V36.7863H221.662V38.7948ZM253.669 38.7948C255.09 38.7948 255.994 39.1579 256.558 39.7218L257.978 38.3016C256.914 37.2373 255.418 36.7863 253.669 36.7863V38.7948ZM256.576 39.7398C257.172 40.3062 257.549 41.2032 257.549 42.6109H259.558C259.558 40.8479 259.077 39.3454 257.96 38.2836L256.576 39.7398ZM257.549 42.6109C257.549 43.9634 257.179 44.8792 256.558 45.5L257.978 46.9202C259.071 45.8271 259.558 44.3435 259.558 42.6109H257.549ZM256.558 45.5C255.994 46.0639 255.09 46.427 253.669 46.427V48.4355C255.418 48.4355 256.914 47.9845 257.978 46.9202L256.558 45.5ZM253.669 46.427H243.578V48.4355H253.669V46.427ZM242.574 47.4312V77.703H244.582V47.4312H242.574ZM242.574 77.703C242.574 79.4131 242.13 80.6216 241.361 81.4578L242.839 82.8177C244.041 81.5115 244.582 79.7635 244.582 77.703H242.574ZM241.375 81.4429C240.642 82.2073 239.47 82.676 237.665 82.676V84.6845C239.802 84.6845 241.587 84.1248 242.825 82.8326L241.375 81.4429Z" fill="white"/>
<path d="M58.4865 16.5919C62.3325 21.1287 58.9785 30.2931 53.2272 35.1687C47.476 40.0444 37.8862 41.8532 34.0401 37.3164C30.194 32.7796 32.5487 24.4625 39.2993 18.7396C46.05 13.0167 54.6404 12.0551 58.4865 16.5919Z" fill="#FFF7DD"/>
<defs>
<filter id="filter0_d_0_364" x="313.034" y="39.4724" width="38.1611" height="49.0212" filterUnits="userSpaceOnUse" color-interpolation-filters="sRGB">
<feFlood flood-opacity="0" result="BackgroundImageFix"/>
<feColorMatrix in="SourceAlpha" type="matrix" values="0 0 0 0 0 0 0 0 0 0 0 0 0 0 0 0 0 0 127 0" result="hardAlpha"/>
<feOffset dy="8.03391"/>
<feComposite in2="hardAlpha" operator="out"/>
<feColorMatrix type="matrix" values="0 0 0 0 1 0 0 0 0 0.835982 0 0 0 0 0.251667 0 0 0 1 0"/>
<feBlend mode="normal" in2="BackgroundImageFix" result="effect1_dropShadow_0_364"/>
<feBlend mode="normal" in="SourceGraphic" in2="effect1_dropShadow_0_364" result="shape"/>
</filter>
<filter id="filter1_d_0_364" x="0" y="0" width="329.39" height="128.542" filterUnits="userSpaceOnUse" color-interpolation-filters="sRGB">
<feFlood flood-opacity="0" result="BackgroundImageFix"/>
<feColorMatrix in="SourceAlpha" type="matrix" values="0 0 0 0 0 0 0 0 0 0 0 0 0 0 0 0 0 0 127 0" result="hardAlpha"/>
<feOffset dy="8.03391"/>
<feComposite in2="hardAlpha" operator="out"/>
<feColorMatrix type="matrix" values="0 0 0 0 1 0 0 0 0 0.835982 0 0 0 0 0.251667 0 0 0 1 0"/>
<feBlend mode="normal" in2="BackgroundImageFix" result="effect1_dropShadow_0_364"/>
<feBlend mode="normal" in="SourceGraphic" in2="effect1_dropShadow_0_364" result="shape"/>
</filter>
<filter id="filter2_di_0_364" x="3.04199" y="6.02539" width="316.306" height="108.458" filterUnits="userSpaceOnUse" color-interpolation-filters="sRGB">
<feFlood flood-opacity="0" result="BackgroundImageFix"/>
<feColorMatrix in="SourceAlpha" type="matrix" values="0 0 0 0 0 0 0 0 0 0 0 0 0 0 0 0 0 0 127 0" result="hardAlpha"/>
<feOffset dy="8.03391"/>
<feComposite in2="hardAlpha" operator="out"/>
<feColorMatrix type="matrix" values="0 0 0 0 0.929167 0 0 0 0 0.72458 0 0 0 0 0 0 0 0 1 0"/>
<feBlend mode="normal" in2="BackgroundImageFix" result="effect1_dropShadow_0_364"/>
<feBlend mode="normal" in="SourceGraphic" in2="effect1_dropShadow_0_364" result="shape"/>
<feColorMatrix in="SourceAlpha" type="matrix" values="0 0 0 0 0 0 0 0 0 0 0 0 0 0 0 0 0 0 127 0" result="hardAlpha"/>
<feOffset dx="-7" dy="8"/>
<feGaussianBlur stdDeviation="9.9"/>
<feComposite in2="hardAlpha" operator="arithmetic" k2="-1" k3="1"/>
<feColorMatrix type="matrix" values="0 0 0 0 0.929412 0 0 0 0 0.72549 0 0 0 0 0 0 0 0 1 0"/>
<feBlend mode="normal" in2="shape" result="effect2_innerShadow_0_364"/>
</filter>
</defs>
</svg>
