<svg width="250" height="109" viewBox="0 0 250 109" fill="none" xmlns="http://www.w3.org/2000/svg">
<path d="M9.91141 17.8674L0.832196 46.4966L30.1654 40.0448L9.91141 17.8674ZM12.9301 31.5918L10.3897 32.1506L12.9301 31.5918ZM163.168 73.8489L162.836 76.4287L163.168 73.8489ZM143.082 96.3827L144.261 98.7012L143.082 96.3827ZM177.614 14.3507L179.169 12.2657L177.614 14.3507ZM184.952 53.8505L187.152 55.2379L184.952 53.8505ZM177.337 65.9247L175.137 64.5373L177.337 65.9247ZM145.01 95.4027L143.83 93.0842L145.01 95.4027ZM146.23 71.6713L146.561 69.0915L146.23 71.6713ZM247.665 60.2123C245.677 61.0275 243.675 61.803 241.662 62.5387L243.447 67.4248C245.524 66.6661 247.588 65.8663 249.638 65.0256L247.665 60.2123ZM233.527 65.2752C229.419 66.5396 225.269 67.6426 221.086 68.5827L222.227 73.6582C226.541 72.6886 230.821 71.5511 235.057 70.247L233.527 65.2752ZM212.666 70.2479C208.435 70.9715 204.177 71.5308 199.903 71.9245L200.38 77.1047C204.788 76.6987 209.179 76.1218 213.543 75.3755L212.666 70.2479ZM191.338 72.4907C187.054 72.6628 182.76 72.6691 178.465 72.5085L178.271 77.7069C182.7 77.8726 187.129 77.8661 191.547 77.6886L191.338 72.4907ZM169.899 71.966C167.764 71.7753 165.631 71.543 163.499 71.269L162.836 76.4287C165.034 76.7112 167.235 76.9508 169.437 77.1475L169.899 71.966ZM163.499 71.269L158.418 70.6158L157.755 75.7754L162.836 76.4287L163.499 71.269ZM151.643 69.7448L146.561 69.0915L145.898 74.2511L150.979 74.9044L151.643 69.7448ZM146.561 69.0915C144.672 68.8486 142.85 68.4487 141.105 67.9082L139.566 72.8773C141.596 73.5062 143.711 73.97 145.898 74.2511L146.561 69.0915ZM134.321 64.8964C131.083 62.9752 128.244 60.5085 125.904 57.6466L121.877 60.9399C124.595 64.2629 127.895 67.1325 131.666 69.3703L134.321 64.8964ZM121.892 51.3886C120.268 48.0674 119.211 44.4584 118.816 40.7141L113.643 41.2592C114.102 45.6204 115.333 49.8172 117.218 53.6737L121.892 51.3886ZM118.911 33.292C119.148 31.4807 119.545 29.6582 120.113 27.8398L115.147 26.2892C114.49 28.3939 114.029 30.5093 113.753 32.6169L118.911 33.292ZM120.113 27.8398C120.737 25.8399 121.53 23.9593 122.467 22.2041L117.878 19.7541C116.787 21.7969 115.869 23.9786 115.147 26.2892L120.113 27.8398ZM127.175 15.5979C129.982 12.5769 133.326 10.1686 136.984 8.44953L134.772 3.74141C130.527 5.73634 126.636 8.53584 123.364 12.0573L127.175 15.5979ZM144.718 5.94112C148.688 5.18585 152.81 5.17256 156.855 5.97112L157.863 0.867495C153.147 -0.0633302 148.354 -0.045834 143.746 0.830648L144.718 5.94112ZM164.545 8.55587C166.334 9.4269 168.079 10.4842 169.759 11.7368L172.869 7.56682C170.929 6.11958 168.904 4.89246 166.822 3.87874L164.545 8.55587ZM169.759 11.7368L171.649 13.1465L174.759 8.97648L172.869 7.56682L169.759 11.7368ZM174.169 15.026L176.059 16.4357L179.169 12.2657L177.279 10.856L174.169 15.026ZM176.059 16.4357C177.71 17.6673 179.181 19.0524 180.465 20.5566L184.421 17.1788C182.887 15.3821 181.134 13.7308 179.169 12.2657L176.059 16.4357ZM184.703 27.3683C186.303 31.081 187.052 35.116 186.893 39.1555L192.091 39.3609C192.281 34.5449 191.388 29.7362 189.481 25.3098L184.703 27.3683ZM185.384 47.0348C184.725 48.8999 183.85 50.7206 182.752 52.4631L187.152 55.2379C188.459 53.1651 189.503 50.9941 190.289 48.7664L185.384 47.0348ZM182.752 52.4631L180.467 56.0853L184.868 58.8602L187.152 55.2379L182.752 52.4631ZM177.422 60.915L175.137 64.5373L179.538 67.3122L181.822 63.6899L177.422 60.915ZM175.137 64.5373C173.991 66.3555 172.774 68.1222 171.491 69.8341L175.653 72.9544C177.02 71.1309 178.316 69.2489 179.538 67.3122L175.137 64.5373ZM165.987 76.4068C163.06 79.5437 159.885 82.4394 156.492 85.0655L159.676 89.1794C163.29 86.382 166.673 83.2974 169.791 79.9559L165.987 76.4068ZM149.44 89.9404C147.618 91.0607 145.746 92.1098 143.83 93.0842L146.189 97.7211C148.229 96.6832 150.223 95.5657 152.164 94.3723L149.44 89.9404ZM143.83 93.0842L143.252 93.3782L145.61 98.0151L146.189 97.7211L143.83 93.0842ZM142.481 93.7702L141.903 94.0643L144.261 98.7012L144.84 98.4072L142.481 93.7702ZM141.903 94.0643C139.949 95.0583 137.963 95.9727 135.952 96.807L137.945 101.612C140.08 100.727 142.187 99.7561 144.261 98.7012L141.903 94.0643ZM127.721 99.7334C123.523 100.987 119.243 101.909 114.921 102.498L115.624 107.653C120.21 107.028 124.753 106.048 129.209 104.718L127.721 99.7334ZM106.217 103.23C101.858 103.371 97.4841 103.176 93.1348 102.642L92.5004 107.805C97.1167 108.373 101.759 108.579 106.385 108.43L106.217 103.23ZM84.5313 101.131C82.4087 100.645 80.2985 100.075 78.2053 99.421L76.6547 104.387C78.8762 105.08 81.1159 105.685 83.3687 106.202L84.5313 101.131ZM78.2053 99.421C76.3409 98.8388 74.5033 98.2005 72.6944 97.508L70.8345 102.366C72.7451 103.098 74.6858 103.772 76.6547 104.387L78.2053 99.421ZM65.5557 94.4249C62.0356 92.7254 58.6446 90.8125 55.3983 88.7034L52.5641 93.0657C55.9933 95.2936 59.5755 97.3143 63.294 99.1096L65.5557 94.4249ZM49.0624 84.1967C45.9855 81.807 43.0671 79.2285 40.3234 76.4789L36.641 80.1534C39.5389 83.0575 42.6214 85.781 45.8715 88.3052L49.0624 84.1967ZM35.0671 70.749C32.5638 67.7788 30.2461 64.6493 28.1301 61.3781L23.7622 64.2037C25.9973 67.6589 28.4454 70.9643 31.0893 74.1014L35.0671 70.749ZM24.1854 54.6779C22.3635 51.2622 20.7496 47.7191 19.3593 44.0658L14.4974 45.9159C15.9659 49.7752 17.6708 53.5179 19.5954 57.1261L24.1854 54.6779ZM16.9021 36.6882C16.3678 34.8265 15.89 32.9407 15.4704 31.0331L10.3897 32.1506C10.8328 34.1651 11.3375 36.1566 11.9018 38.1231L16.9021 36.6882ZM15.4704 31.0331L14.5648 26.9157L9.48414 28.0332L10.3897 32.1506L15.4704 31.0331Z" fill="white"/>
</svg>
