<svg width="247" height="105" viewBox="0 0 247 105" fill="none" xmlns="http://www.w3.org/2000/svg">
<path d="M234.264 100.404L246.099 72.7993L216.275 76.3524L234.264 100.404ZM232.601 86.4499L235.184 86.1422L232.601 86.4499ZM87.2148 29.7073L87.7971 27.1723L87.2148 29.7073ZM109.407 9.24505L108.46 6.82242L109.407 9.24505ZM67.0207 87.5081L65.2693 89.4311L67.0207 87.5081ZM63.58 47.4801L61.526 45.8843L63.58 47.4801ZM72.3382 36.2082L74.3921 37.804L72.3382 36.2082ZM107.393 10.032L108.34 12.4546L107.393 10.032ZM103.859 33.5304L103.277 36.0654L103.859 33.5304ZM1.78933 35.0176C3.84762 34.4008 5.91524 33.8246 7.99099 33.2893L6.69183 28.252C4.55105 28.8041 2.41866 29.3983 0.295908 30.0345L1.78933 35.0176ZM16.3548 31.3613C20.5664 30.5044 24.8044 29.8125 29.0592 29.2858L28.4201 24.1231C24.032 24.6663 19.6612 25.3799 15.3176 26.2636L16.3548 31.3613ZM37.6017 28.4519C41.8833 28.1453 46.1752 28.0049 50.4677 28.031L50.4993 22.829C46.0723 22.8021 41.6459 22.9469 37.2302 23.263L37.6017 28.4519ZM59.0464 28.3049C63.3265 28.5524 67.6007 28.9659 71.8593 29.5457L72.5611 24.3911C68.1691 23.7932 63.761 23.3667 59.3468 23.1115L59.0464 28.3049ZM80.3312 30.923C82.4375 31.3215 84.5383 31.7613 86.6326 32.2424L87.7971 27.1723C85.6373 26.6762 83.4707 26.2226 81.2984 25.8116L80.3312 30.923ZM86.6326 32.2424L91.6257 33.3893L92.7903 28.3192L87.7971 27.1723L86.6326 32.2424ZM98.2833 34.9185L103.277 36.0654L104.441 30.9953L99.4479 29.8484L98.2833 34.9185ZM103.277 36.0654C105.133 36.4919 106.907 37.068 108.591 37.7765L110.609 32.9816C108.649 32.1572 106.59 31.4889 104.441 30.9953L103.277 36.0654ZM115.048 41.437C118.083 43.6657 120.667 46.398 122.716 49.475L127.046 46.5913C124.666 43.0184 121.662 39.84 118.127 37.2442L115.048 41.437ZM126.097 56.0953C127.389 59.5594 128.088 63.2544 128.114 67.0194L133.316 66.9826C133.285 62.5974 132.471 58.3005 130.972 54.2781L126.097 56.0953ZM127.295 74.3967C126.882 76.1761 126.308 77.951 125.566 79.7052L130.356 81.7339C131.216 79.7035 131.881 77.6433 132.362 75.5729L127.295 74.3967ZM125.566 79.7052C124.748 81.6346 123.776 83.4286 122.672 85.0838L126.999 87.9707C128.284 86.0443 129.412 83.9629 130.356 81.7339L125.566 79.7052ZM117.34 91.198C114.251 93.9302 110.687 96 106.879 97.3532L108.621 102.255C113.04 100.685 117.187 98.279 120.787 95.0943L117.34 91.198ZM98.9372 99.0935C94.9119 99.4569 90.8089 99.0672 86.8609 97.877L85.3593 102.858C89.9613 104.245 94.7337 104.696 99.405 104.275L98.9372 99.0935ZM79.4607 94.5529C77.7656 93.5111 76.1318 92.2882 74.5828 90.8774L71.0799 94.7234C72.8695 96.3534 74.7642 97.7725 76.737 98.9849L79.4607 94.5529ZM74.5828 90.8774L72.8396 89.2897L69.3367 93.1357L71.0799 94.7234L74.5828 90.8774ZM70.5154 87.1728L68.7722 85.5851L65.2693 89.4311L67.0124 91.0188L70.5154 87.1728ZM68.7722 85.5851C67.2492 84.198 65.9214 82.6757 64.7904 81.0532L60.5228 84.028C61.8737 85.9661 63.4576 87.781 65.2693 89.4311L68.7722 85.5851ZM61.2385 73.8598C60.0094 70.0085 59.6579 65.9195 60.2117 61.915L55.0587 61.2024C54.3984 65.9768 54.8173 70.8497 56.2826 75.4414L61.2385 73.8598ZM62.4839 54.221C63.3215 52.4292 64.37 50.7027 65.6339 49.076L61.526 45.8843C60.0225 47.8193 58.7716 49.8779 57.7712 52.0181L62.4839 54.221ZM65.6339 49.076L68.2614 45.6944L64.1535 42.5027L61.526 45.8843L65.6339 49.076ZM71.7647 41.1856L74.3921 37.804L70.2843 34.6123L67.6568 37.9939L71.7647 41.1856ZM74.3921 37.804C75.711 36.1067 77.0947 34.4673 78.5393 32.8891L74.7019 29.3768C73.1631 31.058 71.6891 32.8042 70.2843 34.6123L74.3921 37.804ZM84.6586 26.8859C87.8785 24.0502 91.322 21.4789 94.9555 19.1971L92.1889 14.7916C88.3185 17.2222 84.6503 19.9613 81.2204 22.982L84.6586 26.8859ZM102.45 15.0349C104.373 14.0982 106.338 13.237 108.34 12.4546L106.446 7.60937C104.314 8.44279 102.221 9.36008 100.172 10.358L102.45 15.0349ZM108.34 12.4546L108.944 12.2185L107.051 7.37328L106.446 7.60937L108.34 12.4546ZM109.75 11.9038L110.354 11.6677L108.46 6.82242L107.856 7.0585L109.75 11.9038ZM110.354 11.6677C112.396 10.8695 114.461 10.1536 116.545 9.51993L115.031 4.54295C112.82 5.21552 110.628 5.97532 108.46 6.82242L110.354 11.6677ZM125.022 7.41215C129.323 6.57538 133.673 6.0755 138.031 5.91198L137.836 0.713526C133.21 0.887076 128.594 1.41762 124.028 2.30577L125.022 7.41215ZM146.765 6.03446C151.117 6.32013 155.451 6.94178 159.727 7.89884L160.863 2.82233C156.325 1.80651 151.725 1.14671 147.106 0.843525L146.765 6.03446ZM168.142 10.2435C170.207 10.9354 172.251 11.7089 174.27 12.564L176.299 7.77376C174.156 6.86621 171.986 6.04524 169.795 5.31093L168.142 10.2435ZM174.27 12.564C176.069 13.3257 177.835 14.1407 179.568 15.0067L181.894 10.3535C180.064 9.43882 178.198 8.57812 176.299 7.77376L174.27 12.564ZM186.371 18.7729C189.708 20.8084 192.896 23.0436 195.92 25.46L199.167 21.3957C195.972 18.8432 192.605 16.482 189.08 14.3318L186.371 18.7729ZM201.785 30.5646C204.614 33.2436 207.266 36.0951 209.728 39.0998L213.752 35.8029C211.152 32.6293 208.35 29.6175 205.362 26.7877L201.785 30.5646ZM214.399 45.3161C216.6 48.5168 218.6 51.8579 220.386 55.3203L225.01 52.9353C223.123 49.2782 221.01 45.7492 218.685 42.3686L214.399 45.3161ZM223.657 62.3741C225.136 65.9516 226.396 69.6355 227.423 73.4072L232.442 72.0412C231.358 68.0569 230.027 64.1654 228.464 60.3863L223.657 62.3741ZM229.147 80.9896C229.496 82.8947 229.788 84.8181 230.019 86.7576L235.184 86.1422C234.94 84.094 234.633 82.0627 234.263 80.0505L229.147 80.9896ZM230.019 86.7576L230.517 90.9438L235.683 90.3284L235.184 86.1422L230.019 86.7576Z" fill="white"/>
</svg>
