<svg width="211" height="258" viewBox="0 0 211 258" fill="none" xmlns="http://www.w3.org/2000/svg">
<g clip-path="url(#clip0_0_704)" filter="url(#filter0_dd_0_704)">
<rect x="25" y="23" width="173.117" height="221" fill="url(#paint0_linear_0_704)"/>
<g filter="url(#filter1_d_0_704)">
<path fill-rule="evenodd" clip-rule="evenodd" d="M198.117 23H25V244H198.117V23ZM48.7885 32.2083C39.6344 32.2083 32.2135 39.6292 32.2135 48.7833V218.217C32.2135 227.371 39.6344 234.792 48.7885 234.792H174.329C183.483 234.792 190.904 227.371 190.904 218.217V48.7833C190.904 39.6292 183.483 32.2083 174.329 32.2083H48.7885Z" fill="white"/>
</g>
<g filter="url(#filter2_d_0_704)">
<path d="M137.786 109.825C145.654 116.569 146.028 128.559 139.035 135.803L114.81 160.782C113.311 162.406 110.689 162.406 109.19 160.782L84.9648 135.803C77.9718 128.559 78.3464 116.569 86.2135 109.825C93.0816 103.955 103.321 105.079 109.565 111.573L112.062 114.071L114.435 111.573C120.804 105.079 130.918 103.955 137.786 109.825Z" fill="url(#paint1_linear_0_704)"/>
</g>
</g>
<defs>
<filter id="filter0_dd_0_704" x="0.200001" y="0.200001" width="210.317" height="257.2" filterUnits="userSpaceOnUse" color-interpolation-filters="sRGB">
<feFlood flood-opacity="0" result="BackgroundImageFix"/>
<feColorMatrix in="SourceAlpha" type="matrix" values="0 0 0 0 0 0 0 0 0 0 0 0 0 0 0 0 0 0 127 0" result="hardAlpha"/>
<feOffset dx="-7" dy="-5"/>
<feGaussianBlur stdDeviation="8.9"/>
<feComposite in2="hardAlpha" operator="out"/>
<feColorMatrix type="matrix" values="0 0 0 0 0.922969 0 0 0 0 0.920293 0 0 0 0 0.920293 0 0 0 1 0"/>
<feBlend mode="normal" in2="BackgroundImageFix" result="effect1_dropShadow_0_704"/>
<feColorMatrix in="SourceAlpha" type="matrix" values="0 0 0 0 0 0 0 0 0 0 0 0 0 0 0 0 0 0 127 0" result="hardAlpha"/>
<feOffset dx="3" dy="4"/>
<feGaussianBlur stdDeviation="4.7"/>
<feComposite in2="hardAlpha" operator="out"/>
<feColorMatrix type="matrix" values="0 0 0 0 0.921569 0 0 0 0 0.921569 0 0 0 0 0.921569 0 0 0 0.31 0"/>
<feBlend mode="normal" in2="effect1_dropShadow_0_704" result="effect2_dropShadow_0_704"/>
<feBlend mode="normal" in="SourceGraphic" in2="effect2_dropShadow_0_704" result="shape"/>
</filter>
<filter id="filter1_d_0_704" x="22.5444" y="20.5444" width="179.256" height="227.139" filterUnits="userSpaceOnUse" color-interpolation-filters="sRGB">
<feFlood flood-opacity="0" result="BackgroundImageFix"/>
<feColorMatrix in="SourceAlpha" type="matrix" values="0 0 0 0 0 0 0 0 0 0 0 0 0 0 0 0 0 0 127 0" result="hardAlpha"/>
<feOffset dx="0.613889" dy="0.613889"/>
<feGaussianBlur stdDeviation="1.53472"/>
<feColorMatrix type="matrix" values="0 0 0 0 0 0 0 0 0 0 0 0 0 0 0 0 0 0 0.25 0"/>
<feBlend mode="overlay" in2="BackgroundImageFix" result="effect1_dropShadow_0_704"/>
<feBlend mode="normal" in="SourceGraphic" in2="effect1_dropShadow_0_704" result="shape"/>
</filter>
<filter id="filter2_d_0_704" x="59.2" y="85.2" width="105.6" height="105.6" filterUnits="userSpaceOnUse" color-interpolation-filters="sRGB">
<feFlood flood-opacity="0" result="BackgroundImageFix"/>
<feColorMatrix in="SourceAlpha" type="matrix" values="0 0 0 0 0 0 0 0 0 0 0 0 0 0 0 0 0 0 127 0" result="hardAlpha"/>
<feOffset dy="4"/>
<feGaussianBlur stdDeviation="10.4"/>
<feComposite in2="hardAlpha" operator="out"/>
<feColorMatrix type="matrix" values="0 0 0 0 0.225257 0 0 0 0 0.788755 0 0 0 0 0.923995 0 0 0 1 0"/>
<feBlend mode="normal" in2="BackgroundImageFix" result="effect1_dropShadow_0_704"/>
<feBlend mode="normal" in="SourceGraphic" in2="effect1_dropShadow_0_704" result="shape"/>
</filter>
<linearGradient id="paint0_linear_0_704" x1="111.558" y1="23" x2="111.558" y2="244" gradientUnits="userSpaceOnUse">
<stop stop-color="#A2E3F3"/>
<stop offset="0.46" stop-color="#A2E3F3" stop-opacity="0.29"/>
<stop offset="1" stop-color="#A2E3F3"/>
</linearGradient>
<linearGradient id="paint1_linear_0_704" x1="112" y1="106" x2="112" y2="405.5" gradientUnits="userSpaceOnUse">
<stop stop-color="white"/>
<stop offset="0.190891" stop-color="#A2E3F3"/>
</linearGradient>
<clipPath id="clip0_0_704">
<rect width="173.117" height="221" fill="white" transform="translate(25 23)"/>
</clipPath>
</defs>
</svg>
