<svg width="557" height="752" viewBox="0 0 557 752" fill="none" xmlns="http://www.w3.org/2000/svg">
<g filter="url(#filter0_d_0_3889)">
<rect x="47.5635" y="276.926" width="462.564" height="465.597" rx="45.4981" transform="rotate(0.441137 47.5635 276.926)" fill="#FFF5D1"/>
</g>
<path d="M158.313 15.1887L263.164 3.32528L269.899 224.07L203 231.64L158.313 15.1887Z" fill="url(#paint0_linear_0_3889)"/>
<path d="M402.438 14.5382L297.636 2.24754L290.002 222.963L356.869 230.805L402.438 14.5382Z" fill="url(#paint1_linear_0_3889)"/>
<path d="M145.017 49.2681L58.0982 74.9408L126.544 251.713L182.001 235.333L145.017 49.2681Z" fill="url(#paint2_linear_0_3889)"/>
<path d="M415.599 48.6713L502.412 74.698L433.246 251.19L377.856 234.584L415.599 48.6713Z" fill="url(#paint3_linear_0_3889)"/>
<path d="M62.4443 131.538L4.76475 160.929L75.9386 276.113L112.74 257.361L62.4443 131.538Z" fill="url(#paint4_linear_0_3889)"/>
<path d="M497.832 131.276L555.391 160.902L483.749 275.796L447.024 256.894L497.832 131.276Z" fill="url(#paint5_linear_0_3889)"/>
<g filter="url(#filter1_d_0_3889)">
<path d="M35.6462 266.71C23.5787 244.947 17.545 234.065 20.9507 226.994C24.3564 219.923 35.2357 218.091 56.9945 214.427L90.3941 208.802C104.494 206.428 111.544 205.241 116.662 208.883C121.78 212.526 122.968 219.576 125.342 233.676L135.687 295.109C138.062 309.209 139.249 316.259 135.606 321.377C131.964 326.495 124.913 327.683 110.813 330.057L77.7247 335.629C55.9378 339.298 45.0444 341.132 39.5162 335.622C33.988 330.111 36.0336 317.727 40.1249 292.96C41.0883 287.128 41.3927 281.995 40.6023 278.39C39.8944 275.16 38.0926 271.122 35.6462 266.71Z" fill="url(#paint6_linear_0_3889)"/>
</g>
<g filter="url(#filter2_d_0_3889)">
<path d="M521.686 270.453C534.087 248.878 540.288 238.09 536.991 230.967C533.695 223.844 522.845 221.845 501.145 217.846L467.836 211.708C453.774 209.117 446.743 207.821 441.57 211.385C436.396 214.948 435.101 221.979 432.509 236.041L421.22 297.308C418.628 311.369 417.333 318.4 420.896 323.574C424.46 328.747 431.49 330.043 445.552 332.634L478.551 338.715C500.279 342.719 511.143 344.721 516.755 339.296C522.368 333.871 520.513 321.457 516.804 296.63C515.93 290.783 515.705 285.647 516.551 282.054C517.308 278.836 519.172 274.826 521.686 270.453Z" fill="url(#paint7_linear_0_3889)"/>
</g>
<g filter="url(#filter3_d_0_3889)">
<path d="M73.5677 231.827C73.7478 208.429 73.8379 196.73 81.3936 188.215C88.9493 179.7 99.9747 178.293 122.026 175.479C158.15 170.868 212.672 165.965 278.818 166.475C344.964 166.984 399.404 172.726 435.454 177.892C457.459 181.045 468.461 182.622 475.885 191.252C483.308 199.882 483.218 211.581 483.038 234.979L482.872 256.595C482.634 287.491 482.515 302.939 472.769 311.862C463.023 320.786 447.513 319.537 416.493 317.039C371.254 313.397 313.184 309.304 277.721 309.031C242.257 308.758 184.131 311.956 138.842 314.901C107.787 316.921 92.2595 317.931 82.652 308.859C73.0444 299.786 73.1634 284.338 73.4013 253.442L73.5677 231.827Z" fill="url(#paint8_linear_0_3889)"/>
</g>
<path d="M225.695 225.034C224.903 225.028 224.292 224.82 223.863 224.408C223.459 223.973 223.259 223.36 223.266 222.568L223.423 202.084C223.429 201.292 223.638 200.694 224.049 200.289C224.484 199.86 225.098 199.649 225.89 199.655L238.742 199.754C239.342 199.759 239.796 199.918 240.106 200.233C240.44 200.547 240.604 200.992 240.6 201.568C240.595 202.168 240.424 202.635 240.085 202.968C239.771 203.278 239.313 203.431 238.713 203.426L227.842 203.342L227.788 210.326L237.868 210.404C238.492 210.408 238.958 210.568 239.268 210.882C239.578 211.197 239.73 211.654 239.725 212.254C239.721 212.854 239.561 213.309 239.247 213.618C238.933 213.928 238.463 214.08 237.839 214.076L227.76 213.998L227.703 221.378L238.575 221.461C239.174 221.466 239.629 221.626 239.939 221.94C240.272 222.254 240.437 222.712 240.432 223.312C240.428 223.912 240.256 224.366 239.918 224.676C239.603 224.985 239.146 225.138 238.546 225.133L225.695 225.034ZM249.912 225.581C248.64 225.571 247.502 225.322 246.497 224.834C245.517 224.323 244.743 223.645 244.173 222.801C243.628 221.956 243.359 221.006 243.367 219.95C243.377 218.654 243.721 217.637 244.399 216.898C245.076 216.135 246.173 215.592 247.687 215.267C249.202 214.943 251.231 214.791 253.775 214.81L255.575 214.824L255.555 217.416L253.791 217.402C252.303 217.391 251.114 217.454 250.225 217.591C249.336 217.728 248.698 217.975 248.312 218.332C247.949 218.665 247.765 219.144 247.761 219.768C247.754 220.56 248.025 221.21 248.574 221.718C249.122 222.227 249.888 222.485 250.872 222.492C251.664 222.498 252.361 222.324 252.964 221.968C253.591 221.589 254.087 221.077 254.452 220.432C254.817 219.786 255.002 219.044 255.009 218.204L255.041 214.064C255.05 212.864 254.793 211.998 254.269 211.466C253.745 210.934 252.859 210.663 251.611 210.653C250.915 210.648 250.158 210.726 249.341 210.888C248.548 211.05 247.705 211.331 246.814 211.733C246.357 211.945 245.948 212.002 245.589 211.903C245.254 211.805 244.991 211.611 244.801 211.321C244.612 211.008 244.518 210.671 244.521 210.311C244.524 209.951 244.623 209.604 244.817 209.269C245.012 208.911 245.338 208.649 245.795 208.485C246.903 208.037 247.961 207.721 248.971 207.537C250.004 207.353 250.941 207.264 251.781 207.271C253.509 207.284 254.923 207.559 256.023 208.095C257.147 208.632 257.98 209.442 258.524 210.527C259.068 211.587 259.333 212.957 259.32 214.637L259.254 223.277C259.248 224.021 259.064 224.595 258.701 225C258.338 225.382 257.82 225.57 257.148 225.565C256.476 225.559 255.95 225.363 255.569 224.976C255.212 224.566 255.036 223.988 255.042 223.244L255.055 221.516L255.343 221.519C255.169 222.357 254.827 223.087 254.318 223.707C253.834 224.303 253.218 224.766 252.472 225.096C251.725 225.427 250.872 225.588 249.912 225.581ZM266.107 225.633C265.363 225.628 264.789 225.431 264.384 225.044C264.003 224.633 263.815 224.056 263.821 223.312L263.926 209.704C263.932 208.96 264.128 208.398 264.515 208.017C264.902 207.636 265.443 207.448 266.139 207.453C266.835 207.459 267.374 207.655 267.755 208.042C268.136 208.429 268.324 208.994 268.318 209.738L268.3 212.006L267.94 212.003C268.287 210.566 268.956 209.479 269.946 208.743C270.935 208.006 272.247 207.572 273.88 207.441C274.384 207.397 274.779 207.532 275.065 207.846C275.374 208.136 275.551 208.594 275.594 209.218C275.637 209.818 275.49 210.309 275.151 210.691C274.836 211.048 274.354 211.261 273.706 211.328L272.913 211.393C271.448 211.526 270.341 211.974 269.591 212.736C268.841 213.474 268.461 214.527 268.45 215.895L268.393 223.347C268.387 224.091 268.191 224.666 267.804 225.071C267.417 225.452 266.851 225.639 266.107 225.633ZM280.133 225.741C279.413 225.736 278.862 225.54 278.481 225.153C278.1 224.742 277.913 224.164 277.918 223.42L278.023 209.813C278.029 209.069 278.225 208.506 278.612 208.125C278.999 207.744 279.541 207.556 280.237 207.562C280.933 207.567 281.471 207.763 281.852 208.15C282.233 208.537 282.421 209.103 282.415 209.847L282.396 212.295L282.007 211.391C282.545 210.124 283.368 209.17 284.477 208.53C285.61 207.867 286.885 207.541 288.301 207.552C289.717 207.563 290.879 207.836 291.787 208.371C292.695 208.906 293.372 209.715 293.82 210.798C294.268 211.858 294.486 213.204 294.473 214.836L294.406 223.547C294.4 224.291 294.204 224.866 293.817 225.271C293.43 225.652 292.876 225.84 292.156 225.834C291.436 225.829 290.874 225.632 290.469 225.245C290.088 224.834 289.9 224.257 289.906 223.513L289.971 215.017C289.982 213.649 289.726 212.651 289.203 212.023C288.703 211.395 287.914 211.077 286.834 211.069C285.514 211.058 284.455 211.47 283.656 212.304C282.882 213.114 282.49 214.203 282.479 215.571L282.418 223.455C282.406 224.991 281.645 225.753 280.133 225.741ZM307.634 226.025C305.642 226.01 303.929 225.625 302.495 224.87C301.06 224.115 299.953 223.05 299.171 221.676C298.414 220.302 298.042 218.679 298.057 216.807C298.071 214.983 298.455 213.39 299.209 212.028C299.988 210.666 301.04 209.606 302.366 208.848C303.716 208.067 305.243 207.682 306.947 207.695C308.195 207.705 309.309 207.918 310.29 208.333C311.295 208.749 312.142 209.343 312.832 210.117C313.547 210.89 314.079 211.83 314.431 212.937C314.806 214.02 314.989 215.246 314.979 216.614C314.975 217.045 314.817 217.38 314.503 217.618C314.213 217.832 313.792 217.936 313.24 217.932L301.685 217.843L301.705 215.251L311.82 215.329L311.24 215.865C311.249 214.761 311.088 213.835 310.758 213.089C310.451 212.343 309.988 211.775 309.367 211.386C308.77 210.974 308.015 210.764 307.103 210.757C306.095 210.749 305.23 210.982 304.506 211.457C303.806 211.907 303.261 212.563 302.871 213.424C302.504 214.261 302.317 215.268 302.307 216.444L302.306 216.696C302.29 218.664 302.735 220.143 303.639 221.134C304.568 222.102 305.932 222.592 307.732 222.606C308.356 222.611 309.053 222.544 309.822 222.406C310.615 222.244 311.361 221.974 312.06 221.595C312.566 221.311 313.011 221.194 313.395 221.245C313.779 221.272 314.078 221.407 314.292 221.648C314.53 221.89 314.672 222.191 314.717 222.552C314.762 222.888 314.688 223.235 314.493 223.594C314.322 223.953 314.02 224.262 313.586 224.523C312.742 225.045 311.767 225.433 310.661 225.689C309.579 225.92 308.57 226.032 307.634 226.025ZM325.237 226.161C323.701 226.149 322.348 225.767 321.178 225.013C320.032 224.261 319.14 223.198 318.502 221.825C317.865 220.428 317.554 218.793 317.568 216.921C317.583 215.026 317.919 213.408 318.577 212.069C319.236 210.706 320.144 209.657 321.302 208.922C322.483 208.187 323.842 207.825 325.378 207.837C326.842 207.849 328.111 208.218 329.186 208.947C330.284 209.675 331.021 210.629 331.396 211.808L331 211.805L331.072 202.445C331.078 201.701 331.274 201.139 331.661 200.757C332.048 200.376 332.601 200.189 333.321 200.194C334.041 200.2 334.592 200.396 334.973 200.783C335.378 201.17 335.577 201.736 335.572 202.48L335.407 223.863C335.401 224.607 335.205 225.181 334.818 225.587C334.431 225.968 333.877 226.155 333.157 226.15C332.437 226.144 331.887 225.948 331.506 225.561C331.125 225.15 330.937 224.573 330.943 223.829L330.965 221.021L331.352 222.104C330.983 223.349 330.243 224.339 329.134 225.075C328.024 225.81 326.725 226.172 325.237 226.161ZM326.523 222.751C327.411 222.757 328.193 222.547 328.868 222.121C329.544 221.694 330.064 221.062 330.431 220.225C330.822 219.364 331.022 218.297 331.032 217.025C331.046 215.105 330.649 213.674 329.841 212.732C329.032 211.766 327.956 211.277 326.612 211.267C325.724 211.26 324.942 211.47 324.267 211.897C323.592 212.3 323.059 212.932 322.668 213.793C322.302 214.63 322.114 215.684 322.104 216.956C322.089 218.852 322.486 220.295 323.295 221.286C324.103 222.252 325.179 222.74 326.523 222.751Z" fill="white"/>
<path d="M95.2347 281.576C93.8273 281.565 92.6893 281.241 91.8206 280.604C90.9523 279.917 90.4495 279.04 90.3121 277.971C90.1747 276.902 90.4751 275.716 91.2131 274.411L112.551 235.555L112.524 239.049L90.5403 238.88C88.9388 238.868 87.7285 238.47 86.9095 237.687C86.0908 236.856 85.6873 235.688 85.6989 234.183C85.7105 232.679 86.1318 231.542 86.9627 230.772C87.7941 229.953 89.0105 229.55 90.612 229.562L118.347 229.776C119.9 229.788 121.158 230.21 122.123 231.042C123.135 231.875 123.636 233.044 123.624 234.548C123.614 235.859 123.411 236.998 123.016 237.965C122.669 238.933 122.199 239.973 121.609 241.085L101.669 277.986C100.979 279.242 100.123 280.158 99.0995 280.732C98.0759 281.307 96.7876 281.588 95.2347 281.576ZM160.457 281.423C158.564 281.409 157.112 280.888 156.101 279.861C155.09 278.834 154.591 277.374 154.606 275.481L154.91 235.954C154.925 234.061 155.446 232.609 156.473 231.598C157.5 230.587 158.959 230.088 160.852 230.103L178.468 230.239C182.108 230.267 185.21 230.824 187.774 231.912C190.338 232.999 192.267 234.543 193.562 236.543C194.906 238.543 195.567 240.926 195.545 243.692C195.522 246.75 194.628 249.339 192.865 251.461C191.101 253.583 188.688 254.996 185.625 255.701L185.634 254.536C189.172 255.194 191.903 256.622 193.827 258.821C195.801 260.972 196.774 263.77 196.748 267.216C196.712 271.777 195.108 275.332 191.933 277.88C188.76 280.379 184.406 281.608 178.874 281.565L160.457 281.423ZM165.399 273.089L177.41 273.182C180.322 273.204 182.461 272.663 183.829 271.557C185.196 270.403 185.889 268.709 185.906 266.477C185.923 264.245 185.257 262.565 183.907 261.438C182.556 260.312 180.425 259.737 177.514 259.715L165.502 259.622L165.399 273.089ZM165.567 251.251L176.34 251.334C179.155 251.356 181.246 250.838 182.613 249.781C183.98 248.723 184.672 247.127 184.688 244.992C184.704 242.905 184.037 241.323 182.687 240.245C181.336 239.166 179.253 238.617 176.439 238.595L165.665 238.512L165.567 251.251ZM217.763 282.665C215.142 282.645 212.793 282.117 210.714 281.082C208.635 280.047 207.02 278.651 205.868 276.895C204.717 275.139 204.15 273.169 204.167 270.986C204.187 268.365 204.882 266.308 206.253 264.814C207.623 263.271 209.84 262.196 212.902 261.589C215.965 260.933 220.02 260.625 225.067 260.663L228.925 260.693L228.881 266.371L225.096 266.342C222.621 266.323 220.606 266.453 219.05 266.732C217.544 266.963 216.449 267.392 215.765 268.017C215.129 268.643 214.807 269.514 214.798 270.631C214.788 271.989 215.24 273.109 216.155 273.99C217.119 274.871 218.499 275.318 220.295 275.332C221.702 275.343 222.942 275.037 224.014 274.414C225.136 273.743 226.016 272.852 226.656 271.741C227.296 270.581 227.621 269.273 227.632 267.817L227.697 259.446C227.713 257.311 227.24 255.803 226.276 254.922C225.312 253.992 223.666 253.518 221.336 253.5C220.026 253.49 218.593 253.649 217.038 253.977C215.531 254.256 213.853 254.753 212.003 255.467C210.932 255.944 209.984 256.058 209.161 255.809C208.338 255.511 207.711 255.021 207.28 254.339C206.849 253.607 206.636 252.829 206.642 252.004C206.649 251.131 206.898 250.307 207.389 249.535C207.881 248.713 208.687 248.113 209.806 247.733C212.094 246.829 214.234 246.214 216.226 245.89C218.267 245.566 220.137 245.41 221.835 245.424C225.572 245.452 228.625 246.034 230.995 247.168C233.413 248.255 235.22 249.943 236.416 252.233C237.612 254.475 238.196 257.367 238.169 260.91L238.044 277.07C238.03 278.866 237.583 280.246 236.702 281.21C235.821 282.173 234.555 282.649 232.905 282.636C231.255 282.624 229.973 282.128 229.059 281.151C228.192 280.173 227.766 278.787 227.78 276.991L227.801 274.298L228.307 274.739C228.003 276.386 227.361 277.813 226.381 279.019C225.45 280.176 224.254 281.089 222.793 281.758C221.332 282.377 219.656 282.68 217.763 282.665ZM253.189 282.792C251.393 282.779 250.014 282.283 249.051 281.305C248.136 280.327 247.686 278.94 247.7 277.145L247.899 251.303C247.913 249.507 248.384 248.152 249.313 247.237C250.291 246.274 251.63 245.799 253.328 245.812C255.075 245.825 256.406 246.321 257.321 247.298C258.236 248.227 258.686 249.59 258.672 251.385L258.64 255.535L257.858 253.126C258.993 250.757 260.657 248.95 262.85 247.705C265.093 246.412 267.621 245.776 270.436 245.798C273.299 245.82 275.649 246.396 277.484 247.526C279.32 248.608 280.691 250.269 281.595 252.508C282.501 254.699 282.94 257.493 282.914 260.89L282.787 277.415C282.773 279.21 282.277 280.59 281.299 281.553C280.369 282.516 279.007 282.991 277.211 282.977C275.464 282.964 274.109 282.468 273.146 281.49C272.231 280.512 271.781 279.126 271.795 277.33L271.918 261.315C271.937 258.84 271.49 257.065 270.576 255.991C269.711 254.868 268.356 254.299 266.512 254.285C264.183 254.267 262.309 254.981 260.89 256.426C259.52 257.871 258.826 259.807 258.807 262.234L258.692 277.229C258.663 280.966 256.829 282.82 253.189 282.792ZM304.488 283.333C301.868 283.313 299.518 282.785 297.439 281.75C295.36 280.715 293.745 279.319 292.594 277.563C291.442 275.807 290.875 273.837 290.892 271.653C290.912 269.033 291.607 266.975 292.978 265.481C294.349 263.939 296.565 262.864 299.627 262.257C302.69 261.601 306.745 261.292 311.792 261.331L315.65 261.361L315.606 267.039L311.821 267.01C309.346 266.991 307.331 267.121 305.776 267.4C304.269 267.631 303.174 268.059 302.49 268.685C301.854 269.311 301.532 270.182 301.523 271.298C301.513 272.657 301.965 273.777 302.881 274.658C303.845 275.539 305.224 275.986 307.02 276C308.427 276.011 309.667 275.705 310.74 275.082C311.861 274.411 312.742 273.52 313.381 272.409C314.021 271.249 314.346 269.941 314.358 268.485L314.422 260.114C314.439 257.978 313.965 256.47 313.001 255.589C312.038 254.66 310.391 254.186 308.062 254.168C306.751 254.158 305.318 254.317 303.763 254.645C302.256 254.924 300.578 255.421 298.728 256.135C297.657 256.612 296.71 256.726 295.886 256.477C295.064 256.179 294.436 255.689 294.005 255.006C293.574 254.275 293.361 253.497 293.368 252.672C293.374 251.798 293.623 250.975 294.115 250.202C294.606 249.381 295.412 248.781 296.531 248.401C298.819 247.496 300.959 246.882 302.951 246.558C304.992 246.234 306.862 246.078 308.561 246.091C312.297 246.12 315.35 246.702 317.72 247.836C320.138 248.922 321.945 250.611 323.141 252.901C324.337 255.143 324.921 258.035 324.894 261.578L324.77 277.738C324.756 279.534 324.308 280.913 323.427 281.877C322.546 282.841 321.281 283.317 319.631 283.304C317.981 283.291 316.698 282.796 315.784 281.818C314.918 280.841 314.492 279.455 314.505 277.659L314.526 274.966L315.032 275.406C314.729 277.054 314.087 278.481 313.107 279.687C312.176 280.844 310.98 281.757 309.518 282.425C308.058 283.045 306.381 283.348 304.488 283.333ZM339.914 283.46C338.119 283.446 336.739 282.95 335.776 281.972C334.862 280.995 334.411 279.608 334.425 277.812L334.624 251.97C334.638 250.175 335.109 248.819 336.039 247.904C337.017 246.941 338.355 246.466 340.053 246.479C341.801 246.493 343.131 246.988 344.046 247.966C344.961 248.895 345.411 250.258 345.398 252.053L345.366 256.202L344.583 253.794C345.718 251.425 347.382 249.618 349.576 248.373C351.818 247.079 354.347 246.444 357.161 246.465C360.025 246.487 362.374 247.064 364.21 248.194C366.045 249.276 367.416 250.937 368.321 253.176C369.226 255.367 369.666 258.161 369.639 261.558L369.512 278.083C369.498 279.878 369.002 281.257 368.024 282.221C367.095 283.184 365.732 283.659 363.937 283.645C362.19 283.632 360.834 283.136 359.871 282.158C358.957 281.18 358.506 279.794 358.52 277.998L358.643 261.983C358.662 259.508 358.215 257.733 357.301 256.658C356.436 255.535 355.082 254.967 353.238 254.953C350.908 254.935 349.034 255.648 347.616 257.093C346.246 258.539 345.551 260.475 345.533 262.901L345.417 277.897C345.388 281.634 343.554 283.488 339.914 283.46ZM391.214 284.001C388.593 283.981 386.243 283.453 384.164 282.418C382.085 281.382 380.47 279.987 379.319 278.231C378.168 276.475 377.6 274.505 377.617 272.321C377.637 269.7 378.333 267.643 379.703 266.149C381.074 264.607 383.29 263.532 386.353 262.924C389.415 262.269 393.47 261.96 398.517 261.999L402.375 262.029L402.332 267.707L398.546 267.677C396.071 267.658 394.056 267.788 392.501 268.068C390.995 268.299 389.899 268.727 389.215 269.353C388.579 269.979 388.257 270.85 388.249 271.966C388.238 273.325 388.691 274.445 389.606 275.325C390.57 276.206 391.95 276.654 393.745 276.668C395.153 276.678 396.393 276.372 397.465 275.75C398.586 275.079 399.467 274.188 400.106 273.077C400.746 271.917 401.072 270.609 401.083 269.153L401.147 260.782C401.164 258.646 400.69 257.138 399.726 256.257C398.763 255.328 397.116 254.854 394.787 254.836C393.477 254.826 392.044 254.985 390.488 255.312C388.981 255.592 387.303 256.089 385.453 256.802C384.382 257.279 383.435 257.393 382.612 257.144C381.789 256.847 381.162 256.357 380.73 255.674C380.299 254.943 380.087 254.165 380.093 253.34C380.1 252.466 380.349 251.643 380.84 250.87C381.332 250.049 382.137 249.448 383.256 249.069C385.544 248.164 387.684 247.55 389.677 247.225C391.718 246.901 393.587 246.746 395.286 246.759C399.023 246.788 402.076 247.369 404.445 248.504C406.863 249.59 408.67 251.279 409.866 253.569C411.062 255.81 411.647 258.703 411.619 262.245L411.495 278.406C411.481 280.201 411.034 281.581 410.153 282.545C409.272 283.509 408.006 283.984 406.356 283.972C404.706 283.959 403.424 283.464 402.509 282.486C401.643 281.509 401.217 280.122 401.231 278.327L401.251 275.633L401.758 276.074C401.454 277.722 400.812 279.149 399.832 280.354C398.901 281.512 397.705 282.425 396.244 283.093C394.783 283.713 393.106 284.015 391.214 284.001ZM426.916 252.026C426.181 252.942 425.4 253.446 424.575 253.536C423.749 253.627 423.022 253.476 422.394 253.083C421.815 252.642 421.504 252.008 421.462 251.183C421.42 250.357 421.791 249.487 422.574 248.571C423.652 247.269 424.39 245.964 424.789 244.657C425.187 243.349 425.39 242.186 425.398 241.167L425.739 244.154C423.798 244.139 422.225 243.569 421.02 242.444C419.815 241.318 419.22 239.809 419.235 237.916C419.249 236.072 419.819 234.596 420.943 233.489C422.069 232.333 423.602 231.762 425.543 231.777C427.533 231.792 429.081 232.459 430.187 233.778C431.293 235.097 431.836 236.97 431.818 239.396C431.808 240.658 431.677 241.967 431.423 243.324C431.171 244.633 430.699 246.012 430.008 247.463C429.318 248.865 428.287 250.386 426.916 252.026ZM451.958 284.468C449.823 284.452 447.616 284.241 445.338 283.835C443.109 283.43 441.076 282.759 439.239 281.823C438.272 281.33 437.573 280.718 437.141 279.986C436.759 279.207 436.595 278.429 436.65 277.653C436.704 276.877 436.952 276.175 437.394 275.548C437.884 274.92 438.494 274.513 439.223 274.324C440.002 274.087 440.85 274.167 441.77 274.562C443.753 275.402 445.568 275.999 447.216 276.351C448.863 276.704 450.488 276.886 452.089 276.898C454.176 276.914 455.683 276.611 456.61 275.987C457.585 275.315 458.077 274.445 458.086 273.377C458.093 272.407 457.783 271.676 457.156 271.186C456.529 270.696 455.61 270.349 454.398 270.146L446.765 268.704C443.76 268.147 441.439 267.037 439.802 265.374C438.214 263.663 437.429 261.498 437.45 258.877C437.468 256.451 438.164 254.369 439.536 252.632C440.909 250.847 442.788 249.503 445.173 248.599C447.607 247.647 450.352 247.183 453.41 247.206C455.593 247.223 457.606 247.433 459.447 247.835C461.288 248.238 463.055 248.882 464.747 249.769C465.617 250.212 466.219 250.799 466.553 251.53C466.936 252.261 467.051 253.014 466.9 253.789C466.797 254.565 466.5 255.267 466.01 255.894C465.52 256.521 464.886 256.929 464.108 257.117C463.378 257.305 462.53 257.202 461.562 256.806C460.015 256.066 458.587 255.545 457.279 255.244C455.971 254.894 454.711 254.715 453.498 254.705C451.314 254.689 449.734 255.04 448.757 255.761C447.782 256.433 447.29 257.303 447.281 258.37C447.275 259.195 447.537 259.901 448.066 260.488C448.644 261.026 449.515 261.397 450.678 261.6L458.311 263.042C461.461 263.6 463.855 264.686 465.493 266.3C467.131 267.866 467.94 270.007 467.919 272.725C467.89 276.413 466.412 279.314 463.484 281.427C460.604 283.492 456.762 284.505 451.958 284.468Z" fill="white"/>
<g filter="url(#filter4_d_0_3889)">
<rect x="69.1309" y="627.438" width="414.032" height="90.9961" rx="30.332" transform="rotate(0.441137 69.1309 627.438)" fill="#FFDF6D"/>
</g>
<g filter="url(#filter5_d_0_3889)">
<rect x="75.1611" y="632.034" width="401.9" height="75.8301" rx="30.332" transform="rotate(0.441137 75.1611 632.034)" fill="#FFCF25"/>
</g>
<path d="M87.1355 652.811C87.2042 643.9 94.4829 636.733 103.393 636.802L448.75 639.461C457.66 639.529 464.827 646.808 464.758 655.717C464.686 665.045 456.798 672.381 447.492 671.75C412.766 669.397 332.623 664.363 276.45 663.917C219.875 663.468 139.065 667.286 104.152 669.108C94.8365 669.595 87.0637 662.138 87.1355 652.811Z" fill="#FFD84C"/>
<path d="M182.665 691.902C181.662 691.894 180.888 691.613 180.342 691.059C179.829 690.473 179.577 689.662 179.585 688.626L179.698 673.873L180.98 677.62L169.411 661.079C168.995 660.493 168.805 659.877 168.842 659.23C168.912 658.551 169.192 657.987 169.681 657.538C170.17 657.056 170.851 656.819 171.724 656.826C172.371 656.831 172.953 656.997 173.468 657.324C174.015 657.652 174.529 658.158 175.009 658.841L183.601 671.234L182.242 671.224L191.073 658.964C191.596 658.257 192.101 657.759 192.589 657.472C193.076 657.152 193.676 656.995 194.388 657C195.229 657.007 195.874 657.238 196.324 657.694C196.806 658.119 197.044 658.654 197.039 659.301C197.067 659.949 196.835 660.626 196.344 661.335L184.619 677.648L185.91 673.921L185.796 688.674C185.78 690.842 184.736 691.918 182.665 691.902ZM201.482 692.047C200.706 692.041 200.076 691.858 199.594 691.498C199.143 691.139 198.872 690.668 198.779 690.085C198.687 689.469 198.806 688.791 199.135 688.049L212.165 659.758C212.593 658.823 213.1 658.163 213.685 657.78C214.303 657.364 215 657.159 215.777 657.165C216.521 657.17 217.182 657.386 217.761 657.811C218.373 658.204 218.886 658.871 219.299 659.813L231.941 688.302C232.291 689.048 232.415 689.729 232.313 690.343C232.212 690.957 231.933 691.44 231.477 691.792C231.022 692.112 230.422 692.27 229.678 692.264C228.772 692.257 228.062 692.041 227.547 691.617C227.066 691.16 226.634 690.477 226.253 689.568L223.155 682.216L225.762 683.935L205.283 683.777L207.916 682.099L204.754 689.403C204.326 690.338 203.884 691.014 203.428 691.431C202.972 691.848 202.323 692.053 201.482 692.047ZM215.625 664.298L208.706 680.406L207.456 678.843L223.665 678.968L222.44 680.512L215.722 664.299L215.625 664.298ZM248.251 692.407C247.248 692.399 246.474 692.118 245.928 691.564C245.415 690.978 245.162 690.167 245.17 689.131L245.284 674.378L246.565 678.125L234.996 661.584C234.58 660.998 234.391 660.382 234.428 659.735C234.498 659.056 234.777 658.492 235.266 658.043C235.755 657.561 236.436 657.324 237.31 657.331C237.957 657.335 238.538 657.502 239.053 657.829C239.601 658.157 240.114 658.662 240.595 659.346L249.186 671.739L247.828 671.729L256.658 659.469C257.181 658.762 257.686 658.264 258.174 657.976C258.662 657.657 259.262 657.5 259.973 657.505C260.814 657.511 261.46 657.743 261.909 658.199C262.391 658.624 262.63 659.159 262.625 659.806C262.652 660.454 262.421 661.131 261.93 661.839L250.205 678.153L251.495 674.426L251.382 689.179C251.365 691.347 250.321 692.423 248.251 692.407ZM269.702 697.377C269.277 697.891 268.822 698.179 268.336 698.24C267.883 698.333 267.479 698.249 267.125 697.988C266.771 697.726 266.58 697.353 266.551 696.867C266.522 696.414 266.737 695.914 267.194 695.368C267.847 694.564 268.29 693.758 268.523 692.951C268.755 692.144 268.874 691.417 268.879 690.77L269.109 692.422C267.977 692.413 267.057 692.082 266.35 691.43C265.676 690.745 265.343 689.853 265.352 688.753C265.36 687.718 265.69 686.879 266.342 686.237C266.994 685.562 267.87 685.229 268.97 685.238C270.103 685.247 270.989 685.642 271.631 686.423C272.272 687.172 272.587 688.259 272.576 689.682C272.57 690.459 272.483 691.267 272.315 692.107C272.179 692.915 271.898 693.754 271.47 694.624C271.075 695.527 270.486 696.444 269.702 697.377ZM313.004 693.002C309.704 692.977 306.814 692.227 304.334 690.752C301.886 689.277 299.993 687.224 298.655 684.593C297.316 681.929 296.661 678.818 296.688 675.259C296.709 672.574 297.116 670.167 297.908 668.037C298.702 665.876 299.816 664.04 301.251 662.53C302.719 660.989 304.459 659.821 306.471 659.028C308.516 658.202 310.784 657.799 313.275 657.818C316.607 657.844 319.497 658.594 321.945 660.069C324.393 661.512 326.286 663.548 327.625 666.179C328.963 668.81 329.619 671.905 329.592 675.464C329.571 678.15 329.164 680.573 328.371 682.735C327.578 684.896 326.447 686.748 324.979 688.29C323.544 689.832 321.804 691.016 319.759 691.841C317.747 692.635 315.495 693.022 313.004 693.002ZM313.045 687.664C315.148 687.68 316.931 687.209 318.395 686.249C319.89 685.29 321.034 683.892 321.824 682.053C322.647 680.216 323.069 678.019 323.088 675.463C323.118 671.58 322.268 668.565 320.537 666.416C318.839 664.267 316.404 663.181 313.234 663.157C311.163 663.141 309.38 663.612 307.884 664.571C306.389 665.498 305.23 666.881 304.407 668.718C303.616 670.524 303.211 672.721 303.191 675.31C303.161 679.16 304.012 682.175 305.742 684.356C307.473 686.537 309.907 687.64 313.045 687.664ZM341.791 693.127C340.788 693.119 340.013 692.838 339.467 692.284C338.954 691.698 338.702 690.903 338.709 689.9L338.93 661.268C338.938 660.232 339.203 659.458 339.724 658.944C340.278 658.398 341.057 658.129 342.06 658.137C343.063 658.145 343.821 658.426 344.335 658.98C344.881 659.501 345.15 660.28 345.142 661.315L345.046 673.69L345.143 673.691L359.179 659.822C359.701 659.308 360.221 658.924 360.741 658.669C361.261 658.414 361.844 658.289 362.491 658.294C363.429 658.302 364.091 658.549 364.475 659.038C364.892 659.526 365.049 660.094 364.947 660.74C364.878 661.386 364.566 661.983 364.011 662.528L349.733 676.444L349.803 673.63L364.489 688.788C365.163 689.441 365.514 690.123 365.541 690.835C365.568 691.547 365.337 692.144 364.847 692.625C364.391 693.075 363.71 693.296 362.804 693.289C362.028 693.283 361.398 693.116 360.915 692.789C360.465 692.462 359.934 691.989 359.324 691.369L345.118 676.943L345.021 676.942L344.921 689.948C344.913 690.951 344.648 691.742 344.126 692.32C343.604 692.866 342.826 693.135 341.791 693.127ZM377.464 683.161C376.849 683.157 376.365 682.959 376.012 682.568C375.692 682.177 375.502 681.626 375.443 680.913L374.13 662.364C374.042 661.166 374.308 660.213 374.928 659.506C375.549 658.767 376.457 658.402 377.654 658.411C378.819 658.42 379.69 658.799 380.266 659.547C380.876 660.264 381.127 661.22 381.021 662.417L379.422 680.944C379.384 681.655 379.186 682.204 378.827 682.589C378.501 682.975 378.046 683.166 377.464 683.161ZM377.386 693.256C376.286 693.247 375.399 692.9 374.725 692.216C374.083 691.531 373.766 690.655 373.774 689.588C373.782 688.552 374.112 687.714 374.764 687.072C375.449 686.397 376.341 686.065 377.441 686.073C378.574 686.082 379.445 686.428 380.054 687.112C380.696 687.764 381.013 688.608 381.005 689.643C380.997 690.711 380.667 691.582 380.015 692.257C379.395 692.931 378.518 693.264 377.386 693.256Z" fill="white"/>
<path d="M180.342 691.059L179.772 691.558L179.786 691.575L179.802 691.591L180.342 691.059ZM179.698 673.873L180.416 673.628L178.94 673.868L179.698 673.873ZM180.98 677.62L180.358 678.055L181.697 677.375L180.98 677.62ZM169.411 661.079L170.032 660.644L170.029 660.639L169.411 661.079ZM168.842 659.23L168.088 659.152L168.086 659.169L168.085 659.186L168.842 659.23ZM169.681 657.538L170.194 658.096L170.203 658.087L170.213 658.078L169.681 657.538ZM173.468 657.324L173.061 657.964L173.07 657.97L173.078 657.975L173.468 657.324ZM175.009 658.841L175.632 658.409L175.63 658.405L175.009 658.841ZM183.601 671.234L183.595 671.992L185.057 672.004L184.224 670.802L183.601 671.234ZM182.242 671.224L181.627 670.78L180.77 671.971L182.236 671.982L182.242 671.224ZM191.073 658.964L190.463 658.514L190.457 658.521L191.073 658.964ZM192.589 657.472L192.974 658.125L192.989 658.116L193.004 658.106L192.589 657.472ZM196.324 657.694L195.784 658.226L195.802 658.246L195.823 658.264L196.324 657.694ZM197.039 659.301L196.281 659.296L196.281 659.315L196.282 659.334L197.039 659.301ZM196.344 661.335L196.96 661.777L196.968 661.767L196.344 661.335ZM184.619 677.648L183.903 677.4L185.235 678.091L184.619 677.648ZM185.91 673.921L186.668 673.927L185.193 673.673L185.91 673.921ZM182.671 691.144C181.809 691.137 181.25 690.9 180.883 690.527L179.802 691.591C180.527 692.327 181.516 692.651 182.66 692.66L182.671 691.144ZM180.913 690.56C180.558 690.153 180.336 689.544 180.343 688.632L178.826 688.621C178.817 689.78 179.101 690.792 179.772 691.558L180.913 690.56ZM180.343 688.632L180.456 673.879L178.94 673.868L178.826 688.621L180.343 688.632ZM178.981 674.119L180.262 677.866L181.697 677.375L180.416 673.628L178.981 674.119ZM181.601 677.186L170.032 660.644L168.789 661.513L180.358 678.055L181.601 677.186ZM170.029 660.639C169.701 660.178 169.573 659.73 169.6 659.274L168.085 659.186C168.037 660.024 168.288 660.808 168.793 661.518L170.029 660.639ZM169.597 659.308C169.648 658.807 169.845 658.416 170.194 658.096L169.167 656.979C168.538 657.558 168.177 658.295 168.088 659.152L169.597 659.308ZM170.213 658.078C170.522 657.773 170.989 657.578 171.719 657.584L171.73 656.067C170.713 656.059 169.817 656.339 169.149 656.997L170.213 658.078ZM171.719 657.584C172.232 657.588 172.673 657.718 173.061 657.964L173.875 656.684C173.232 656.276 172.511 656.073 171.73 656.067L171.719 657.584ZM173.078 657.975C173.511 658.234 173.952 658.655 174.389 659.277L175.63 658.405C175.106 657.66 174.519 657.07 173.857 656.674L173.078 657.975ZM174.386 659.273L182.978 671.666L184.224 670.802L175.632 658.409L174.386 659.273ZM183.607 670.476L182.248 670.465L182.236 671.982L183.595 671.992L183.607 670.476ZM182.858 671.667L191.688 659.408L190.457 658.521L181.627 670.78L182.858 671.667ZM191.682 659.415C192.175 658.749 192.609 658.34 192.974 658.125L192.203 656.818C191.593 657.178 191.016 657.765 190.463 658.514L191.682 659.415ZM193.004 658.106C193.342 657.884 193.787 657.754 194.382 657.758L194.394 656.242C193.566 656.235 192.811 656.419 192.173 656.837L193.004 658.106ZM194.382 657.758C195.088 657.764 195.515 657.954 195.784 658.226L196.864 657.162C196.233 656.522 195.371 656.249 194.394 656.242L194.382 657.758ZM195.823 658.264C196.138 658.541 196.284 658.867 196.281 659.296L197.798 659.307C197.804 658.442 197.473 657.696 196.825 657.125L195.823 658.264ZM196.282 659.334C196.3 659.769 196.149 660.286 195.721 660.903L196.968 661.767C197.522 660.967 197.833 660.129 197.797 659.269L196.282 659.334ZM195.729 660.892L184.004 677.206L185.235 678.091L196.96 661.777L195.729 660.892ZM185.336 677.896L186.627 674.169L185.193 673.673L183.903 677.4L185.336 677.896ZM185.152 673.915L185.038 688.668L186.555 688.68L186.668 673.927L185.152 673.915ZM185.038 688.668C185.031 689.644 184.793 690.233 184.457 690.579C184.127 690.919 183.581 691.151 182.671 691.144L182.66 692.66C183.821 692.669 184.831 692.371 185.545 691.635C186.253 690.905 186.545 689.872 186.555 688.68L185.038 688.668ZM199.594 691.498L199.12 692.091L199.13 692.099L199.14 692.106L199.594 691.498ZM198.779 690.085L198.029 690.197L198.03 690.204L198.779 690.085ZM199.135 688.049L198.446 687.732L198.442 687.741L199.135 688.049ZM212.165 659.758L212.854 660.075L212.855 660.073L212.165 659.758ZM213.685 657.78L214.101 658.414L214.108 658.409L213.685 657.78ZM217.761 657.811L217.313 658.422L217.332 658.436L217.352 658.449L217.761 657.811ZM219.299 659.813L218.605 660.117L218.606 660.12L219.299 659.813ZM231.941 688.302L231.248 688.609L231.251 688.616L231.254 688.623L231.941 688.302ZM232.313 690.343L231.565 690.219L232.313 690.343ZM231.477 691.792L231.913 692.413L231.927 692.403L231.941 692.392L231.477 691.792ZM227.547 691.617L227.026 692.167L227.045 692.185L227.065 692.201L227.547 691.617ZM226.253 689.568L226.952 689.275L226.952 689.274L226.253 689.568ZM223.155 682.216L223.572 681.583L221.486 680.207L222.456 682.51L223.155 682.216ZM225.762 683.935L225.757 684.693L228.321 684.713L226.18 683.301L225.762 683.935ZM205.283 683.777L204.875 683.137L202.713 684.515L205.277 684.535L205.283 683.777ZM207.916 682.099L208.612 682.4L209.595 680.129L207.509 681.459L207.916 682.099ZM204.754 689.403L205.444 689.718L205.447 689.711L205.45 689.704L204.754 689.403ZM203.428 691.431L202.916 690.871L203.428 691.431ZM215.625 664.298L215.63 663.54L215.127 663.536L214.928 663.999L215.625 664.298ZM208.706 680.406L208.114 680.88L208.904 681.867L209.403 680.705L208.706 680.406ZM207.456 678.843L207.462 678.085L205.869 678.073L206.864 679.317L207.456 678.843ZM223.665 678.968L224.259 679.44L225.226 678.222L223.671 678.21L223.665 678.968ZM222.44 680.512L221.739 680.802L222.233 681.993L223.034 680.983L222.44 680.512ZM215.722 664.299L216.422 664.008L216.23 663.544L215.728 663.54L215.722 664.299ZM201.488 691.288C200.826 691.283 200.367 691.129 200.047 690.89L199.14 692.106C199.785 692.587 200.585 692.798 201.476 692.805L201.488 691.288ZM200.067 690.906C199.768 690.668 199.592 690.367 199.528 689.966L198.03 690.204C198.152 690.968 198.518 691.61 199.12 692.091L200.067 690.906ZM199.529 689.972C199.464 689.537 199.54 689.006 199.828 688.357L198.442 687.741C198.071 688.575 197.91 689.402 198.029 690.197L199.529 689.972ZM199.824 688.366L212.854 660.075L211.476 659.44L198.446 687.732L199.824 688.366ZM212.855 660.073C213.249 659.211 213.678 658.691 214.101 658.414L213.269 657.145C212.521 657.636 211.937 658.435 211.476 659.442L212.855 660.073ZM214.108 658.409C214.594 658.082 215.14 657.918 215.771 657.923L215.782 656.406C214.86 656.399 214.012 656.645 213.262 657.15L214.108 658.409ZM215.771 657.923C216.362 657.928 216.867 658.095 217.313 658.422L218.21 657.2C217.498 656.677 216.68 656.413 215.782 656.406L215.771 657.923ZM217.352 658.449C217.796 658.734 218.228 659.258 218.605 660.117L219.993 659.508C219.544 658.484 218.951 657.674 218.171 657.173L217.352 658.449ZM218.606 660.12L231.248 688.609L232.634 687.994L219.992 659.505L218.606 660.12ZM231.254 688.623C231.56 689.276 231.635 689.798 231.565 690.219L233.062 690.467C233.195 689.659 233.022 688.821 232.628 687.98L231.254 688.623ZM231.565 690.219C231.492 690.661 231.305 690.967 231.013 691.193L231.941 692.392C232.561 691.913 232.931 691.253 233.062 690.467L231.565 690.219ZM231.041 691.172C230.752 691.375 230.322 691.51 229.684 691.506L229.672 693.022C230.522 693.029 231.291 692.85 231.913 692.413L231.041 691.172ZM229.684 691.506C228.89 691.499 228.369 691.311 228.03 691.032L227.065 692.201C227.755 692.771 228.654 693.014 229.672 693.022L229.684 691.506ZM228.069 691.066C227.691 690.708 227.311 690.13 226.952 689.275L225.554 689.861C225.958 690.825 226.44 691.611 227.026 692.167L228.069 691.066ZM226.952 689.274L223.854 681.921L222.456 682.51L225.554 689.863L226.952 689.274ZM222.738 682.849L225.345 684.568L226.18 683.301L223.572 681.583L222.738 682.849ZM225.768 683.176L205.289 683.019L205.277 684.535L225.757 684.693L225.768 683.176ZM205.69 684.416L208.324 682.738L207.509 681.459L204.875 683.137L205.69 684.416ZM207.221 681.797L204.058 689.101L205.45 689.704L208.612 682.4L207.221 681.797ZM204.065 689.087C203.655 689.983 203.264 690.554 202.916 690.871L203.94 691.99C204.505 691.474 204.998 690.692 205.444 689.718L204.065 689.087ZM202.916 690.871C202.646 691.119 202.208 691.294 201.488 691.288L201.476 692.805C202.439 692.812 203.298 692.577 203.94 691.99L202.916 690.871ZM214.928 663.999L208.009 680.107L209.403 680.705L216.321 664.597L214.928 663.999ZM209.298 679.932L208.048 678.37L206.864 679.317L208.114 680.88L209.298 679.932ZM207.45 679.602L223.659 679.726L223.671 678.21L207.462 678.085L207.45 679.602ZM223.071 678.497L221.846 680.04L223.034 680.983L224.259 679.44L223.071 678.497ZM223.141 680.221L216.422 664.008L215.021 664.589L221.739 680.802L223.141 680.221ZM215.728 663.54L215.63 663.54L215.619 665.056L215.716 665.057L215.728 663.54ZM245.928 691.564L245.357 692.063L245.372 692.08L245.387 692.096L245.928 691.564ZM245.284 674.378L246.001 674.133L244.525 674.373L245.284 674.378ZM246.565 678.125L245.944 678.56L247.283 677.88L246.565 678.125ZM234.996 661.584L235.617 661.149L235.614 661.144L234.996 661.584ZM234.428 659.735L233.674 659.657L233.672 659.674L233.671 659.691L234.428 659.735ZM235.266 658.043L235.779 658.601L235.789 658.592L235.798 658.583L235.266 658.043ZM239.053 657.829L238.646 658.469L238.655 658.475L238.664 658.48L239.053 657.829ZM240.595 659.346L241.218 658.914L241.215 658.91L240.595 659.346ZM249.186 671.739L249.181 672.497L250.643 672.509L249.81 671.307L249.186 671.739ZM247.828 671.729L247.212 671.285L246.355 672.476L247.822 672.487L247.828 671.729ZM256.658 659.469L256.048 659.019L256.043 659.026L256.658 659.469ZM258.174 657.976L258.559 658.63L258.575 658.621L258.59 658.611L258.174 657.976ZM261.909 658.199L261.369 658.731L261.388 658.751L261.408 658.769L261.909 658.199ZM262.625 659.806L261.867 659.801L261.866 659.82L261.867 659.838L262.625 659.806ZM261.93 661.839L262.546 662.282L262.553 662.271L261.93 661.839ZM250.205 678.153L249.488 677.905L250.821 678.596L250.205 678.153ZM251.495 674.426L252.254 674.432L250.779 674.178L251.495 674.426ZM248.257 691.649C247.394 691.642 246.835 691.405 246.468 691.032L245.387 692.096C246.112 692.832 247.102 693.156 248.245 693.165L248.257 691.649ZM246.498 691.064C246.143 690.658 245.921 690.049 245.928 689.137L244.412 689.126C244.403 690.285 244.686 691.297 245.357 692.063L246.498 691.064ZM245.928 689.137L246.042 674.384L244.525 674.373L244.412 689.126L245.928 689.137ZM244.566 674.624L245.848 678.371L247.283 677.88L246.001 674.133L244.566 674.624ZM247.186 677.691L235.617 661.149L234.375 662.018L245.944 678.56L247.186 677.691ZM235.614 661.144C235.286 660.683 235.159 660.235 235.185 659.779L233.671 659.691C233.623 660.529 233.874 661.313 234.378 662.023L235.614 661.144ZM235.182 659.813C235.234 659.312 235.431 658.921 235.779 658.601L234.753 657.484C234.124 658.063 233.762 658.8 233.674 659.657L235.182 659.813ZM235.798 658.583C236.107 658.278 236.574 658.083 237.304 658.089L237.316 656.572C236.299 656.564 235.403 656.844 234.734 657.502L235.798 658.583ZM237.304 658.089C237.818 658.093 238.258 658.223 238.646 658.469L239.46 657.189C238.818 656.781 238.096 656.578 237.316 656.572L237.304 658.089ZM238.664 658.48C239.097 658.739 239.537 659.16 239.974 659.782L241.215 658.91C240.692 658.165 240.105 657.575 239.443 657.179L238.664 658.48ZM239.971 659.778L248.563 672.171L249.81 671.307L241.218 658.914L239.971 659.778ZM249.192 670.981L247.833 670.97L247.822 672.487L249.181 672.497L249.192 670.981ZM248.443 672.172L257.273 659.913L256.043 659.026L247.212 671.285L248.443 672.172ZM257.268 659.92C257.76 659.254 258.194 658.845 258.559 658.63L257.789 657.323C257.179 657.683 256.602 658.27 256.048 659.019L257.268 659.92ZM258.59 658.611C258.927 658.389 259.372 658.259 259.967 658.263L259.979 656.747C259.151 656.74 258.396 656.924 257.758 657.342L258.59 658.611ZM259.967 658.263C260.673 658.269 261.101 658.459 261.369 658.731L262.45 657.667C261.819 657.027 260.956 656.754 259.979 656.747L259.967 658.263ZM261.408 658.769C261.724 659.046 261.87 659.372 261.867 659.801L263.383 659.812C263.39 658.947 263.059 658.201 262.41 657.63L261.408 658.769ZM261.867 659.838C261.886 660.274 261.734 660.791 261.307 661.407L262.553 662.271C263.107 661.472 263.419 660.634 263.382 659.774L261.867 659.838ZM261.314 661.397L249.589 677.711L250.821 678.596L262.546 662.282L261.314 661.397ZM250.921 678.401L252.212 674.674L250.779 674.178L249.488 677.905L250.921 678.401ZM250.737 674.42L250.624 689.173L252.14 689.185L252.254 674.432L250.737 674.42ZM250.624 689.173C250.616 690.149 250.378 690.738 250.042 691.084C249.713 691.424 249.166 691.656 248.257 691.649L248.245 693.165C249.406 693.174 250.417 692.876 251.131 692.14C251.839 691.41 252.131 690.377 252.14 689.185L250.624 689.173ZM269.702 697.377L269.121 696.889L269.117 696.894L269.702 697.377ZM268.336 698.24L268.242 697.487L268.212 697.491L268.183 697.497L268.336 698.24ZM266.551 696.867L267.308 696.823L267.308 696.819L266.551 696.867ZM267.194 695.368L267.775 695.854L267.782 695.846L267.194 695.368ZM268.523 692.951L269.251 693.161L268.523 692.951ZM268.879 690.77L269.63 690.665L268.121 690.764L268.879 690.77ZM269.109 692.422L269.103 693.18L269.981 693.187L269.86 692.317L269.109 692.422ZM266.35 691.43L265.81 691.962L265.823 691.975L265.836 691.987L266.35 691.43ZM266.342 686.237L266.874 686.777L266.881 686.771L266.887 686.764L266.342 686.237ZM271.631 686.423L271.044 686.904L271.049 686.91L271.054 686.916L271.631 686.423ZM272.315 692.107L271.571 691.958L271.569 691.97L271.567 691.981L272.315 692.107ZM271.47 694.624L270.79 694.29L270.782 694.305L270.776 694.32L271.47 694.624ZM269.117 696.894C268.77 697.314 268.475 697.458 268.242 697.487L268.431 698.992C269.169 698.9 269.784 698.468 270.287 697.859L269.117 696.894ZM268.183 697.497C267.928 697.55 267.746 697.504 267.576 697.378L266.674 698.598C267.212 698.995 267.837 699.117 268.49 698.982L268.183 697.497ZM267.576 697.378C267.423 697.265 267.325 697.11 267.308 696.823L265.794 696.912C265.835 697.595 266.119 698.187 266.674 698.598L267.576 697.378ZM267.308 696.819C267.297 696.645 267.375 696.333 267.775 695.854L266.612 694.881C266.098 695.495 265.748 696.183 265.794 696.915L267.308 696.819ZM267.782 695.846C268.485 694.981 268.985 694.086 269.251 693.161L267.794 692.741C267.595 693.43 267.209 694.147 266.605 694.889L267.782 695.846ZM269.251 693.161C269.498 692.306 269.632 691.509 269.638 690.776L268.121 690.764C268.117 691.325 268.013 691.982 267.794 692.741L269.251 693.161ZM268.128 690.875L268.358 692.526L269.86 692.317L269.63 690.665L268.128 690.875ZM269.115 691.664C268.136 691.656 267.409 691.375 266.865 690.873L265.836 691.987C266.705 692.79 267.818 693.17 269.103 693.18L269.115 691.664ZM266.891 690.898C266.378 690.378 266.103 689.689 266.11 688.759L264.594 688.747C264.584 690.017 264.974 691.113 265.81 691.962L266.891 690.898ZM266.11 688.759C266.117 687.896 266.384 687.259 266.874 686.777L265.81 685.697C264.995 686.499 264.603 687.539 264.594 688.747L266.11 688.759ZM266.887 686.764C267.37 686.265 268.033 685.989 268.965 685.996L268.976 684.48C267.708 684.47 266.618 684.86 265.797 685.71L266.887 686.764ZM268.965 685.996C269.902 686.003 270.564 686.319 271.044 686.904L272.217 685.942C271.415 684.965 270.303 684.49 268.976 684.48L268.965 685.996ZM271.054 686.916C271.534 687.476 271.828 688.356 271.818 689.676L273.334 689.688C273.346 688.161 273.01 686.869 272.207 685.93L271.054 686.916ZM271.818 689.676C271.812 690.4 271.731 691.16 271.571 691.958L273.058 692.256C273.235 691.373 273.328 690.517 273.334 689.688L271.818 689.676ZM271.567 691.981C271.445 692.705 271.19 693.474 270.79 694.29L272.151 694.958C272.605 694.034 272.913 693.124 273.063 692.232L271.567 691.981ZM270.776 694.32C270.415 695.143 269.869 696 269.121 696.889L270.282 697.865C271.102 696.889 271.735 695.911 272.165 694.928L270.776 694.32ZM304.334 690.752L303.943 691.401L303.946 691.403L304.334 690.752ZM298.655 684.593L297.977 684.933L297.979 684.937L298.655 684.593ZM297.908 668.037L298.619 668.302L298.62 668.299L297.908 668.037ZM301.251 662.53L300.702 662.008L300.702 662.008L301.251 662.53ZM306.471 659.028L306.749 659.733L306.755 659.731L306.471 659.028ZM321.945 660.069L321.554 660.719L321.56 660.722L321.945 660.069ZM327.625 666.179L328.301 665.836L327.625 666.179ZM328.371 682.735L327.659 682.474L328.371 682.735ZM324.979 688.29L324.43 687.767L324.424 687.773L324.979 688.29ZM319.759 691.841L320.037 692.547L320.043 692.544L319.759 691.841ZM318.395 686.249L317.985 685.611L317.979 685.615L318.395 686.249ZM321.824 682.053L321.132 681.743L321.128 681.754L321.824 682.053ZM320.537 666.416L319.942 666.886L319.947 666.892L320.537 666.416ZM307.884 664.571L308.284 665.216L308.294 665.21L307.884 664.571ZM304.407 668.718L303.714 668.409L303.712 668.414L304.407 668.718ZM305.742 684.356L306.336 683.885L305.742 684.356ZM313.01 692.244C309.825 692.22 307.07 691.497 304.722 690.1L303.946 691.403C306.558 692.957 309.583 693.734 312.998 693.761L313.01 692.244ZM304.725 690.102C302.403 688.703 300.607 686.758 299.33 684.249L297.979 684.937C299.38 687.69 301.369 689.851 303.943 691.401L304.725 690.102ZM299.332 684.252C298.057 681.715 297.42 678.727 297.446 675.265L295.93 675.254C295.902 678.91 296.575 682.144 297.977 684.933L299.332 684.252ZM297.446 675.265C297.466 672.653 297.862 670.335 298.619 668.302L297.198 667.773C296.369 669.999 295.951 672.496 295.93 675.254L297.446 675.265ZM298.62 668.299C299.382 666.224 300.444 664.48 301.801 663.053L300.702 662.008C299.188 663.6 298.022 665.528 297.197 667.776L298.62 668.299ZM301.8 663.053C303.191 661.593 304.838 660.487 306.749 659.733L306.193 658.322C304.08 659.156 302.247 660.385 300.702 662.008L301.8 663.053ZM306.755 659.731C308.696 658.947 310.864 658.558 313.269 658.577L313.281 657.06C310.703 657.04 308.335 657.457 306.187 658.325L306.755 659.731ZM313.269 658.577C316.488 658.601 319.241 659.325 321.554 660.719L322.336 659.42C319.754 657.864 316.726 657.087 313.281 657.06L313.269 658.577ZM321.56 660.722C323.878 662.089 325.673 664.016 326.949 666.523L328.301 665.836C326.899 663.081 324.907 660.935 322.33 659.416L321.56 660.722ZM326.949 666.523C328.222 669.026 328.86 671.996 328.833 675.458L330.35 675.47C330.378 671.815 329.705 668.595 328.301 665.836L326.949 666.523ZM328.833 675.458C328.813 678.071 328.418 680.406 327.659 682.474L329.083 682.996C329.911 680.74 330.329 678.228 330.35 675.47L328.833 675.458ZM327.659 682.474C326.899 684.546 325.821 686.306 324.43 687.767L325.529 688.813C327.074 687.19 328.257 685.247 329.083 682.996L327.659 682.474ZM324.424 687.773C323.068 689.23 321.422 690.352 319.475 691.138L320.043 692.544C322.186 691.679 324.02 690.434 325.534 688.807L324.424 687.773ZM319.481 691.136C317.572 691.888 315.419 692.263 313.01 692.244L312.998 693.761C315.572 693.781 317.922 693.381 320.037 692.547L319.481 691.136ZM313.039 688.422C315.261 688.44 317.198 687.94 318.81 686.884L317.979 685.615C316.664 686.477 315.035 686.921 313.051 686.906L313.039 688.422ZM318.804 686.888C320.443 685.837 321.678 684.312 322.521 682.353L321.128 681.754C320.389 683.471 319.338 684.744 317.985 685.611L318.804 686.888ZM322.516 682.363C323.392 680.408 323.826 678.102 323.847 675.469L322.33 675.457C322.311 677.935 321.902 680.023 321.132 681.744L322.516 682.363ZM323.847 675.469C323.877 671.481 323.005 668.272 321.128 665.94L319.947 666.892C321.53 668.858 322.359 671.679 322.33 675.457L323.847 675.469ZM321.132 665.946C319.268 663.587 316.599 662.424 313.24 662.398L313.228 663.915C316.209 663.938 318.41 664.948 319.942 666.886L321.132 665.946ZM313.24 662.398C311.047 662.381 309.114 662.882 307.475 663.933L308.294 665.21C309.646 664.342 311.28 663.9 313.228 663.915L313.24 662.398ZM307.485 663.927C305.843 664.945 304.59 666.453 303.715 668.409L305.099 669.028C305.869 667.308 306.935 666.052 308.284 665.216L307.485 663.927ZM303.712 668.414C302.87 670.339 302.453 672.643 302.433 675.304L303.949 675.315C303.969 672.799 304.363 670.71 305.101 669.023L303.712 668.414ZM302.433 675.304C302.402 679.261 303.275 682.467 305.148 684.828L306.336 683.885C304.748 681.883 303.921 679.058 303.949 675.315L302.433 675.304ZM305.148 684.828C307.04 687.213 309.705 688.397 313.039 688.422L313.051 686.906C310.109 686.883 307.905 685.862 306.336 683.885L305.148 684.828ZM339.467 692.284L338.897 692.784L338.912 692.8L338.927 692.816L339.467 692.284ZM339.724 658.944L339.192 658.404L339.724 658.944ZM344.335 658.98L343.778 659.495L343.794 659.512L343.811 659.528L344.335 658.98ZM345.046 673.69L344.288 673.685L344.282 674.443L345.04 674.449L345.046 673.69ZM345.143 673.691L345.138 674.45L345.452 674.452L345.676 674.231L345.143 673.691ZM359.179 659.822L358.647 659.282L358.646 659.282L359.179 659.822ZM360.741 658.669L360.407 657.988L360.741 658.669ZM364.475 659.038L363.879 659.507L363.889 659.518L363.898 659.53L364.475 659.038ZM364.947 660.74L364.198 660.622L364.195 660.64L364.193 660.659L364.947 660.74ZM364.011 662.528L364.541 663.071L364.544 663.069L364.011 662.528ZM349.733 676.444L348.975 676.425L348.928 678.287L350.262 676.987L349.733 676.444ZM349.803 673.63L350.348 673.102L349.09 671.804L349.045 673.611L349.803 673.63ZM364.489 688.788L363.944 689.316L363.953 689.325L363.962 689.333L364.489 688.788ZM365.541 690.835L366.298 690.806L366.298 690.806L365.541 690.835ZM364.847 692.625L365.38 693.165L364.847 692.625ZM360.915 692.789L360.47 693.403L360.479 693.41L360.49 693.417L360.915 692.789ZM359.324 691.369L359.865 690.837L359.324 691.369ZM345.118 676.943L345.659 676.411L345.438 676.187L345.124 676.184L345.118 676.943ZM345.021 676.942L345.027 676.184L344.269 676.178L344.263 676.936L345.021 676.942ZM344.126 692.32L344.675 692.844L344.682 692.836L344.689 692.828L344.126 692.32ZM341.796 692.369C340.934 692.362 340.375 692.125 340.008 691.752L338.927 692.816C339.652 693.552 340.642 693.877 341.785 693.885L341.796 692.369ZM340.038 691.785C339.679 691.374 339.461 690.778 339.468 689.906L337.951 689.894C337.942 691.028 338.23 692.021 338.897 692.784L340.038 691.785ZM339.468 689.906L339.688 661.273L338.171 661.262L337.951 689.894L339.468 689.906ZM339.688 661.273C339.695 660.355 339.928 659.807 340.256 659.484L339.192 658.404C338.477 659.108 338.18 660.11 338.171 661.262L339.688 661.273ZM340.256 659.484C340.629 659.117 341.191 658.889 342.054 658.895L342.066 657.379C340.923 657.37 339.928 657.679 339.192 658.404L340.256 659.484ZM342.054 658.895C342.92 658.902 343.449 659.14 343.778 659.495L344.891 658.464C344.193 657.711 343.206 657.388 342.066 657.379L342.054 658.895ZM343.811 659.528C344.156 659.858 344.39 660.403 344.383 661.31L345.9 661.321C345.909 660.157 345.605 659.145 344.858 658.431L343.811 659.528ZM344.383 661.31L344.288 673.685L345.805 673.696L345.9 661.321L344.383 661.31ZM345.04 674.449L345.138 674.45L345.149 672.933L345.052 672.932L345.04 674.449ZM345.676 674.231L359.712 660.361L358.646 659.282L344.61 673.152L345.676 674.231ZM359.711 660.362C360.189 659.891 360.645 659.561 361.075 659.35L360.407 657.988C359.798 658.287 359.212 658.725 358.647 659.282L359.711 660.362ZM361.075 659.35C361.477 659.153 361.942 659.048 362.485 659.053L362.497 657.536C361.746 657.53 361.044 657.676 360.407 657.988L361.075 659.35ZM362.485 659.053C363.313 659.059 363.698 659.276 363.879 659.507L365.071 658.568C364.483 657.822 363.545 657.544 362.497 657.536L362.485 659.053ZM363.898 659.53C364.168 659.846 364.267 660.189 364.198 660.622L365.696 660.858C365.832 659.998 365.616 659.206 365.052 658.545L363.898 659.53ZM364.193 660.659C364.146 661.099 363.934 661.54 363.479 661.988L364.544 663.069C365.197 662.425 365.609 661.674 365.701 660.821L364.193 660.659ZM363.482 661.985L349.204 675.901L350.262 676.987L364.541 663.071L363.482 661.985ZM350.491 676.463L350.561 673.649L349.045 673.611L348.975 676.425L350.491 676.463ZM349.258 674.158L363.944 689.316L365.033 688.261L350.348 673.102L349.258 674.158ZM363.962 689.333C364.541 689.894 364.766 690.402 364.783 690.863L366.298 690.806C366.262 689.843 365.785 688.987 365.016 688.243L363.962 689.333ZM364.783 690.863C364.802 691.372 364.646 691.759 364.315 692.085L365.38 693.165C366.027 692.528 366.333 691.722 366.298 690.806L364.783 690.863ZM364.315 692.085C364.053 692.343 363.599 692.537 362.81 692.531L362.798 694.047C363.821 694.055 364.729 693.806 365.38 693.165L364.315 692.085ZM362.81 692.531C362.134 692.525 361.665 692.381 361.341 692.161L360.49 693.417C361.131 693.852 361.921 694.04 362.798 694.047L362.81 692.531ZM361.361 692.175C360.957 691.882 360.46 691.441 359.865 690.837L358.784 691.901C359.409 692.536 359.972 693.041 360.47 693.403L361.361 692.175ZM359.865 690.837L345.659 676.411L344.578 677.475L358.784 691.901L359.865 690.837ZM345.124 676.184L345.027 676.184L345.015 677.7L345.112 677.701L345.124 676.184ZM344.263 676.936L344.163 689.942L345.679 689.954L345.78 676.948L344.263 676.936ZM344.163 689.942C344.156 690.814 343.929 691.407 343.563 691.812L344.689 692.828C345.368 692.076 345.671 691.088 345.679 689.954L344.163 689.942ZM343.578 691.796C343.248 692.141 342.703 692.376 341.796 692.369L341.785 693.885C342.949 693.894 343.961 693.591 344.675 692.844L343.578 691.796ZM376.012 682.568L375.426 683.049L375.437 683.063L375.449 683.076L376.012 682.568ZM375.443 680.913L374.686 680.967L374.687 680.976L375.443 680.913ZM374.13 662.364L374.886 662.31L374.886 662.308L374.13 662.364ZM374.928 659.506L375.498 660.006L375.504 660L375.509 659.994L374.928 659.506ZM380.266 659.547L379.666 660.01L379.677 660.025L379.689 660.039L380.266 659.547ZM381.021 662.417L380.265 662.35L380.265 662.351L381.021 662.417ZM379.422 680.944L378.667 680.879L378.666 680.891L378.665 680.904L379.422 680.944ZM378.827 682.589L378.272 682.073L378.26 682.086L378.248 682.099L378.827 682.589ZM374.725 692.216L374.172 692.735L374.178 692.741L374.184 692.748L374.725 692.216ZM374.764 687.072L374.232 686.531L374.764 687.072ZM380.054 687.112L379.488 687.617L379.501 687.631L379.514 687.644L380.054 687.112ZM380.015 692.257L379.469 691.729L379.463 691.736L379.456 691.743L380.015 692.257ZM377.47 682.403C377.029 682.4 376.762 682.266 376.575 682.06L375.449 683.076C375.969 683.651 376.67 683.914 377.458 683.92L377.47 682.403ZM376.599 682.087C376.408 681.855 376.25 681.471 376.198 680.85L374.687 680.976C374.754 681.781 374.975 682.499 375.426 683.049L376.599 682.087ZM376.199 680.86L374.886 662.31L373.373 662.417L374.686 680.967L376.199 680.86ZM374.886 662.308C374.809 661.254 375.046 660.521 375.498 660.006L374.358 659.006C373.569 659.905 373.275 661.078 373.373 662.419L374.886 662.308ZM375.509 659.994C375.95 659.469 376.618 659.161 377.648 659.169L377.66 657.653C376.296 657.642 375.147 658.065 374.347 659.019L375.509 659.994ZM377.648 659.169C378.64 659.177 379.264 659.489 379.666 660.01L380.867 659.085C380.115 658.109 378.998 657.663 377.66 657.653L377.648 659.169ZM379.689 660.039C380.132 660.56 380.359 661.297 380.265 662.35L381.776 662.484C381.895 661.144 381.619 659.967 380.844 659.056L379.689 660.039ZM380.265 662.351L378.667 680.879L380.178 681.009L381.776 662.482L380.265 662.351ZM378.665 680.904C378.633 681.5 378.473 681.857 378.272 682.073L379.382 683.106C379.899 682.551 380.135 681.81 380.179 680.984L378.665 680.904ZM378.248 682.099C378.09 682.286 377.865 682.406 377.47 682.403L377.458 683.92C378.227 683.926 378.911 683.664 379.406 683.079L378.248 682.099ZM377.392 692.497C376.461 692.49 375.777 692.204 375.265 691.684L374.184 692.748C375.02 693.597 376.111 694.004 377.38 694.014L377.392 692.497ZM375.278 691.697C374.788 691.175 374.526 690.496 374.533 689.594L373.016 689.582C373.007 690.815 373.378 691.888 374.172 692.735L375.278 691.697ZM374.533 689.594C374.539 688.731 374.807 688.094 375.296 687.612L374.232 686.531C373.418 687.334 373.025 688.374 373.016 689.582L374.533 689.594ZM375.296 687.612C375.817 687.1 376.505 686.824 377.436 686.831L377.447 685.315C376.178 685.305 375.081 685.695 374.232 686.531L375.296 687.612ZM377.436 686.831C378.408 686.839 379.054 687.129 379.488 687.617L380.62 686.608C379.836 685.727 378.739 685.325 377.447 685.315L377.436 686.831ZM379.514 687.644C379.996 688.134 380.254 688.775 380.247 689.638L381.764 689.649C381.773 688.442 381.397 687.395 380.594 686.58L379.514 687.644ZM380.247 689.638C380.24 690.54 379.967 691.214 379.469 691.729L380.56 692.784C381.366 691.95 381.754 690.883 381.764 689.649L380.247 689.638ZM379.456 691.743C379.014 692.224 378.364 692.505 377.392 692.497L377.38 694.014C378.672 694.024 379.775 693.638 380.573 692.77L379.456 691.743Z" fill="white"/>
<path d="M109.434 640.277C112.311 643.725 109.725 650.625 105.354 654.273C100.983 657.921 93.7318 659.231 90.8541 655.783C87.9764 652.335 89.8027 646.069 94.9332 641.787C100.064 637.505 106.556 636.829 109.434 640.277Z" fill="#FFE588"/>
<defs>
<filter id="filter0_d_0_3889" x="44.5859" y="277.534" width="464.92" height="473.995" filterUnits="userSpaceOnUse" color-interpolation-filters="sRGB">
<feFlood flood-opacity="0" result="BackgroundImageFix"/>
<feColorMatrix in="SourceAlpha" type="matrix" values="0 0 0 0 0 0 0 0 0 0 0 0 0 0 0 0 0 0 127 0" result="hardAlpha"/>
<feOffset dy="6.06641"/>
<feComposite in2="hardAlpha" operator="out"/>
<feColorMatrix type="matrix" values="0 0 0 0 1 0 0 0 0 0.787333 0 0 0 0 0.468333 0 0 0 1 0"/>
<feBlend mode="normal" in2="BackgroundImageFix" result="effect1_dropShadow_0_3889"/>
<feBlend mode="normal" in="SourceGraphic" in2="effect1_dropShadow_0_3889" result="shape"/>
</filter>
<filter id="filter1_d_0_3889" x="20.0078" y="206.568" width="117.914" height="138.6" filterUnits="userSpaceOnUse" color-interpolation-filters="sRGB">
<feFlood flood-opacity="0" result="BackgroundImageFix"/>
<feColorMatrix in="SourceAlpha" type="matrix" values="0 0 0 0 0 0 0 0 0 0 0 0 0 0 0 0 0 0 127 0" result="hardAlpha"/>
<feOffset dy="6.06641"/>
<feComposite in2="hardAlpha" operator="out"/>
<feColorMatrix type="matrix" values="0 0 0 0 0.886275 0 0 0 0 0.419608 0 0 0 0 0.117647 0 0 0 1 0"/>
<feBlend mode="normal" in2="BackgroundImageFix" result="effect1_dropShadow_0_3889"/>
<feBlend mode="normal" in="SourceGraphic" in2="effect1_dropShadow_0_3889" result="shape"/>
</filter>
<filter id="filter2_d_0_3889" x="418.711" y="209.199" width="119.156" height="139.473" filterUnits="userSpaceOnUse" color-interpolation-filters="sRGB">
<feFlood flood-opacity="0" result="BackgroundImageFix"/>
<feColorMatrix in="SourceAlpha" type="matrix" values="0 0 0 0 0 0 0 0 0 0 0 0 0 0 0 0 0 0 127 0" result="hardAlpha"/>
<feOffset dy="6.06641"/>
<feComposite in2="hardAlpha" operator="out"/>
<feColorMatrix type="matrix" values="0 0 0 0 0.886275 0 0 0 0 0.419608 0 0 0 0 0.117647 0 0 0 1 0"/>
<feBlend mode="normal" in2="BackgroundImageFix" result="effect1_dropShadow_0_3889"/>
<feBlend mode="normal" in="SourceGraphic" in2="effect1_dropShadow_0_3889" result="shape"/>
</filter>
<filter id="filter3_d_0_3889" x="73.335" y="166.438" width="409.753" height="158.495" filterUnits="userSpaceOnUse" color-interpolation-filters="sRGB">
<feFlood flood-opacity="0" result="BackgroundImageFix"/>
<feColorMatrix in="SourceAlpha" type="matrix" values="0 0 0 0 0 0 0 0 0 0 0 0 0 0 0 0 0 0 127 0" result="hardAlpha"/>
<feOffset dy="6.06641"/>
<feComposite in2="hardAlpha" operator="out"/>
<feColorMatrix type="matrix" values="0 0 0 0 0.886275 0 0 0 0 0.419608 0 0 0 0 0.117647 0 0 0 1 0"/>
<feBlend mode="normal" in2="BackgroundImageFix" result="effect1_dropShadow_0_3889"/>
<feBlend mode="normal" in="SourceGraphic" in2="effect1_dropShadow_0_3889" result="shape"/>
</filter>
<filter id="filter4_d_0_3889" x="68.7402" y="627.747" width="414.102" height="99.6282" filterUnits="userSpaceOnUse" color-interpolation-filters="sRGB">
<feFlood flood-opacity="0" result="BackgroundImageFix"/>
<feColorMatrix in="SourceAlpha" type="matrix" values="0 0 0 0 0 0 0 0 0 0 0 0 0 0 0 0 0 0 127 0" result="hardAlpha"/>
<feOffset dy="6.06641"/>
<feComposite in2="hardAlpha" operator="out"/>
<feColorMatrix type="matrix" values="0 0 0 0 1 0 0 0 0 0.835982 0 0 0 0 0.251667 0 0 0 1 0"/>
<feBlend mode="normal" in2="BackgroundImageFix" result="effect1_dropShadow_0_3889"/>
<feBlend mode="normal" in="SourceGraphic" in2="effect1_dropShadow_0_3889" result="shape"/>
</filter>
<filter id="filter5_d_0_3889" x="74.8418" y="632.299" width="401.942" height="84.4587" filterUnits="userSpaceOnUse" color-interpolation-filters="sRGB">
<feFlood flood-opacity="0" result="BackgroundImageFix"/>
<feColorMatrix in="SourceAlpha" type="matrix" values="0 0 0 0 0 0 0 0 0 0 0 0 0 0 0 0 0 0 127 0" result="hardAlpha"/>
<feOffset dy="6.06641"/>
<feComposite in2="hardAlpha" operator="out"/>
<feColorMatrix type="matrix" values="0 0 0 0 0.929167 0 0 0 0 0.72458 0 0 0 0 0 0 0 0 1 0"/>
<feBlend mode="normal" in2="BackgroundImageFix" result="effect1_dropShadow_0_3889"/>
<feBlend mode="normal" in="SourceGraphic" in2="effect1_dropShadow_0_3889" result="shape"/>
</filter>
<linearGradient id="paint0_linear_0_3889" x1="210.739" y1="9.257" x2="235.485" y2="227.964" gradientUnits="userSpaceOnUse">
<stop stop-color="#FFDF6E" stop-opacity="0"/>
<stop offset="1" stop-color="#FFCD1B" stop-opacity="0.5"/>
</linearGradient>
<linearGradient id="paint1_linear_0_3889" x1="350.037" y1="8.39288" x2="324.4" y2="226.998" gradientUnits="userSpaceOnUse">
<stop stop-color="#FFDF6E" stop-opacity="0"/>
<stop offset="1" stop-color="#FFCD1B" stop-opacity="0.5"/>
</linearGradient>
<linearGradient id="paint2_linear_0_3889" x1="101.557" y1="62.1044" x2="155.072" y2="243.286" gradientUnits="userSpaceOnUse">
<stop stop-color="#FFDF6E" stop-opacity="0"/>
<stop offset="1" stop-color="#FFCD1B" stop-opacity="0.5"/>
</linearGradient>
<linearGradient id="paint3_linear_0_3889" x1="459.005" y1="61.6846" x2="404.752" y2="242.647" gradientUnits="userSpaceOnUse">
<stop stop-color="#FFDF6E" stop-opacity="0"/>
<stop offset="1" stop-color="#FFCD1B" stop-opacity="0.5"/>
</linearGradient>
<linearGradient id="paint4_linear_0_3889" x1="33.6045" y1="146.233" x2="94.8703" y2="266.467" gradientUnits="userSpaceOnUse">
<stop stop-color="#FFDF6E" stop-opacity="0"/>
<stop offset="1" stop-color="#FFCD1B" stop-opacity="0.5"/>
</linearGradient>
<linearGradient id="paint5_linear_0_3889" x1="526.612" y1="146.089" x2="464.856" y2="266.072" gradientUnits="userSpaceOnUse">
<stop stop-color="#FFDF6E" stop-opacity="0"/>
<stop offset="1" stop-color="#FFCD1B" stop-opacity="0.5"/>
</linearGradient>
<linearGradient id="paint6_linear_0_3889" x1="47.702" y1="144.221" x2="71.7268" y2="274.079" gradientUnits="userSpaceOnUse">
<stop stop-color="#FFCF25"/>
<stop offset="1" stop-color="#FD8C43"/>
</linearGradient>
<linearGradient id="paint7_linear_0_3889" x1="511.518" y1="147.792" x2="485.496" y2="277.265" gradientUnits="userSpaceOnUse">
<stop stop-color="#FFCF25"/>
<stop offset="1" stop-color="#FD8C43"/>
</linearGradient>
<linearGradient id="paint8_linear_0_3889" x1="279.437" y1="86.097" x2="278.188" y2="248.369" gradientUnits="userSpaceOnUse">
<stop stop-color="#FFCF25"/>
<stop offset="1" stop-color="#FD8C43"/>
</linearGradient>
</defs>
</svg>
