<svg width="756" height="42" viewBox="0 0 756 42" fill="none" xmlns="http://www.w3.org/2000/svg">
<path d="M736.735 4.35265C743.724 4.38688 747.219 4.404 749.814 5.91948C751.514 6.9123 752.923 8.3352 753.899 10.0452C755.389 12.6553 755.372 16.1498 755.338 23.1386C755.304 30.1274 755.287 33.6218 753.771 36.2173C752.778 37.9176 751.356 39.3266 749.646 40.3027C747.035 41.7927 743.541 41.7756 736.552 41.7414L18.6887 38.2253C11.6999 38.1911 8.20546 38.174 5.61001 36.6585C3.90965 35.6657 2.50065 34.2428 1.52452 32.5328C0.0345352 29.9226 0.0516505 26.4282 0.0858811 19.4394C0.120112 12.4506 0.137227 8.95619 1.6527 6.36073C2.64554 4.66041 4.06841 3.25138 5.77842 2.27527C8.38859 0.785274 11.883 0.802389 18.8718 0.83662L736.735 4.35265Z" fill="#FCE492"/>
<g clip-path="url(#clip0_0_3819)">
<path d="M711.816 4.23047L711.633 41.6192L18.6891 38.2252C11.7003 38.191 8.20586 38.1739 5.6104 36.6584C3.91004 35.6656 2.50104 34.2427 1.52491 32.5327C0.0349282 29.9225 0.0520435 26.4281 0.0862741 19.4393C0.120505 12.4505 0.13762 8.95606 1.6531 6.3606C2.64593 4.66028 4.06881 3.25125 5.77881 2.27514C8.38898 0.785145 11.8834 0.80226 18.8722 0.836491L711.816 4.23047Z" fill="#FCE492"/>
<path d="M585.762 3.84335C586.547 3.8472 587.257 4.31021 587.578 5.02708L602.537 38.4899C603.131 39.8168 602.155 41.3133 600.702 41.3062L579.729 41.2034C578.924 41.1995 578.2 40.7133 577.892 39.9698L564.012 6.51225C563.464 5.19138 564.44 3.73892 565.87 3.74592L585.762 3.84335Z" fill="#FCE492"/>
<path d="M21.9646 1.10666C23.4326 1.11385 24.7605 1.97942 25.3597 3.31959L38.7611 33.2969C39.87 35.7775 38.0465 38.575 35.3294 38.5617L18.2087 38.4779C16.7038 38.4705 15.35 37.5617 14.7734 36.1717L2.33972 6.19908C1.31536 3.72976 3.13825 1.01445 5.81158 1.02755L21.9646 1.10666Z" fill="#FFCF25"/>
<path d="M21.9646 1.10666C23.4326 1.11385 24.7605 1.97942 25.3597 3.31959L38.7611 33.2969C39.87 35.7775 38.0465 38.575 35.3294 38.5617L18.2087 38.4779C16.7038 38.4705 15.35 37.5617 14.7734 36.1717L2.33972 6.19908C1.31536 3.72976 3.13825 1.01445 5.81158 1.02755L21.9646 1.10666Z" fill="#FFCF25"/>
<path d="M21.9646 1.10666C23.4326 1.11385 24.7605 1.97942 25.3597 3.31959L38.7611 33.2969C39.87 35.7775 38.0465 38.575 35.3294 38.5617L18.2087 38.4779C16.7038 38.4705 15.35 37.5617 14.7734 36.1717L2.33972 6.19908C1.31536 3.72976 3.13825 1.01445 5.81158 1.02755L21.9646 1.10666Z" fill="#FFCF25"/>
<path d="M52.9646 1.10666C54.4326 1.11385 55.7605 1.97942 56.3597 3.31959L69.7611 33.2969C70.87 35.7775 69.0465 38.575 66.3294 38.5617L49.2087 38.4779C47.7038 38.4705 46.35 37.5617 45.7734 36.1717L33.3397 6.19908C32.3154 3.72976 34.1383 1.01445 36.8116 1.02755L52.9646 1.10666Z" fill="#FFCF25"/>
<path d="M52.9646 1.10666C54.4326 1.11385 55.7605 1.97942 56.3597 3.31959L69.7611 33.2969C70.87 35.7775 69.0465 38.575 66.3294 38.5617L49.2087 38.4779C47.7038 38.4705 46.35 37.5617 45.7734 36.1717L33.3397 6.19908C32.3154 3.72976 34.1383 1.01445 36.8116 1.02755L52.9646 1.10666Z" fill="#FFCF25"/>
<path d="M52.9646 1.10666C54.4326 1.11385 55.7605 1.97942 56.3597 3.31959L69.7611 33.2969C70.87 35.7775 69.0465 38.575 66.3294 38.5617L49.2087 38.4779C47.7038 38.4705 46.35 37.5617 45.7734 36.1717L33.3397 6.19908C32.3154 3.72976 34.1383 1.01445 36.8116 1.02755L52.9646 1.10666Z" fill="#FFCF25"/>
<path d="M83.9646 1.10666C85.4326 1.11385 86.7605 1.97942 87.3597 3.31959L100.761 33.2969C101.87 35.7775 100.047 38.575 97.3294 38.5617L80.2087 38.4779C78.7038 38.4705 77.35 37.5617 76.7734 36.1717L64.3397 6.19908C63.3154 3.72976 65.1383 1.01445 67.8116 1.02755L83.9646 1.10666Z" fill="#FFCF25"/>
<path d="M83.9646 1.10666C85.4326 1.11385 86.7605 1.97942 87.3597 3.31959L100.761 33.2969C101.87 35.7775 100.047 38.575 97.3294 38.5617L80.2087 38.4779C78.7038 38.4705 77.35 37.5617 76.7734 36.1717L64.3397 6.19908C63.3154 3.72976 65.1383 1.01445 67.8116 1.02755L83.9646 1.10666Z" fill="#FFCF25"/>
<path d="M83.9646 1.10666C85.4326 1.11385 86.7605 1.97942 87.3597 3.31959L100.761 33.2969C101.87 35.7775 100.047 38.575 97.3294 38.5617L80.2087 38.4779C78.7038 38.4705 77.35 37.5617 76.7734 36.1717L64.3397 6.19908C63.3154 3.72976 65.1383 1.01445 67.8116 1.02755L83.9646 1.10666Z" fill="#FFCF25"/>
<path d="M114.965 1.10666C116.433 1.11385 117.761 1.97942 118.36 3.31959L131.761 33.2969C132.87 35.7775 131.047 38.575 128.329 38.5617L111.209 38.4779C109.704 38.4705 108.35 37.5617 107.773 36.1717L95.3397 6.19908C94.3154 3.72976 96.1383 1.01445 98.8116 1.02755L114.965 1.10666Z" fill="#FFCF25"/>
<path d="M114.965 1.10666C116.433 1.11385 117.761 1.97942 118.36 3.31959L131.761 33.2969C132.87 35.7775 131.047 38.575 128.329 38.5617L111.209 38.4779C109.704 38.4705 108.35 37.5617 107.773 36.1717L95.3397 6.19908C94.3154 3.72976 96.1383 1.01445 98.8116 1.02755L114.965 1.10666Z" fill="#FFCF25"/>
<path d="M114.965 1.10666C116.433 1.11385 117.761 1.97942 118.36 3.31959L131.761 33.2969C132.87 35.7775 131.047 38.575 128.329 38.5617L111.209 38.4779C109.704 38.4705 108.35 37.5617 107.773 36.1717L95.3397 6.19908C94.3154 3.72976 96.1383 1.01445 98.8116 1.02755L114.965 1.10666Z" fill="#FFCF25"/>
<path d="M144.965 1.10666C146.433 1.11385 147.761 1.97942 148.36 3.31959L161.761 33.2969C162.87 35.7775 161.047 38.575 158.329 38.5617L141.209 38.4779C139.704 38.4705 138.35 37.5617 137.773 36.1717L125.34 6.19908C124.315 3.72976 126.138 1.01445 128.812 1.02755L144.965 1.10666Z" fill="#FFCF25"/>
<path d="M144.965 1.10666C146.433 1.11385 147.761 1.97942 148.36 3.31959L161.761 33.2969C162.87 35.7775 161.047 38.575 158.329 38.5617L141.209 38.4779C139.704 38.4705 138.35 37.5617 137.773 36.1717L125.34 6.19908C124.315 3.72976 126.138 1.01445 128.812 1.02755L144.965 1.10666Z" fill="#FFCF25"/>
<path d="M144.965 1.10666C146.433 1.11385 147.761 1.97942 148.36 3.31959L161.761 33.2969C162.87 35.7775 161.047 38.575 158.329 38.5617L141.209 38.4779C139.704 38.4705 138.35 37.5617 137.773 36.1717L125.34 6.19908C124.315 3.72976 126.138 1.01445 128.812 1.02755L144.965 1.10666Z" fill="#FFCF25"/>
<path d="M175.965 1.10666C177.433 1.11385 178.761 1.97942 179.36 3.31959L192.761 33.2969C193.87 35.7775 192.047 38.575 189.329 38.5617L172.209 38.4779C170.704 38.4705 169.35 37.5617 168.773 36.1717L156.34 6.19908C155.315 3.72976 157.138 1.01445 159.812 1.02755L175.965 1.10666Z" fill="#FFCF25"/>
<path d="M175.965 1.10666C177.433 1.11385 178.761 1.97942 179.36 3.31959L192.761 33.2969C193.87 35.7775 192.047 38.575 189.329 38.5617L172.209 38.4779C170.704 38.4705 169.35 37.5617 168.773 36.1717L156.34 6.19908C155.315 3.72976 157.138 1.01445 159.812 1.02755L175.965 1.10666Z" fill="#FFCF25"/>
<path d="M175.965 1.10666C177.433 1.11385 178.761 1.97942 179.36 3.31959L192.761 33.2969C193.87 35.7775 192.047 38.575 189.329 38.5617L172.209 38.4779C170.704 38.4705 169.35 37.5617 168.773 36.1717L156.34 6.19908C155.315 3.72976 157.138 1.01445 159.812 1.02755L175.965 1.10666Z" fill="#FFCF25"/>
<path d="M206.965 1.10666C208.433 1.11385 209.761 1.97942 210.36 3.31959L223.761 33.2969C224.87 35.7775 223.047 38.575 220.329 38.5617L203.209 38.4779C201.704 38.4705 200.35 37.5617 199.773 36.1717L187.34 6.19908C186.315 3.72976 188.138 1.01445 190.812 1.02755L206.965 1.10666Z" fill="#FFCF25"/>
<path d="M206.965 1.10666C208.433 1.11385 209.761 1.97942 210.36 3.31959L223.761 33.2969C224.87 35.7775 223.047 38.575 220.329 38.5617L203.209 38.4779C201.704 38.4705 200.35 37.5617 199.773 36.1717L187.34 6.19908C186.315 3.72976 188.138 1.01445 190.812 1.02755L206.965 1.10666Z" fill="#FFCF25"/>
<path d="M206.965 1.10666C208.433 1.11385 209.761 1.97942 210.36 3.31959L223.761 33.2969C224.87 35.7775 223.047 38.575 220.329 38.5617L203.209 38.4779C201.704 38.4705 200.35 37.5617 199.773 36.1717L187.34 6.19908C186.315 3.72976 188.138 1.01445 190.812 1.02755L206.965 1.10666Z" fill="#FFCF25"/>
<path d="M237.965 1.10666C239.433 1.11385 240.761 1.97942 241.36 3.31959L254.761 33.2969C255.87 35.7775 254.047 38.575 251.329 38.5617L234.209 38.4779C232.704 38.4705 231.35 37.5617 230.773 36.1717L218.34 6.19908C217.315 3.72976 219.138 1.01445 221.812 1.02755L237.965 1.10666Z" fill="#FFCF25"/>
<path d="M237.965 1.10666C239.433 1.11385 240.761 1.97942 241.36 3.31959L254.761 33.2969C255.87 35.7775 254.047 38.575 251.329 38.5617L234.209 38.4779C232.704 38.4705 231.35 37.5617 230.773 36.1717L218.34 6.19908C217.315 3.72976 219.138 1.01445 221.812 1.02755L237.965 1.10666Z" fill="#FFCF25"/>
<path d="M237.965 1.10666C239.433 1.11385 240.761 1.97942 241.36 3.31959L254.761 33.2969C255.87 35.7775 254.047 38.575 251.329 38.5617L234.209 38.4779C232.704 38.4705 231.35 37.5617 230.773 36.1717L218.34 6.19908C217.315 3.72976 219.138 1.01445 221.812 1.02755L237.965 1.10666Z" fill="#FFCF25"/>
<path d="M515.965 4.10666C517.433 4.11385 518.761 4.97942 519.36 6.31959L532.761 36.2969C533.87 38.7775 532.047 41.575 529.329 41.5617L512.209 41.4779C510.704 41.4705 509.35 40.5617 508.773 39.1717L496.34 9.19908C495.315 6.72976 497.138 4.01445 499.812 4.02755L515.965 4.10666Z" fill="#FFCF25"/>
<path d="M515.965 4.10666C517.433 4.11385 518.761 4.97942 519.36 6.31959L532.761 36.2969C533.87 38.7775 532.047 41.575 529.329 41.5617L512.209 41.4779C510.704 41.4705 509.35 40.5617 508.773 39.1717L496.34 9.19908C495.315 6.72976 497.138 4.01445 499.812 4.02755L515.965 4.10666Z" fill="#FFCF25"/>
<path d="M515.965 4.10666C517.433 4.11385 518.761 4.97942 519.36 6.31959L532.761 36.2969C533.87 38.7775 532.047 41.575 529.329 41.5617L512.209 41.4779C510.704 41.4705 509.35 40.5617 508.773 39.1717L496.34 9.19908C495.315 6.72976 497.138 4.01445 499.812 4.02755L515.965 4.10666Z" fill="#FFCF25"/>
<path d="M546.965 4.10666C548.433 4.11385 549.761 4.97942 550.36 6.31959L563.761 36.2969C564.87 38.7775 563.047 41.575 560.329 41.5617L543.209 41.4779C541.704 41.4705 540.35 40.5617 539.773 39.1717L527.34 9.19908C526.315 6.72976 528.138 4.01445 530.812 4.02755L546.965 4.10666Z" fill="#FFCF25"/>
<path d="M546.965 4.10666C548.433 4.11385 549.761 4.97942 550.36 6.31959L563.761 36.2969C564.87 38.7775 563.047 41.575 560.329 41.5617L543.209 41.4779C541.704 41.4705 540.35 40.5617 539.773 39.1717L527.34 9.19908C526.315 6.72976 528.138 4.01445 530.812 4.02755L546.965 4.10666Z" fill="#FFCF25"/>
<path d="M546.965 4.10666C548.433 4.11385 549.761 4.97942 550.36 6.31959L563.761 36.2969C564.87 38.7775 563.047 41.575 560.329 41.5617L543.209 41.4779C541.704 41.4705 540.35 40.5617 539.773 39.1717L527.34 9.19908C526.315 6.72976 528.138 4.01445 530.812 4.02755L546.965 4.10666Z" fill="#FFCF25"/>
<path d="M577.965 4.10666C579.433 4.11385 580.761 4.97942 581.36 6.31959L594.761 36.2969C595.87 38.7775 594.047 41.575 591.329 41.5617L574.209 41.4779C572.704 41.4705 571.35 40.5617 570.773 39.1717L558.34 9.19908C557.315 6.72976 559.138 4.01445 561.812 4.02755L577.965 4.10666Z" fill="#FFCF25"/>
<path d="M577.965 4.10666C579.433 4.11385 580.761 4.97942 581.36 6.31959L594.761 36.2969C595.87 38.7775 594.047 41.575 591.329 41.5617L574.209 41.4779C572.704 41.4705 571.35 40.5617 570.773 39.1717L558.34 9.19908C557.315 6.72976 559.138 4.01445 561.812 4.02755L577.965 4.10666Z" fill="#FFCF25"/>
<path d="M577.965 4.10666C579.433 4.11385 580.761 4.97942 581.36 6.31959L594.761 36.2969C595.87 38.7775 594.047 41.575 591.329 41.5617L574.209 41.4779C572.704 41.4705 571.35 40.5617 570.773 39.1717L558.34 9.19908C557.315 6.72976 559.138 4.01445 561.812 4.02755L577.965 4.10666Z" fill="#FFCF25"/>
<path d="M608.965 4.10666C610.433 4.11385 611.761 4.97942 612.36 6.31959L625.761 36.2969C626.87 38.7775 625.047 41.575 622.329 41.5617L605.209 41.4779C603.704 41.4705 602.35 40.5617 601.773 39.1717L589.34 9.19908C588.315 6.72976 590.138 4.01445 592.812 4.02755L608.965 4.10666Z" fill="#FFCF25"/>
<path d="M608.965 4.10666C610.433 4.11385 611.761 4.97942 612.36 6.31959L625.761 36.2969C626.87 38.7775 625.047 41.575 622.329 41.5617L605.209 41.4779C603.704 41.4705 602.35 40.5617 601.773 39.1717L589.34 9.19908C588.315 6.72976 590.138 4.01445 592.812 4.02755L608.965 4.10666Z" fill="#FFCF25"/>
<path d="M608.965 4.10666C610.433 4.11385 611.761 4.97942 612.36 6.31959L625.761 36.2969C626.87 38.7775 625.047 41.575 622.329 41.5617L605.209 41.4779C603.704 41.4705 602.35 40.5617 601.773 39.1717L589.34 9.19908C588.315 6.72976 590.138 4.01445 592.812 4.02755L608.965 4.10666Z" fill="#FFCF25"/>
<path d="M638.965 4.10666C640.433 4.11385 641.761 4.97942 642.36 6.31959L655.761 36.2969C656.87 38.7775 655.047 41.575 652.329 41.5617L635.209 41.4779C633.704 41.4705 632.35 40.5617 631.773 39.1717L619.34 9.19908C618.315 6.72976 620.138 4.01445 622.812 4.02755L638.965 4.10666Z" fill="#FFCF25"/>
<path d="M638.965 4.10666C640.433 4.11385 641.761 4.97942 642.36 6.31959L655.761 36.2969C656.87 38.7775 655.047 41.575 652.329 41.5617L635.209 41.4779C633.704 41.4705 632.35 40.5617 631.773 39.1717L619.34 9.19908C618.315 6.72976 620.138 4.01445 622.812 4.02755L638.965 4.10666Z" fill="#FFCF25"/>
<path d="M638.965 4.10666C640.433 4.11385 641.761 4.97942 642.36 6.31959L655.761 36.2969C656.87 38.7775 655.047 41.575 652.329 41.5617L635.209 41.4779C633.704 41.4705 632.35 40.5617 631.773 39.1717L619.34 9.19908C618.315 6.72976 620.138 4.01445 622.812 4.02755L638.965 4.10666Z" fill="#FFCF25"/>
<path d="M669.965 4.10666C671.433 4.11385 672.761 4.97942 673.36 6.31959L686.761 36.2969C687.87 38.7775 686.047 41.575 683.329 41.5617L666.209 41.4779C664.704 41.4705 663.35 40.5617 662.773 39.1717L650.34 9.19908C649.315 6.72976 651.138 4.01445 653.812 4.02755L669.965 4.10666Z" fill="#FFCF25"/>
<path d="M669.965 4.10666C671.433 4.11385 672.761 4.97942 673.36 6.31959L686.761 36.2969C687.87 38.7775 686.047 41.575 683.329 41.5617L666.209 41.4779C664.704 41.4705 663.35 40.5617 662.773 39.1717L650.34 9.19908C649.315 6.72976 651.138 4.01445 653.812 4.02755L669.965 4.10666Z" fill="#FFCF25"/>
<path d="M669.965 4.10666C671.433 4.11385 672.761 4.97942 673.36 6.31959L686.761 36.2969C687.87 38.7775 686.047 41.575 683.329 41.5617L666.209 41.4779C664.704 41.4705 663.35 40.5617 662.773 39.1717L650.34 9.19908C649.315 6.72976 651.138 4.01445 653.812 4.02755L669.965 4.10666Z" fill="#FFCF25"/>
<path d="M700.965 4.10666C702.433 4.11385 703.761 4.97942 704.36 6.31959L717.761 36.2969C718.87 38.7775 717.047 41.575 714.329 41.5617L697.209 41.4779C695.704 41.4705 694.35 40.5617 693.773 39.1717L681.34 9.19908C680.315 6.72976 682.138 4.01445 684.812 4.02755L700.965 4.10666Z" fill="#FFCF25"/>
<path d="M700.965 4.10666C702.433 4.11385 703.761 4.97942 704.36 6.31959L717.761 36.2969C718.87 38.7775 717.047 41.575 714.329 41.5617L697.209 41.4779C695.704 41.4705 694.35 40.5617 693.773 39.1717L681.34 9.19908C680.315 6.72976 682.138 4.01445 684.812 4.02755L700.965 4.10666Z" fill="#FFCF25"/>
<path d="M700.965 4.10666C702.433 4.11385 703.761 4.97942 704.36 6.31959L717.761 36.2969C718.87 38.7775 717.047 41.575 714.329 41.5617L697.209 41.4779C695.704 41.4705 694.35 40.5617 693.773 39.1717L681.34 9.19908C680.315 6.72976 682.138 4.01445 684.812 4.02755L700.965 4.10666Z" fill="#FFCF25"/>
<path d="M731.965 4.10666C733.433 4.11385 734.761 4.97942 735.36 6.31959L748.761 36.2969C749.87 38.7775 748.047 41.575 745.329 41.5617L728.209 41.4779C726.704 41.4705 725.35 40.5617 724.773 39.1717L712.34 9.19908C711.315 6.72976 713.138 4.01445 715.812 4.02755L731.965 4.10666Z" fill="#FFCF25"/>
<path d="M731.965 4.10666C733.433 4.11385 734.761 4.97942 735.36 6.31959L748.761 36.2969C749.87 38.7775 748.047 41.575 745.329 41.5617L728.209 41.4779C726.704 41.4705 725.35 40.5617 724.773 39.1717L712.34 9.19908C711.315 6.72976 713.138 4.01445 715.812 4.02755L731.965 4.10666Z" fill="#FFCF25"/>
<path d="M731.965 4.10666C733.433 4.11385 734.761 4.97942 735.36 6.31959L748.761 36.2969C749.87 38.7775 748.047 41.575 745.329 41.5617L728.209 41.4779C726.704 41.4705 725.35 40.5617 724.773 39.1717L712.34 9.19908C711.315 6.72976 713.138 4.01445 715.812 4.02755L731.965 4.10666Z" fill="#FFCF25"/>
<path d="M269.965 4.10666C271.433 4.11385 272.761 4.97942 273.36 6.31959L286.761 36.2969C287.87 38.7775 286.047 41.575 283.329 41.5617L266.209 41.4779C264.704 41.4705 263.35 40.5617 262.773 39.1717L250.34 9.19908C249.315 6.72976 251.138 4.01445 253.812 4.02755L269.965 4.10666Z" fill="#FFCF25"/>
<path d="M269.965 4.10666C271.433 4.11385 272.761 4.97942 273.36 6.31959L286.761 36.2969C287.87 38.7775 286.047 41.575 283.329 41.5617L266.209 41.4779C264.704 41.4705 263.35 40.5617 262.773 39.1717L250.34 9.19908C249.315 6.72976 251.138 4.01445 253.812 4.02755L269.965 4.10666Z" fill="#FFCF25"/>
<path d="M269.965 4.10666C271.433 4.11385 272.761 4.97942 273.36 6.31959L286.761 36.2969C287.87 38.7775 286.047 41.575 283.329 41.5617L266.209 41.4779C264.704 41.4705 263.35 40.5617 262.773 39.1717L250.34 9.19908C249.315 6.72976 251.138 4.01445 253.812 4.02755L269.965 4.10666Z" fill="#FFCF25"/>
<path d="M300.965 4.10666C302.433 4.11385 303.761 4.97942 304.36 6.31959L317.761 36.2969C318.87 38.7775 317.047 41.575 314.329 41.5617L297.209 41.4779C295.704 41.4705 294.35 40.5617 293.773 39.1717L281.34 9.19908C280.315 6.72976 282.138 4.01445 284.812 4.02755L300.965 4.10666Z" fill="#FFCF25"/>
<path d="M300.965 4.10666C302.433 4.11385 303.761 4.97942 304.36 6.31959L317.761 36.2969C318.87 38.7775 317.047 41.575 314.329 41.5617L297.209 41.4779C295.704 41.4705 294.35 40.5617 293.773 39.1717L281.34 9.19908C280.315 6.72976 282.138 4.01445 284.812 4.02755L300.965 4.10666Z" fill="#FFCF25"/>
<path d="M300.965 4.10666C302.433 4.11385 303.761 4.97942 304.36 6.31959L317.761 36.2969C318.87 38.7775 317.047 41.575 314.329 41.5617L297.209 41.4779C295.704 41.4705 294.35 40.5617 293.773 39.1717L281.34 9.19908C280.315 6.72976 282.138 4.01445 284.812 4.02755L300.965 4.10666Z" fill="#FFCF25"/>
<path d="M330.965 4.10666C332.433 4.11385 333.761 4.97942 334.36 6.31959L347.761 36.2969C348.87 38.7775 347.047 41.575 344.329 41.5617L327.209 41.4779C325.704 41.4705 324.35 40.5617 323.773 39.1717L311.34 9.19908C310.315 6.72976 312.138 4.01445 314.812 4.02755L330.965 4.10666Z" fill="#FFCF25"/>
<path d="M330.965 4.10666C332.433 4.11385 333.761 4.97942 334.36 6.31959L347.761 36.2969C348.87 38.7775 347.047 41.575 344.329 41.5617L327.209 41.4779C325.704 41.4705 324.35 40.5617 323.773 39.1717L311.34 9.19908C310.315 6.72976 312.138 4.01445 314.812 4.02755L330.965 4.10666Z" fill="#FFCF25"/>
<path d="M330.965 4.10666C332.433 4.11385 333.761 4.97942 334.36 6.31959L347.761 36.2969C348.87 38.7775 347.047 41.575 344.329 41.5617L327.209 41.4779C325.704 41.4705 324.35 40.5617 323.773 39.1717L311.34 9.19908C310.315 6.72976 312.138 4.01445 314.812 4.02755L330.965 4.10666Z" fill="#FFCF25"/>
<path d="M361.965 4.10666C363.433 4.11385 364.761 4.97942 365.36 6.31959L378.761 36.2969C379.87 38.7775 378.047 41.575 375.329 41.5617L358.209 41.4779C356.704 41.4705 355.35 40.5617 354.773 39.1717L342.34 9.19908C341.315 6.72976 343.138 4.01445 345.812 4.02755L361.965 4.10666Z" fill="#FFCF25"/>
<path d="M361.965 4.10666C363.433 4.11385 364.761 4.97942 365.36 6.31959L378.761 36.2969C379.87 38.7775 378.047 41.575 375.329 41.5617L358.209 41.4779C356.704 41.4705 355.35 40.5617 354.773 39.1717L342.34 9.19908C341.315 6.72976 343.138 4.01445 345.812 4.02755L361.965 4.10666Z" fill="#FFCF25"/>
<path d="M361.965 4.10666C363.433 4.11385 364.761 4.97942 365.36 6.31959L378.761 36.2969C379.87 38.7775 378.047 41.575 375.329 41.5617L358.209 41.4779C356.704 41.4705 355.35 40.5617 354.773 39.1717L342.34 9.19908C341.315 6.72976 343.138 4.01445 345.812 4.02755L361.965 4.10666Z" fill="#FFCF25"/>
<path d="M392.965 4.10666C394.433 4.11385 395.761 4.97942 396.36 6.31959L409.761 36.2969C410.87 38.7775 409.047 41.575 406.329 41.5617L389.209 41.4779C387.704 41.4705 386.35 40.5617 385.773 39.1717L373.34 9.19908C372.315 6.72976 374.138 4.01445 376.812 4.02755L392.965 4.10666Z" fill="#FFCF25"/>
<path d="M392.965 4.10666C394.433 4.11385 395.761 4.97942 396.36 6.31959L409.761 36.2969C410.87 38.7775 409.047 41.575 406.329 41.5617L389.209 41.4779C387.704 41.4705 386.35 40.5617 385.773 39.1717L373.34 9.19908C372.315 6.72976 374.138 4.01445 376.812 4.02755L392.965 4.10666Z" fill="#FFCF25"/>
<path d="M392.965 4.10666C394.433 4.11385 395.761 4.97942 396.36 6.31959L409.761 36.2969C410.87 38.7775 409.047 41.575 406.329 41.5617L389.209 41.4779C387.704 41.4705 386.35 40.5617 385.773 39.1717L373.34 9.19908C372.315 6.72976 374.138 4.01445 376.812 4.02755L392.965 4.10666Z" fill="#FFCF25"/>
<path d="M423.965 4.10666C425.433 4.11385 426.761 4.97942 427.36 6.31959L440.761 36.2969C441.87 38.7775 440.047 41.575 437.329 41.5617L420.209 41.4779C418.704 41.4705 417.35 40.5617 416.773 39.1717L404.34 9.19908C403.315 6.72976 405.138 4.01445 407.812 4.02755L423.965 4.10666Z" fill="#FFCF25"/>
<path d="M423.965 4.10666C425.433 4.11385 426.761 4.97942 427.36 6.31959L440.761 36.2969C441.87 38.7775 440.047 41.575 437.329 41.5617L420.209 41.4779C418.704 41.4705 417.35 40.5617 416.773 39.1717L404.34 9.19908C403.315 6.72976 405.138 4.01445 407.812 4.02755L423.965 4.10666Z" fill="#FFCF25"/>
<path d="M423.965 4.10666C425.433 4.11385 426.761 4.97942 427.36 6.31959L440.761 36.2969C441.87 38.7775 440.047 41.575 437.329 41.5617L420.209 41.4779C418.704 41.4705 417.35 40.5617 416.773 39.1717L404.34 9.19908C403.315 6.72976 405.138 4.01445 407.812 4.02755L423.965 4.10666Z" fill="#FFCF25"/>
<path d="M453.965 4.10666C455.433 4.11385 456.761 4.97942 457.36 6.31959L470.761 36.2969C471.87 38.7775 470.047 41.575 467.329 41.5617L450.209 41.4779C448.704 41.4705 447.35 40.5617 446.773 39.1717L434.34 9.19908C433.315 6.72976 435.138 4.01445 437.812 4.02755L453.965 4.10666Z" fill="#FFCF25"/>
<path d="M453.965 4.10666C455.433 4.11385 456.761 4.97942 457.36 6.31959L470.761 36.2969C471.87 38.7775 470.047 41.575 467.329 41.5617L450.209 41.4779C448.704 41.4705 447.35 40.5617 446.773 39.1717L434.34 9.19908C433.315 6.72976 435.138 4.01445 437.812 4.02755L453.965 4.10666Z" fill="#FFCF25"/>
<path d="M453.965 4.10666C455.433 4.11385 456.761 4.97942 457.36 6.31959L470.761 36.2969C471.87 38.7775 470.047 41.575 467.329 41.5617L450.209 41.4779C448.704 41.4705 447.35 40.5617 446.773 39.1717L434.34 9.19908C433.315 6.72976 435.138 4.01445 437.812 4.02755L453.965 4.10666Z" fill="#FFCF25"/>
<path d="M484.965 4.10666C486.433 4.11385 487.761 4.97942 488.36 6.31959L501.761 36.2969C502.87 38.7775 501.047 41.575 498.329 41.5617L481.209 41.4779C479.704 41.4705 478.35 40.5617 477.773 39.1717L465.34 9.19908C464.315 6.72976 466.138 4.01445 468.812 4.02755L484.965 4.10666Z" fill="#FFCF25"/>
<path d="M484.965 4.10666C486.433 4.11385 487.761 4.97942 488.36 6.31959L501.761 36.2969C502.87 38.7775 501.047 41.575 498.329 41.5617L481.209 41.4779C479.704 41.4705 478.35 40.5617 477.773 39.1717L465.34 9.19908C464.315 6.72976 466.138 4.01445 468.812 4.02755L484.965 4.10666Z" fill="#FFCF25"/>
<path d="M484.965 4.10666C486.433 4.11385 487.761 4.97942 488.36 6.31959L501.761 36.2969C502.87 38.7775 501.047 41.575 498.329 41.5617L481.209 41.4779C479.704 41.4705 478.35 40.5617 477.773 39.1717L465.34 9.19908C464.315 6.72976 466.138 4.01445 468.812 4.02755L484.965 4.10666Z" fill="#FFCF25"/>
</g>
<defs>
<clipPath id="clip0_0_3819">
<path d="M711.816 4.23047L711.633 41.6192L18.6891 38.2252C11.7003 38.191 8.20586 38.1739 5.6104 36.6584C3.91004 35.6656 2.50104 34.2427 1.52491 32.5327C0.0349282 29.9225 0.0520435 26.4281 0.0862741 19.4393C0.120505 12.4505 0.13762 8.95606 1.6531 6.3606C2.64593 4.66028 4.06881 3.25125 5.77881 2.27514C8.38898 0.785145 11.8834 0.80226 18.8722 0.836491L711.816 4.23047Z" fill="white"/>
</clipPath>
</defs>
</svg>
