<svg width="346" height="351" viewBox="0 0 346 351" fill="none" xmlns="http://www.w3.org/2000/svg">
<g filter="url(#filter0_f_0_565)">
<ellipse cx="173.038" cy="245.177" rx="93.2278" ry="26.0247" fill="#BDBABA" fill-opacity="0.77"/>
</g>
<g clip-path="url(#clip0_0_565)" filter="url(#filter1_dd_0_565)">
<rect width="114.059" height="145.607" transform="matrix(0.978574 0.205894 -0.502294 0.864697 200.386 81.4517)" fill="url(#paint0_linear_0_565)"/>
<g filter="url(#filter2_d_0_565)">
<path fill-rule="evenodd" clip-rule="evenodd" d="M312.001 104.936L200.386 81.4517L127.249 207.357L238.864 230.841L312.001 104.936ZM212.676 89.9248C206.774 88.683 199.534 91.9041 196.504 97.1193L140.432 193.647C137.403 198.862 139.732 204.096 145.634 205.338L226.574 222.368C232.476 223.61 239.716 220.389 242.746 215.174L298.818 118.646C301.847 113.431 299.519 108.197 293.617 106.955L212.676 89.9248Z" fill="white"/>
</g>
<g filter="url(#filter3_d_0_565)">
<path d="M244.37 146.216C247.21 151.126 243.484 158.008 236.578 161.186L212.692 172.13C211.189 172.852 209.498 172.496 209.069 171.368L201.716 153.851C199.605 148.775 203.815 141.995 211.119 139.22C217.489 136.808 223.719 138.837 225.596 143.384L226.379 145.146L228.736 144.045C234.991 141.209 241.884 141.941 244.37 146.216Z" fill="url(#paint1_linear_0_565)"/>
</g>
</g>
<g clip-path="url(#clip1_0_565)" filter="url(#filter4_dd_0_565)">
<rect width="114.059" height="145.607" transform="matrix(0.949096 -0.314987 0.387033 0.922066 41 51.9269)" fill="url(#paint2_linear_0_565)"/>
<g filter="url(#filter5_d_0_565)">
<path fill-rule="evenodd" clip-rule="evenodd" d="M149.253 16L41 51.9269L97.3546 186.186L205.607 150.259L149.253 16ZM58.2236 52.5843C52.4994 54.484 49.7513 60.5323 52.0856 66.0935L95.2907 169.025C97.625 174.587 104.158 177.555 109.882 175.655L188.384 149.602C194.108 147.702 196.856 141.654 194.522 136.092L151.317 33.1605C148.983 27.5993 142.45 24.6311 136.726 26.5309L58.2236 52.5843Z" fill="white"/>
</g>
<g filter="url(#filter6_d_0_565)">
<path d="M133.667 81.267C140.306 83.7316 143.598 90.9379 141.072 96.7899L132.294 116.992C131.771 118.29 130.131 118.834 128.78 118.159L107.261 108.011C101.041 105.062 98.2182 97.6999 101.418 91.97C104.216 86.9785 110.905 85.5364 116.466 88.1861L118.664 89.1853L119.511 87.1754C121.837 81.9082 127.876 79.1262 133.667 81.267Z" fill="url(#paint3_linear_0_565)"/>
</g>
</g>
<defs>
<filter id="filter0_f_0_565" x="0.484589" y="139.826" width="345.107" height="210.701" filterUnits="userSpaceOnUse" color-interpolation-filters="sRGB">
<feFlood flood-opacity="0" result="BackgroundImageFix"/>
<feBlend mode="normal" in="SourceGraphic" in2="BackgroundImageFix" result="shape"/>
<feGaussianBlur stdDeviation="39.663" result="effect1_foregroundBlur_0_565"/>
</filter>
<filter id="filter1_dd_0_565" x="110.908" y="66.4298" width="209.261" height="173.24" filterUnits="userSpaceOnUse" color-interpolation-filters="sRGB">
<feFlood flood-opacity="0" result="BackgroundImageFix"/>
<feColorMatrix in="SourceAlpha" type="matrix" values="0 0 0 0 0 0 0 0 0 0 0 0 0 0 0 0 0 0 127 0" result="hardAlpha"/>
<feOffset dx="-4.61197" dy="-3.29427"/>
<feGaussianBlur stdDeviation="5.8638"/>
<feComposite in2="hardAlpha" operator="out"/>
<feColorMatrix type="matrix" values="0 0 0 0 0.922969 0 0 0 0 0.920293 0 0 0 0 0.920293 0 0 0 1 0"/>
<feBlend mode="normal" in2="BackgroundImageFix" result="effect1_dropShadow_0_565"/>
<feColorMatrix in="SourceAlpha" type="matrix" values="0 0 0 0 0 0 0 0 0 0 0 0 0 0 0 0 0 0 127 0" result="hardAlpha"/>
<feOffset dx="1.97656" dy="2.63541"/>
<feGaussianBlur stdDeviation="3.09661"/>
<feComposite in2="hardAlpha" operator="out"/>
<feColorMatrix type="matrix" values="0 0 0 0 0.921569 0 0 0 0 0.921569 0 0 0 0 0.921569 0 0 0 0.31 0"/>
<feBlend mode="normal" in2="effect1_dropShadow_0_565" result="effect2_dropShadow_0_565"/>
<feBlend mode="normal" in="SourceGraphic" in2="effect2_dropShadow_0_565" result="shape"/>
</filter>
<filter id="filter2_d_0_565" x="125.631" y="79.8338" width="188.797" height="153.434" filterUnits="userSpaceOnUse" color-interpolation-filters="sRGB">
<feFlood flood-opacity="0" result="BackgroundImageFix"/>
<feColorMatrix in="SourceAlpha" type="matrix" values="0 0 0 0 0 0 0 0 0 0 0 0 0 0 0 0 0 0 127 0" result="hardAlpha"/>
<feOffset dx="0.404463" dy="0.404463"/>
<feGaussianBlur stdDeviation="1.01116"/>
<feColorMatrix type="matrix" values="0 0 0 0 0 0 0 0 0 0 0 0 0 0 0 0 0 0 0.25 0"/>
<feBlend mode="overlay" in2="BackgroundImageFix" result="effect1_dropShadow_0_565"/>
<feBlend mode="normal" in="SourceGraphic" in2="effect1_dropShadow_0_565" result="shape"/>
</filter>
<filter id="filter3_d_0_565" x="177.19" y="125.223" width="85.1079" height="67.8077" filterUnits="userSpaceOnUse" color-interpolation-filters="sRGB">
<feFlood flood-opacity="0" result="BackgroundImageFix"/>
<feColorMatrix in="SourceAlpha" type="matrix" values="0 0 0 0 0 0 0 0 0 0 0 0 0 0 0 0 0 0 127 0" result="hardAlpha"/>
<feOffset dy="2.63541"/>
<feGaussianBlur stdDeviation="5.66614"/>
<feComposite in2="hardAlpha" operator="out"/>
<feColorMatrix type="matrix" values="0 0 0 0 0.982523 0 0 0 0 0.515133 0 0 0 0 0.65599 0 0 0 1 0"/>
<feBlend mode="normal" in2="BackgroundImageFix" result="effect1_dropShadow_0_565"/>
<feBlend mode="normal" in="SourceGraphic" in2="effect1_dropShadow_0_565" result="shape"/>
</filter>
<filter id="filter4_dd_0_565" x="24.6604" y="0.978141" width="189.116" height="194.036" filterUnits="userSpaceOnUse" color-interpolation-filters="sRGB">
<feFlood flood-opacity="0" result="BackgroundImageFix"/>
<feColorMatrix in="SourceAlpha" type="matrix" values="0 0 0 0 0 0 0 0 0 0 0 0 0 0 0 0 0 0 127 0" result="hardAlpha"/>
<feOffset dx="-4.61197" dy="-3.29427"/>
<feGaussianBlur stdDeviation="5.8638"/>
<feComposite in2="hardAlpha" operator="out"/>
<feColorMatrix type="matrix" values="0 0 0 0 0.922969 0 0 0 0 0.920293 0 0 0 0 0.920293 0 0 0 1 0"/>
<feBlend mode="normal" in2="BackgroundImageFix" result="effect1_dropShadow_0_565"/>
<feColorMatrix in="SourceAlpha" type="matrix" values="0 0 0 0 0 0 0 0 0 0 0 0 0 0 0 0 0 0 127 0" result="hardAlpha"/>
<feOffset dx="1.97656" dy="2.63541"/>
<feGaussianBlur stdDeviation="3.09661"/>
<feComposite in2="hardAlpha" operator="out"/>
<feColorMatrix type="matrix" values="0 0 0 0 0.921569 0 0 0 0 0.921569 0 0 0 0 0.921569 0 0 0 0.31 0"/>
<feBlend mode="normal" in2="effect1_dropShadow_0_565" result="effect2_dropShadow_0_565"/>
<feBlend mode="normal" in="SourceGraphic" in2="effect2_dropShadow_0_565" result="shape"/>
</filter>
<filter id="filter5_d_0_565" x="39.3821" y="14.3821" width="168.652" height="174.23" filterUnits="userSpaceOnUse" color-interpolation-filters="sRGB">
<feFlood flood-opacity="0" result="BackgroundImageFix"/>
<feColorMatrix in="SourceAlpha" type="matrix" values="0 0 0 0 0 0 0 0 0 0 0 0 0 0 0 0 0 0 127 0" result="hardAlpha"/>
<feOffset dx="0.404463" dy="0.404463"/>
<feGaussianBlur stdDeviation="1.01116"/>
<feColorMatrix type="matrix" values="0 0 0 0 0 0 0 0 0 0 0 0 0 0 0 0 0 0 0.25 0"/>
<feBlend mode="overlay" in2="BackgroundImageFix" result="effect1_dropShadow_0_565"/>
<feBlend mode="normal" in="SourceGraphic" in2="effect1_dropShadow_0_565" result="shape"/>
</filter>
<filter id="filter6_d_0_565" x="81.8334" y="64.1553" width="83.7481" height="79.5705" filterUnits="userSpaceOnUse" color-interpolation-filters="sRGB">
<feFlood flood-opacity="0" result="BackgroundImageFix"/>
<feColorMatrix in="SourceAlpha" type="matrix" values="0 0 0 0 0 0 0 0 0 0 0 0 0 0 0 0 0 0 127 0" result="hardAlpha"/>
<feOffset dy="2.63541"/>
<feGaussianBlur stdDeviation="6.85208"/>
<feComposite in2="hardAlpha" operator="out"/>
<feColorMatrix type="matrix" values="0 0 0 0 0.225257 0 0 0 0 0.788755 0 0 0 0 0.923995 0 0 0 1 0"/>
<feBlend mode="normal" in2="BackgroundImageFix" result="effect1_dropShadow_0_565"/>
<feBlend mode="normal" in="SourceGraphic" in2="effect1_dropShadow_0_565" result="shape"/>
</filter>
<linearGradient id="paint0_linear_0_565" x1="57.0293" y1="0" x2="57.0293" y2="145.607" gradientUnits="userSpaceOnUse">
<stop stop-color="#FBA8C1"/>
<stop offset="0.46" stop-color="#FBA8C1" stop-opacity="0.54"/>
<stop offset="1" stop-color="#FBA8C1" stop-opacity="0.97"/>
</linearGradient>
<linearGradient id="paint1_linear_0_565" x1="229.01" y1="140.539" x2="190.43" y2="323.904" gradientUnits="userSpaceOnUse">
<stop stop-color="white"/>
<stop offset="1" stop-color="#FF5E8E" stop-opacity="0"/>
</linearGradient>
<linearGradient id="paint2_linear_0_565" x1="57.0293" y1="0" x2="57.0293" y2="145.607" gradientUnits="userSpaceOnUse">
<stop stop-color="#A2E3F3"/>
<stop offset="0.46" stop-color="#A2E3F3" stop-opacity="0.29"/>
<stop offset="1" stop-color="#A2E3F3"/>
</linearGradient>
<linearGradient id="paint3_linear_0_565" x1="116.567" y1="84.295" x2="178.538" y2="271.022" gradientUnits="userSpaceOnUse">
<stop stop-color="white"/>
<stop offset="0.190891" stop-color="#A2E3F3"/>
</linearGradient>
<clipPath id="clip0_0_565">
<rect width="114.059" height="145.607" fill="white" transform="matrix(0.978574 0.205894 -0.502294 0.864697 200.385 81.4517)"/>
</clipPath>
<clipPath id="clip1_0_565">
<rect width="114.059" height="145.607" fill="white" transform="matrix(0.949096 -0.314987 0.387033 0.922066 41 51.9269)"/>
</clipPath>
</defs>
</svg>
