<svg width="723" height="131" viewBox="0 0 723 131" fill="none" xmlns="http://www.w3.org/2000/svg">
<mask id="path-1-outside-1_0_1730" maskUnits="userSpaceOnUse" x="23" y="21" width="680" height="85" fill="black">
<rect fill="white" x="23" y="21" width="680" height="85"/>
<path d="M37.884 97.864C35.452 97.864 33.596 97.192 32.316 95.848C31.036 94.504 30.396 92.616 30.396 90.184V36.136C30.396 33.704 31.036 31.816 32.316 30.472C33.596 29.128 35.452 28.456 37.884 28.456C40.252 28.456 42.076 29.128 43.356 30.472C44.636 31.816 45.276 33.704 45.276 36.136V90.184C45.276 92.616 44.636 94.504 43.356 95.848C42.14 97.192 40.316 97.864 37.884 97.864ZM88.464 98.056C84.048 98.056 80.336 97.32 77.328 95.848C74.384 94.376 72.176 92.232 70.704 89.416C69.296 86.6 68.592 83.048 68.592 78.76V60.712H64.56C62.768 60.712 61.36 60.232 60.336 59.272C59.376 58.312 58.896 57 58.896 55.336C58.896 53.544 59.376 52.2 60.336 51.304C61.36 50.344 62.768 49.864 64.56 49.864H68.592V42.568C68.592 40.136 69.232 38.312 70.512 37.096C71.792 35.816 73.584 35.176 75.888 35.176C78.256 35.176 80.048 35.816 81.264 37.096C82.48 38.312 83.088 40.136 83.088 42.568V49.864H92.208C94 49.864 95.376 50.344 96.336 51.304C97.296 52.2 97.776 53.544 97.776 55.336C97.776 57 97.296 58.312 96.336 59.272C95.376 60.232 94 60.712 92.208 60.712H83.088V78.184C83.088 80.872 83.696 82.888 84.912 84.232C86.192 85.576 88.208 86.248 90.96 86.248C91.92 86.248 92.816 86.152 93.648 85.96C94.48 85.768 95.248 85.64 95.952 85.576C96.848 85.512 97.584 85.8 98.16 86.44C98.736 87.016 99.024 88.328 99.024 90.376C99.024 91.912 98.768 93.256 98.256 94.408C97.744 95.56 96.848 96.392 95.568 96.904C94.736 97.224 93.584 97.48 92.112 97.672C90.704 97.928 89.488 98.056 88.464 98.056ZM121.03 55.528C120.07 56.744 119.046 57.416 117.958 57.544C116.87 57.672 115.91 57.48 115.078 56.968C114.31 56.392 113.894 55.56 113.83 54.472C113.766 53.384 114.246 52.232 115.27 51.016C116.678 49.288 117.638 47.56 118.15 45.832C118.662 44.104 118.918 42.568 118.918 41.224L119.398 45.16C116.838 45.16 114.758 44.424 113.158 42.952C111.558 41.48 110.758 39.496 110.758 37C110.758 34.568 111.494 32.616 112.966 31.144C114.438 29.608 116.454 28.84 119.014 28.84C121.638 28.84 123.686 29.704 125.158 31.432C126.63 33.16 127.366 35.624 127.366 38.824C127.366 40.488 127.206 42.216 126.886 44.008C126.566 45.736 125.958 47.56 125.062 49.48C124.166 51.336 122.822 53.352 121.03 55.528ZM160.142 98.056C157.326 98.056 154.414 97.8 151.406 97.288C148.462 96.776 145.774 95.912 143.342 94.696C142.062 94.056 141.134 93.256 140.558 92.296C140.046 91.272 139.822 90.248 139.886 89.224C139.95 88.2 140.27 87.272 140.846 86.44C141.486 85.608 142.286 85.064 143.246 84.808C144.27 84.488 145.39 84.584 146.606 85.096C149.23 86.184 151.63 86.952 153.806 87.4C155.982 87.848 158.126 88.072 160.238 88.072C162.99 88.072 164.974 87.656 166.19 86.824C167.47 85.928 168.11 84.776 168.11 83.368C168.11 82.088 167.694 81.128 166.862 80.488C166.03 79.848 164.814 79.4 163.214 79.144L153.134 77.32C149.166 76.616 146.094 75.176 143.918 73C141.806 70.76 140.75 67.912 140.75 64.456C140.75 61.256 141.646 58.504 143.438 56.2C145.23 53.832 147.694 52.04 150.83 50.824C154.03 49.544 157.646 48.904 161.678 48.904C164.558 48.904 167.214 49.16 169.646 49.672C172.078 50.184 174.414 51.016 176.654 52.168C177.806 52.744 178.606 53.512 179.054 54.472C179.566 55.432 179.726 56.424 179.534 57.448C179.406 58.472 179.022 59.4 178.382 60.232C177.742 61.064 176.91 61.608 175.886 61.864C174.926 62.12 173.806 61.992 172.526 61.48C170.478 60.52 168.59 59.848 166.862 59.464C165.134 59.016 163.47 58.792 161.87 58.792C158.99 58.792 156.91 59.272 155.63 60.232C154.35 61.128 153.71 62.28 153.71 63.688C153.71 64.776 154.062 65.704 154.766 66.472C155.534 67.176 156.686 67.656 158.222 67.912L168.302 69.736C172.462 70.44 175.63 71.848 177.806 73.96C179.982 76.008 181.07 78.824 181.07 82.408C181.07 87.272 179.15 91.112 175.31 93.928C171.534 96.68 166.478 98.056 160.142 98.056ZM247.453 98.056C243.997 98.056 240.893 97.384 238.141 96.04C235.389 94.696 233.245 92.872 231.709 90.568C230.173 88.264 229.405 85.672 229.405 82.792C229.405 79.336 230.301 76.616 232.093 74.632C233.885 72.584 236.797 71.144 240.829 70.312C244.861 69.416 250.205 68.968 256.861 68.968H261.949V76.456H256.957C253.693 76.456 251.037 76.648 248.989 77.032C247.005 77.352 245.565 77.928 244.669 78.76C243.837 79.592 243.421 80.744 243.421 82.216C243.421 84.008 244.029 85.48 245.245 86.632C246.525 87.784 248.349 88.36 250.717 88.36C252.573 88.36 254.205 87.944 255.613 87.112C257.085 86.216 258.237 85.032 259.069 83.56C259.901 82.024 260.317 80.296 260.317 78.376V67.336C260.317 64.52 259.677 62.536 258.397 61.384C257.117 60.168 254.941 59.56 251.869 59.56C250.141 59.56 248.253 59.784 246.205 60.232C244.221 60.616 242.013 61.288 239.581 62.248C238.173 62.888 236.925 63.048 235.837 62.728C234.749 62.344 233.917 61.704 233.341 60.808C232.765 59.848 232.477 58.824 232.477 57.736C232.477 56.584 232.797 55.496 233.437 54.472C234.077 53.384 235.133 52.584 236.605 52.072C239.613 50.856 242.429 50.024 245.053 49.576C247.741 49.128 250.205 48.904 252.445 48.904C257.373 48.904 261.405 49.64 264.541 51.112C267.741 52.52 270.141 54.728 271.741 57.736C273.341 60.68 274.141 64.488 274.141 69.16V90.472C274.141 92.84 273.565 94.664 272.413 95.944C271.261 97.224 269.597 97.864 267.421 97.864C265.245 97.864 263.549 97.224 262.333 95.944C261.181 94.664 260.605 92.84 260.605 90.472V86.92L261.277 87.496C260.893 89.672 260.061 91.56 258.781 93.16C257.565 94.696 255.997 95.912 254.077 96.808C252.157 97.64 249.949 98.056 247.453 98.056ZM334.615 97.864C332.247 97.864 330.423 97.224 329.143 95.944C327.927 94.664 327.319 92.84 327.319 90.472V56.392C327.319 54.024 327.927 52.232 329.143 51.016C330.423 49.736 332.183 49.096 334.423 49.096C336.727 49.096 338.487 49.736 339.703 51.016C340.919 52.232 341.527 54.024 341.527 56.392V62.536L340.471 58.696C341.751 55.752 343.735 53.384 346.423 51.592C349.111 49.8 352.279 48.904 355.927 48.904C359.575 48.904 362.615 49.768 365.047 51.496C367.479 53.224 369.207 55.88 370.231 59.464H368.887C370.295 56.2 372.439 53.64 375.319 51.784C378.263 49.864 381.623 48.904 385.399 48.904C389.047 48.904 392.023 49.64 394.327 51.112C396.695 52.52 398.455 54.696 399.607 57.64C400.759 60.52 401.335 64.2 401.335 68.68V90.472C401.335 92.84 400.695 94.664 399.415 95.944C398.199 97.224 396.439 97.864 394.135 97.864C391.767 97.864 389.943 97.224 388.663 95.944C387.447 94.664 386.839 92.84 386.839 90.472V69.16C386.839 66.024 386.327 63.752 385.303 62.344C384.343 60.872 382.679 60.136 380.311 60.136C377.559 60.136 375.415 61.096 373.879 63.016C372.343 64.936 371.575 67.656 371.575 71.176V90.472C371.575 92.84 370.935 94.664 369.655 95.944C368.439 97.224 366.679 97.864 364.375 97.864C362.071 97.864 360.279 97.224 358.999 95.944C357.719 94.664 357.079 92.84 357.079 90.472V69.16C357.079 66.024 356.567 63.752 355.543 62.344C354.583 60.872 352.919 60.136 350.551 60.136C347.799 60.136 345.655 61.096 344.119 63.016C342.583 64.936 341.815 67.656 341.815 71.176V90.472C341.815 95.4 339.415 97.864 334.615 97.864ZM436.055 98.056C432.599 98.056 429.495 97.384 426.743 96.04C423.991 94.696 421.847 92.872 420.311 90.568C418.775 88.264 418.007 85.672 418.007 82.792C418.007 79.336 418.903 76.616 420.695 74.632C422.487 72.584 425.399 71.144 429.431 70.312C433.463 69.416 438.807 68.968 445.463 68.968H450.551V76.456H445.559C442.295 76.456 439.639 76.648 437.591 77.032C435.607 77.352 434.167 77.928 433.271 78.76C432.439 79.592 432.023 80.744 432.023 82.216C432.023 84.008 432.631 85.48 433.847 86.632C435.127 87.784 436.951 88.36 439.319 88.36C441.175 88.36 442.807 87.944 444.215 87.112C445.687 86.216 446.839 85.032 447.671 83.56C448.503 82.024 448.919 80.296 448.919 78.376V67.336C448.919 64.52 448.279 62.536 446.999 61.384C445.719 60.168 443.543 59.56 440.471 59.56C438.743 59.56 436.855 59.784 434.807 60.232C432.823 60.616 430.615 61.288 428.183 62.248C426.775 62.888 425.527 63.048 424.439 62.728C423.351 62.344 422.519 61.704 421.943 60.808C421.367 59.848 421.079 58.824 421.079 57.736C421.079 56.584 421.399 55.496 422.039 54.472C422.679 53.384 423.735 52.584 425.207 52.072C428.215 50.856 431.031 50.024 433.655 49.576C436.343 49.128 438.807 48.904 441.047 48.904C445.975 48.904 450.007 49.64 453.143 51.112C456.343 52.52 458.743 54.728 460.343 57.736C461.943 60.68 462.743 64.488 462.743 69.16V90.472C462.743 92.84 462.167 94.664 461.015 95.944C459.863 97.224 458.199 97.864 456.023 97.864C453.847 97.864 452.151 97.224 450.935 95.944C449.783 94.664 449.207 92.84 449.207 90.472V86.92L449.879 87.496C449.495 89.672 448.663 91.56 447.383 93.16C446.167 94.696 444.599 95.912 442.679 96.808C440.759 97.64 438.551 98.056 436.055 98.056ZM504.373 98.056C499.957 98.056 496.245 97.32 493.237 95.848C490.293 94.376 488.085 92.232 486.613 89.416C485.205 86.6 484.501 83.048 484.501 78.76V60.712H480.469C478.677 60.712 477.269 60.232 476.245 59.272C475.285 58.312 474.805 57 474.805 55.336C474.805 53.544 475.285 52.2 476.245 51.304C477.269 50.344 478.677 49.864 480.469 49.864H484.501V42.568C484.501 40.136 485.141 38.312 486.421 37.096C487.701 35.816 489.493 35.176 491.797 35.176C494.165 35.176 495.957 35.816 497.173 37.096C498.389 38.312 498.997 40.136 498.997 42.568V49.864H508.117C509.909 49.864 511.285 50.344 512.245 51.304C513.205 52.2 513.685 53.544 513.685 55.336C513.685 57 513.205 58.312 512.245 59.272C511.285 60.232 509.909 60.712 508.117 60.712H498.997V78.184C498.997 80.872 499.605 82.888 500.821 84.232C502.101 85.576 504.117 86.248 506.869 86.248C507.829 86.248 508.725 86.152 509.557 85.96C510.389 85.768 511.157 85.64 511.861 85.576C512.757 85.512 513.493 85.8 514.069 86.44C514.645 87.016 514.933 88.328 514.933 90.376C514.933 91.912 514.677 93.256 514.165 94.408C513.653 95.56 512.757 96.392 511.477 96.904C510.645 97.224 509.493 97.48 508.021 97.672C506.613 97.928 505.397 98.056 504.373 98.056ZM550.205 98.056C545.085 98.056 540.605 97.064 536.765 95.08C532.989 93.032 530.077 90.152 528.029 86.44C525.981 82.728 524.957 78.344 524.957 73.288C524.957 69.512 525.533 66.12 526.685 63.112C527.837 60.104 529.501 57.544 531.677 55.432C533.917 53.32 536.605 51.72 539.741 50.632C542.877 49.48 546.365 48.904 550.205 48.904C552.189 48.904 554.301 49.16 556.541 49.672C558.781 50.12 560.989 50.92 563.165 52.072C564.445 52.648 565.309 53.48 565.757 54.568C566.269 55.592 566.461 56.68 566.333 57.832C566.205 58.92 565.789 59.912 565.085 60.808C564.445 61.64 563.613 62.216 562.589 62.536C561.565 62.792 560.413 62.6 559.133 61.96C557.917 61.256 556.637 60.744 555.293 60.424C554.013 60.104 552.797 59.944 551.645 59.944C549.725 59.944 548.029 60.264 546.557 60.904C545.085 61.48 543.837 62.344 542.813 63.496C541.853 64.584 541.085 65.96 540.509 67.624C539.997 69.288 539.741 71.208 539.741 73.384C539.741 77.608 540.765 80.936 542.813 83.368C544.925 85.736 547.869 86.92 551.645 86.92C552.797 86.92 554.013 86.792 555.293 86.536C556.573 86.216 557.853 85.704 559.133 85C560.413 84.36 561.565 84.2 562.589 84.52C563.613 84.84 564.413 85.448 564.989 86.344C565.629 87.176 565.981 88.168 566.045 89.32C566.173 90.408 565.981 91.496 565.469 92.584C565.021 93.608 564.189 94.408 562.973 94.984C560.797 96.072 558.621 96.84 556.445 97.288C554.269 97.8 552.189 98.056 550.205 98.056ZM588.08 97.864C585.712 97.864 583.888 97.224 582.608 95.944C581.392 94.664 580.784 92.84 580.784 90.472V35.848C580.784 33.416 581.392 31.592 582.608 30.376C583.888 29.096 585.712 28.456 588.08 28.456C590.384 28.456 592.144 29.096 593.36 30.376C594.64 31.592 595.28 33.416 595.28 35.848V58.696H593.936C595.408 55.56 597.584 53.16 600.464 51.496C603.408 49.768 606.736 48.904 610.448 48.904C614.224 48.904 617.328 49.64 619.76 51.112C622.192 52.52 624.016 54.696 625.232 57.64C626.448 60.52 627.056 64.2 627.056 68.68V90.472C627.056 92.84 626.416 94.664 625.136 95.944C623.92 97.224 622.128 97.864 619.76 97.864C617.456 97.864 615.664 97.224 614.384 95.944C613.168 94.664 612.56 92.84 612.56 90.472V69.352C612.56 66.088 611.952 63.752 610.736 62.344C609.584 60.872 607.792 60.136 605.36 60.136C602.288 60.136 599.824 61.096 597.968 63.016C596.176 64.936 595.28 67.496 595.28 70.696V90.472C595.28 95.4 592.88 97.864 588.08 97.864ZM687.059 76.168C685.587 76.168 684.435 75.72 683.603 74.824C682.771 73.928 682.259 72.616 682.067 70.888L678.995 38.056C678.675 35.176 679.219 32.872 680.627 31.144C682.035 29.352 684.179 28.456 687.059 28.456C689.811 28.456 691.891 29.352 693.299 31.144C694.707 32.872 695.251 35.176 694.931 38.056L691.859 70.888C691.667 72.616 691.155 73.928 690.323 74.824C689.555 75.72 688.467 76.168 687.059 76.168ZM687.059 97.48C684.499 97.48 682.451 96.712 680.915 95.176C679.443 93.64 678.707 91.656 678.707 89.224C678.707 86.856 679.443 84.936 680.915 83.464C682.451 81.928 684.499 81.16 687.059 81.16C689.619 81.16 691.603 81.928 693.011 83.464C694.483 84.936 695.219 86.856 695.219 89.224C695.219 91.656 694.483 93.64 693.011 95.176C691.603 96.712 689.619 97.48 687.059 97.48Z"/>
</mask>
<path d="M37.884 97.864C35.452 97.864 33.596 97.192 32.316 95.848C31.036 94.504 30.396 92.616 30.396 90.184V36.136C30.396 33.704 31.036 31.816 32.316 30.472C33.596 29.128 35.452 28.456 37.884 28.456C40.252 28.456 42.076 29.128 43.356 30.472C44.636 31.816 45.276 33.704 45.276 36.136V90.184C45.276 92.616 44.636 94.504 43.356 95.848C42.14 97.192 40.316 97.864 37.884 97.864ZM88.464 98.056C84.048 98.056 80.336 97.32 77.328 95.848C74.384 94.376 72.176 92.232 70.704 89.416C69.296 86.6 68.592 83.048 68.592 78.76V60.712H64.56C62.768 60.712 61.36 60.232 60.336 59.272C59.376 58.312 58.896 57 58.896 55.336C58.896 53.544 59.376 52.2 60.336 51.304C61.36 50.344 62.768 49.864 64.56 49.864H68.592V42.568C68.592 40.136 69.232 38.312 70.512 37.096C71.792 35.816 73.584 35.176 75.888 35.176C78.256 35.176 80.048 35.816 81.264 37.096C82.48 38.312 83.088 40.136 83.088 42.568V49.864H92.208C94 49.864 95.376 50.344 96.336 51.304C97.296 52.2 97.776 53.544 97.776 55.336C97.776 57 97.296 58.312 96.336 59.272C95.376 60.232 94 60.712 92.208 60.712H83.088V78.184C83.088 80.872 83.696 82.888 84.912 84.232C86.192 85.576 88.208 86.248 90.96 86.248C91.92 86.248 92.816 86.152 93.648 85.96C94.48 85.768 95.248 85.64 95.952 85.576C96.848 85.512 97.584 85.8 98.16 86.44C98.736 87.016 99.024 88.328 99.024 90.376C99.024 91.912 98.768 93.256 98.256 94.408C97.744 95.56 96.848 96.392 95.568 96.904C94.736 97.224 93.584 97.48 92.112 97.672C90.704 97.928 89.488 98.056 88.464 98.056ZM121.03 55.528C120.07 56.744 119.046 57.416 117.958 57.544C116.87 57.672 115.91 57.48 115.078 56.968C114.31 56.392 113.894 55.56 113.83 54.472C113.766 53.384 114.246 52.232 115.27 51.016C116.678 49.288 117.638 47.56 118.15 45.832C118.662 44.104 118.918 42.568 118.918 41.224L119.398 45.16C116.838 45.16 114.758 44.424 113.158 42.952C111.558 41.48 110.758 39.496 110.758 37C110.758 34.568 111.494 32.616 112.966 31.144C114.438 29.608 116.454 28.84 119.014 28.84C121.638 28.84 123.686 29.704 125.158 31.432C126.63 33.16 127.366 35.624 127.366 38.824C127.366 40.488 127.206 42.216 126.886 44.008C126.566 45.736 125.958 47.56 125.062 49.48C124.166 51.336 122.822 53.352 121.03 55.528ZM160.142 98.056C157.326 98.056 154.414 97.8 151.406 97.288C148.462 96.776 145.774 95.912 143.342 94.696C142.062 94.056 141.134 93.256 140.558 92.296C140.046 91.272 139.822 90.248 139.886 89.224C139.95 88.2 140.27 87.272 140.846 86.44C141.486 85.608 142.286 85.064 143.246 84.808C144.27 84.488 145.39 84.584 146.606 85.096C149.23 86.184 151.63 86.952 153.806 87.4C155.982 87.848 158.126 88.072 160.238 88.072C162.99 88.072 164.974 87.656 166.19 86.824C167.47 85.928 168.11 84.776 168.11 83.368C168.11 82.088 167.694 81.128 166.862 80.488C166.03 79.848 164.814 79.4 163.214 79.144L153.134 77.32C149.166 76.616 146.094 75.176 143.918 73C141.806 70.76 140.75 67.912 140.75 64.456C140.75 61.256 141.646 58.504 143.438 56.2C145.23 53.832 147.694 52.04 150.83 50.824C154.03 49.544 157.646 48.904 161.678 48.904C164.558 48.904 167.214 49.16 169.646 49.672C172.078 50.184 174.414 51.016 176.654 52.168C177.806 52.744 178.606 53.512 179.054 54.472C179.566 55.432 179.726 56.424 179.534 57.448C179.406 58.472 179.022 59.4 178.382 60.232C177.742 61.064 176.91 61.608 175.886 61.864C174.926 62.12 173.806 61.992 172.526 61.48C170.478 60.52 168.59 59.848 166.862 59.464C165.134 59.016 163.47 58.792 161.87 58.792C158.99 58.792 156.91 59.272 155.63 60.232C154.35 61.128 153.71 62.28 153.71 63.688C153.71 64.776 154.062 65.704 154.766 66.472C155.534 67.176 156.686 67.656 158.222 67.912L168.302 69.736C172.462 70.44 175.63 71.848 177.806 73.96C179.982 76.008 181.07 78.824 181.07 82.408C181.07 87.272 179.15 91.112 175.31 93.928C171.534 96.68 166.478 98.056 160.142 98.056ZM247.453 98.056C243.997 98.056 240.893 97.384 238.141 96.04C235.389 94.696 233.245 92.872 231.709 90.568C230.173 88.264 229.405 85.672 229.405 82.792C229.405 79.336 230.301 76.616 232.093 74.632C233.885 72.584 236.797 71.144 240.829 70.312C244.861 69.416 250.205 68.968 256.861 68.968H261.949V76.456H256.957C253.693 76.456 251.037 76.648 248.989 77.032C247.005 77.352 245.565 77.928 244.669 78.76C243.837 79.592 243.421 80.744 243.421 82.216C243.421 84.008 244.029 85.48 245.245 86.632C246.525 87.784 248.349 88.36 250.717 88.36C252.573 88.36 254.205 87.944 255.613 87.112C257.085 86.216 258.237 85.032 259.069 83.56C259.901 82.024 260.317 80.296 260.317 78.376V67.336C260.317 64.52 259.677 62.536 258.397 61.384C257.117 60.168 254.941 59.56 251.869 59.56C250.141 59.56 248.253 59.784 246.205 60.232C244.221 60.616 242.013 61.288 239.581 62.248C238.173 62.888 236.925 63.048 235.837 62.728C234.749 62.344 233.917 61.704 233.341 60.808C232.765 59.848 232.477 58.824 232.477 57.736C232.477 56.584 232.797 55.496 233.437 54.472C234.077 53.384 235.133 52.584 236.605 52.072C239.613 50.856 242.429 50.024 245.053 49.576C247.741 49.128 250.205 48.904 252.445 48.904C257.373 48.904 261.405 49.64 264.541 51.112C267.741 52.52 270.141 54.728 271.741 57.736C273.341 60.68 274.141 64.488 274.141 69.16V90.472C274.141 92.84 273.565 94.664 272.413 95.944C271.261 97.224 269.597 97.864 267.421 97.864C265.245 97.864 263.549 97.224 262.333 95.944C261.181 94.664 260.605 92.84 260.605 90.472V86.92L261.277 87.496C260.893 89.672 260.061 91.56 258.781 93.16C257.565 94.696 255.997 95.912 254.077 96.808C252.157 97.64 249.949 98.056 247.453 98.056ZM334.615 97.864C332.247 97.864 330.423 97.224 329.143 95.944C327.927 94.664 327.319 92.84 327.319 90.472V56.392C327.319 54.024 327.927 52.232 329.143 51.016C330.423 49.736 332.183 49.096 334.423 49.096C336.727 49.096 338.487 49.736 339.703 51.016C340.919 52.232 341.527 54.024 341.527 56.392V62.536L340.471 58.696C341.751 55.752 343.735 53.384 346.423 51.592C349.111 49.8 352.279 48.904 355.927 48.904C359.575 48.904 362.615 49.768 365.047 51.496C367.479 53.224 369.207 55.88 370.231 59.464H368.887C370.295 56.2 372.439 53.64 375.319 51.784C378.263 49.864 381.623 48.904 385.399 48.904C389.047 48.904 392.023 49.64 394.327 51.112C396.695 52.52 398.455 54.696 399.607 57.64C400.759 60.52 401.335 64.2 401.335 68.68V90.472C401.335 92.84 400.695 94.664 399.415 95.944C398.199 97.224 396.439 97.864 394.135 97.864C391.767 97.864 389.943 97.224 388.663 95.944C387.447 94.664 386.839 92.84 386.839 90.472V69.16C386.839 66.024 386.327 63.752 385.303 62.344C384.343 60.872 382.679 60.136 380.311 60.136C377.559 60.136 375.415 61.096 373.879 63.016C372.343 64.936 371.575 67.656 371.575 71.176V90.472C371.575 92.84 370.935 94.664 369.655 95.944C368.439 97.224 366.679 97.864 364.375 97.864C362.071 97.864 360.279 97.224 358.999 95.944C357.719 94.664 357.079 92.84 357.079 90.472V69.16C357.079 66.024 356.567 63.752 355.543 62.344C354.583 60.872 352.919 60.136 350.551 60.136C347.799 60.136 345.655 61.096 344.119 63.016C342.583 64.936 341.815 67.656 341.815 71.176V90.472C341.815 95.4 339.415 97.864 334.615 97.864ZM436.055 98.056C432.599 98.056 429.495 97.384 426.743 96.04C423.991 94.696 421.847 92.872 420.311 90.568C418.775 88.264 418.007 85.672 418.007 82.792C418.007 79.336 418.903 76.616 420.695 74.632C422.487 72.584 425.399 71.144 429.431 70.312C433.463 69.416 438.807 68.968 445.463 68.968H450.551V76.456H445.559C442.295 76.456 439.639 76.648 437.591 77.032C435.607 77.352 434.167 77.928 433.271 78.76C432.439 79.592 432.023 80.744 432.023 82.216C432.023 84.008 432.631 85.48 433.847 86.632C435.127 87.784 436.951 88.36 439.319 88.36C441.175 88.36 442.807 87.944 444.215 87.112C445.687 86.216 446.839 85.032 447.671 83.56C448.503 82.024 448.919 80.296 448.919 78.376V67.336C448.919 64.52 448.279 62.536 446.999 61.384C445.719 60.168 443.543 59.56 440.471 59.56C438.743 59.56 436.855 59.784 434.807 60.232C432.823 60.616 430.615 61.288 428.183 62.248C426.775 62.888 425.527 63.048 424.439 62.728C423.351 62.344 422.519 61.704 421.943 60.808C421.367 59.848 421.079 58.824 421.079 57.736C421.079 56.584 421.399 55.496 422.039 54.472C422.679 53.384 423.735 52.584 425.207 52.072C428.215 50.856 431.031 50.024 433.655 49.576C436.343 49.128 438.807 48.904 441.047 48.904C445.975 48.904 450.007 49.64 453.143 51.112C456.343 52.52 458.743 54.728 460.343 57.736C461.943 60.68 462.743 64.488 462.743 69.16V90.472C462.743 92.84 462.167 94.664 461.015 95.944C459.863 97.224 458.199 97.864 456.023 97.864C453.847 97.864 452.151 97.224 450.935 95.944C449.783 94.664 449.207 92.84 449.207 90.472V86.92L449.879 87.496C449.495 89.672 448.663 91.56 447.383 93.16C446.167 94.696 444.599 95.912 442.679 96.808C440.759 97.64 438.551 98.056 436.055 98.056ZM504.373 98.056C499.957 98.056 496.245 97.32 493.237 95.848C490.293 94.376 488.085 92.232 486.613 89.416C485.205 86.6 484.501 83.048 484.501 78.76V60.712H480.469C478.677 60.712 477.269 60.232 476.245 59.272C475.285 58.312 474.805 57 474.805 55.336C474.805 53.544 475.285 52.2 476.245 51.304C477.269 50.344 478.677 49.864 480.469 49.864H484.501V42.568C484.501 40.136 485.141 38.312 486.421 37.096C487.701 35.816 489.493 35.176 491.797 35.176C494.165 35.176 495.957 35.816 497.173 37.096C498.389 38.312 498.997 40.136 498.997 42.568V49.864H508.117C509.909 49.864 511.285 50.344 512.245 51.304C513.205 52.2 513.685 53.544 513.685 55.336C513.685 57 513.205 58.312 512.245 59.272C511.285 60.232 509.909 60.712 508.117 60.712H498.997V78.184C498.997 80.872 499.605 82.888 500.821 84.232C502.101 85.576 504.117 86.248 506.869 86.248C507.829 86.248 508.725 86.152 509.557 85.96C510.389 85.768 511.157 85.64 511.861 85.576C512.757 85.512 513.493 85.8 514.069 86.44C514.645 87.016 514.933 88.328 514.933 90.376C514.933 91.912 514.677 93.256 514.165 94.408C513.653 95.56 512.757 96.392 511.477 96.904C510.645 97.224 509.493 97.48 508.021 97.672C506.613 97.928 505.397 98.056 504.373 98.056ZM550.205 98.056C545.085 98.056 540.605 97.064 536.765 95.08C532.989 93.032 530.077 90.152 528.029 86.44C525.981 82.728 524.957 78.344 524.957 73.288C524.957 69.512 525.533 66.12 526.685 63.112C527.837 60.104 529.501 57.544 531.677 55.432C533.917 53.32 536.605 51.72 539.741 50.632C542.877 49.48 546.365 48.904 550.205 48.904C552.189 48.904 554.301 49.16 556.541 49.672C558.781 50.12 560.989 50.92 563.165 52.072C564.445 52.648 565.309 53.48 565.757 54.568C566.269 55.592 566.461 56.68 566.333 57.832C566.205 58.92 565.789 59.912 565.085 60.808C564.445 61.64 563.613 62.216 562.589 62.536C561.565 62.792 560.413 62.6 559.133 61.96C557.917 61.256 556.637 60.744 555.293 60.424C554.013 60.104 552.797 59.944 551.645 59.944C549.725 59.944 548.029 60.264 546.557 60.904C545.085 61.48 543.837 62.344 542.813 63.496C541.853 64.584 541.085 65.96 540.509 67.624C539.997 69.288 539.741 71.208 539.741 73.384C539.741 77.608 540.765 80.936 542.813 83.368C544.925 85.736 547.869 86.92 551.645 86.92C552.797 86.92 554.013 86.792 555.293 86.536C556.573 86.216 557.853 85.704 559.133 85C560.413 84.36 561.565 84.2 562.589 84.52C563.613 84.84 564.413 85.448 564.989 86.344C565.629 87.176 565.981 88.168 566.045 89.32C566.173 90.408 565.981 91.496 565.469 92.584C565.021 93.608 564.189 94.408 562.973 94.984C560.797 96.072 558.621 96.84 556.445 97.288C554.269 97.8 552.189 98.056 550.205 98.056ZM588.08 97.864C585.712 97.864 583.888 97.224 582.608 95.944C581.392 94.664 580.784 92.84 580.784 90.472V35.848C580.784 33.416 581.392 31.592 582.608 30.376C583.888 29.096 585.712 28.456 588.08 28.456C590.384 28.456 592.144 29.096 593.36 30.376C594.64 31.592 595.28 33.416 595.28 35.848V58.696H593.936C595.408 55.56 597.584 53.16 600.464 51.496C603.408 49.768 606.736 48.904 610.448 48.904C614.224 48.904 617.328 49.64 619.76 51.112C622.192 52.52 624.016 54.696 625.232 57.64C626.448 60.52 627.056 64.2 627.056 68.68V90.472C627.056 92.84 626.416 94.664 625.136 95.944C623.92 97.224 622.128 97.864 619.76 97.864C617.456 97.864 615.664 97.224 614.384 95.944C613.168 94.664 612.56 92.84 612.56 90.472V69.352C612.56 66.088 611.952 63.752 610.736 62.344C609.584 60.872 607.792 60.136 605.36 60.136C602.288 60.136 599.824 61.096 597.968 63.016C596.176 64.936 595.28 67.496 595.28 70.696V90.472C595.28 95.4 592.88 97.864 588.08 97.864ZM687.059 76.168C685.587 76.168 684.435 75.72 683.603 74.824C682.771 73.928 682.259 72.616 682.067 70.888L678.995 38.056C678.675 35.176 679.219 32.872 680.627 31.144C682.035 29.352 684.179 28.456 687.059 28.456C689.811 28.456 691.891 29.352 693.299 31.144C694.707 32.872 695.251 35.176 694.931 38.056L691.859 70.888C691.667 72.616 691.155 73.928 690.323 74.824C689.555 75.72 688.467 76.168 687.059 76.168ZM687.059 97.48C684.499 97.48 682.451 96.712 680.915 95.176C679.443 93.64 678.707 91.656 678.707 89.224C678.707 86.856 679.443 84.936 680.915 83.464C682.451 81.928 684.499 81.16 687.059 81.16C689.619 81.16 691.603 81.928 693.011 83.464C694.483 84.936 695.219 86.856 695.219 89.224C695.219 91.656 694.483 93.64 693.011 95.176C691.603 96.712 689.619 97.48 687.059 97.48Z" fill="#EF8F35"/>
<path d="M32.316 95.848L37.385 91.0204L32.316 95.848ZM32.316 30.472L37.3849 35.2996L37.385 35.2996L32.316 30.472ZM43.356 30.472L38.287 35.2996L38.287 35.2996L43.356 30.472ZM43.356 95.848L38.287 91.0204L38.2253 91.0852L38.1652 91.1516L43.356 95.848ZM37.884 90.864C37.2988 90.864 37.0609 90.7817 37.0511 90.7781C37.0501 90.7778 37.0962 90.7948 37.1693 90.8418C37.2438 90.8896 37.3191 90.9513 37.385 91.0204L27.247 100.676C30.2237 103.801 34.159 104.864 37.884 104.864V90.864ZM37.385 91.0204C37.4974 91.1385 37.5235 91.2301 37.5054 91.1767C37.478 91.0956 37.396 90.7979 37.396 90.184H23.396C23.396 93.8379 24.3804 97.6656 27.247 100.676L37.385 91.0204ZM37.396 90.184V36.136H23.396V90.184H37.396ZM37.396 36.136C37.396 35.5221 37.478 35.2243 37.5054 35.1433C37.5235 35.0899 37.4974 35.1815 37.3849 35.2996L27.247 25.6444C24.3804 28.6543 23.396 32.4821 23.396 36.136H37.396ZM37.385 35.2996C37.3191 35.3687 37.2438 35.4303 37.1693 35.4782C37.0962 35.5252 37.0501 35.5422 37.0511 35.5419C37.0609 35.5383 37.2988 35.456 37.884 35.456V21.456C34.159 21.456 30.2237 22.5189 27.247 25.6444L37.385 35.2996ZM37.884 35.456C38.4167 35.456 38.6193 35.5325 38.608 35.5284C38.5998 35.5254 38.5515 35.5061 38.4812 35.4605C38.4099 35.4142 38.3425 35.3579 38.287 35.2996L48.425 25.6444C45.4825 22.5548 41.609 21.456 37.884 21.456V35.456ZM38.287 35.2996C38.1746 35.1815 38.1484 35.0899 38.1665 35.1433C38.194 35.2243 38.276 35.5221 38.276 36.136H52.276C52.276 32.4821 51.2916 28.6543 48.4249 25.6444L38.287 35.2996ZM38.276 36.136V90.184H52.276V36.136H38.276ZM38.276 90.184C38.276 90.7979 38.194 91.0956 38.1665 91.1767C38.1484 91.2301 38.1746 91.1385 38.287 91.0204L48.425 100.676C51.2916 97.6656 52.276 93.8379 52.276 90.184H38.276ZM38.1652 91.1516C38.2553 91.0521 38.358 90.9647 38.4613 90.8962C38.5627 90.8289 38.6356 90.7991 38.6561 90.7916C38.686 90.7806 38.4733 90.864 37.884 90.864V104.864C41.5858 104.864 45.5931 103.809 48.5467 100.544L38.1652 91.1516ZM77.328 95.848L74.1975 102.109L74.2243 102.122L74.2511 102.136L77.328 95.848ZM70.704 89.416L64.443 92.5465L64.4712 92.6029L64.5004 92.6588L70.704 89.416ZM68.592 60.712H75.592V53.712H68.592V60.712ZM60.336 59.272L55.3862 64.2217L55.4661 64.3016L55.5484 64.3788L60.336 59.272ZM60.336 51.304L65.1122 56.4214L65.1179 56.4161L65.1236 56.4108L60.336 51.304ZM68.592 49.864V56.864H75.592V49.864H68.592ZM70.512 37.096L75.3332 42.171L75.3983 42.1092L75.4617 42.0457L70.512 37.096ZM81.264 37.096L76.189 41.9172L76.2508 41.9823L76.3142 42.0457L81.264 37.096ZM83.088 49.864H76.088V56.864H83.088V49.864ZM96.336 51.304L91.3862 56.2537L91.4716 56.3391L91.5598 56.4214L96.336 51.304ZM83.088 60.712V53.712H76.088V60.712H83.088ZM84.912 84.232L79.7212 88.9284L79.7813 88.9948L79.843 89.0596L84.912 84.232ZM93.648 85.96L95.222 92.7807H95.222L93.648 85.96ZM95.952 85.576L95.4533 78.5938L95.3857 78.5986L95.3182 78.6047L95.952 85.576ZM98.16 86.44L92.9569 91.1227L93.0801 91.2596L93.2102 91.3897L98.16 86.44ZM98.256 94.408L104.653 97.251L104.653 97.251L98.256 94.408ZM95.568 96.904L98.0808 103.437L98.1244 103.421L98.1677 103.403L95.568 96.904ZM92.112 97.672L91.2066 90.7308L91.0325 90.7535L90.8598 90.7849L92.112 97.672ZM88.464 91.056C84.7888 91.056 82.2 90.439 80.4049 89.5605L74.2511 102.136C78.472 104.201 83.3071 105.056 88.464 105.056V91.056ZM80.4585 89.587C78.7802 88.7479 77.6722 87.6361 76.9076 86.1732L64.5004 92.6588C66.6797 96.8279 69.9878 100.004 74.1975 102.109L80.4585 89.587ZM76.965 86.2855C76.1861 84.7278 75.592 82.3345 75.592 78.76H61.592C61.592 83.7615 62.4058 88.4722 64.443 92.5465L76.965 86.2855ZM75.592 78.76V60.712H61.592V78.76H75.592ZM68.592 53.712H64.56V67.712H68.592V53.712ZM64.56 53.712C64.28 53.712 64.2641 53.6737 64.4187 53.7264C64.4983 53.7536 64.6112 53.801 64.7424 53.8787C64.8747 53.957 65.0046 54.0537 65.1236 54.1652L55.5484 64.3788C58.2 66.8646 61.5006 67.712 64.56 67.712V53.712ZM65.2857 54.3223C65.5469 54.5835 65.7304 54.8912 65.8298 55.1629C65.9199 55.409 65.896 55.5004 65.896 55.336H51.896C51.896 58.4112 52.8289 61.6644 55.3862 64.2217L65.2857 54.3223ZM65.896 55.336C65.896 55.0459 65.937 55.0896 65.8482 55.3384C65.7455 55.6258 65.519 56.0417 65.1122 56.4214L55.5598 46.1866C52.7222 48.835 51.896 52.3365 51.896 55.336H65.896ZM65.1236 56.4108C65.0046 56.5223 64.8747 56.619 64.7424 56.6973C64.6113 56.775 64.4983 56.8224 64.4187 56.8496C64.2641 56.9023 64.28 56.864 64.56 56.864V42.864C61.5006 42.864 58.2 43.7114 55.5484 46.1972L65.1236 56.4108ZM64.56 56.864H68.592V42.864H64.56V56.864ZM75.592 49.864V42.568H61.592V49.864H75.592ZM75.592 42.568C75.592 42.2644 75.6121 42.0454 75.6342 41.8989C75.6561 41.7534 75.678 41.6914 75.6772 41.6936C75.6755 41.6983 75.6524 41.7618 75.5904 41.86C75.527 41.9603 75.4405 42.0691 75.3332 42.171L65.6907 32.021C62.5585 34.9966 61.592 38.9628 61.592 42.568H75.592ZM75.4617 42.0457C75.4069 42.1006 75.3429 42.1514 75.278 42.192C75.2472 42.2112 75.2209 42.2252 75.201 42.2348C75.1913 42.2394 75.1836 42.2428 75.1783 42.245C75.173 42.2472 75.1702 42.2482 75.1703 42.2482C75.1704 42.2482 75.3745 42.176 75.888 42.176V28.176C72.2592 28.176 68.4884 29.2201 65.5622 32.1463L75.4617 42.0457ZM75.888 42.176C76.458 42.176 76.6723 42.2549 76.6536 42.2482C76.6392 42.243 76.5732 42.2174 76.4777 42.1564C76.3805 42.0944 76.28 42.0131 76.189 41.9172L86.339 32.2748C83.3963 29.1772 79.4943 28.176 75.888 28.176V42.176ZM76.3142 42.0457C76.2012 41.9327 76.1169 41.8191 76.0595 41.7235C76.0037 41.6304 75.9872 41.5776 75.9912 41.5896C76.0039 41.6276 76.088 41.9144 76.088 42.568H90.088C90.088 39.057 89.2055 35.138 86.2137 32.1462L76.3142 42.0457ZM76.088 42.568V49.864H90.088V42.568H76.088ZM83.088 56.864H92.208V42.864H83.088V56.864ZM92.208 56.864C92.4927 56.864 92.4795 56.9036 92.2784 56.8334C92.0458 56.7523 91.7053 56.5728 91.3862 56.2537L101.286 46.3543C98.6337 43.7022 95.2407 42.864 92.208 42.864V56.864ZM91.5598 56.4214C91.153 56.0417 90.9265 55.6258 90.8238 55.3384C90.7349 55.0896 90.776 55.0459 90.776 55.336H104.776C104.776 52.3365 103.95 48.835 101.112 46.1866L91.5598 56.4214ZM90.776 55.336C90.776 55.5004 90.7521 55.409 90.8421 55.1629C90.9415 54.8912 91.125 54.5835 91.3862 54.3223L101.286 64.2217C103.843 61.6645 104.776 58.4112 104.776 55.336H90.776ZM91.3862 54.3223C91.7053 54.0032 92.0458 53.8237 92.2784 53.7426C92.4795 53.6724 92.4927 53.712 92.208 53.712V67.712C95.2407 67.712 98.6337 66.8738 101.286 64.2217L91.3862 54.3223ZM92.208 53.712H83.088V67.712H92.208V53.712ZM76.088 60.712V78.184H90.088V60.712H76.088ZM76.088 78.184C76.088 81.7875 76.888 85.7969 79.7212 88.9284L90.1027 79.5356C90.2943 79.7474 90.2987 79.8661 90.2458 79.6908C90.1854 79.4903 90.088 79.0226 90.088 78.184H76.088ZM79.843 89.0596C82.9693 92.3422 87.2174 93.248 90.96 93.248V79.248C90.1265 79.248 89.7168 79.1429 89.5976 79.1032C89.5166 79.0762 89.7239 79.1345 89.981 79.4044L79.843 89.0596ZM90.96 93.248C92.3853 93.248 93.8146 93.1055 95.222 92.7807L92.074 79.1393C91.8174 79.1985 91.4547 79.248 90.96 79.248V93.248ZM95.222 92.7807C95.8056 92.6461 96.2552 92.5773 96.5857 92.5472L95.3182 78.6047C94.2408 78.7027 93.1543 78.8899 92.074 79.1393L95.222 92.7807ZM96.4507 92.5582C96.0026 92.5902 95.3511 92.5468 94.6252 92.2627C93.8896 91.9749 93.3316 91.5391 92.9569 91.1227L103.363 81.7573C101.272 79.4334 98.3944 78.3837 95.4533 78.5938L96.4507 92.5582ZM93.2102 91.3897C92.6281 90.8076 92.3208 90.2461 92.1728 89.9229C92.0236 89.5969 91.9761 89.3813 91.9708 89.3568C91.9634 89.3234 91.9793 89.3866 91.9956 89.5758C92.0114 89.7603 92.024 90.0229 92.024 90.376H106.024C106.024 89.0809 105.938 87.6893 105.645 86.3551C105.382 85.1551 104.775 83.1555 103.11 81.4902L93.2102 91.3897ZM92.024 90.376C92.024 91.1417 91.8966 91.4812 91.8593 91.565L104.653 97.251C105.639 95.0308 106.024 92.6823 106.024 90.376H92.024ZM91.8593 91.565C91.9754 91.3037 92.1697 91.0145 92.4368 90.7664C92.6948 90.5269 92.9102 90.4279 92.9683 90.4047L98.1677 103.403C100.968 102.283 103.327 100.233 104.653 97.251L91.8593 91.565ZM93.0551 90.3706C93.0576 90.3696 93.0196 90.3842 92.9323 90.4096C92.8459 90.4347 92.724 90.4666 92.5615 90.5027C92.2319 90.5759 91.7865 90.6552 91.2066 90.7308L93.0174 104.613C94.7274 104.39 96.5025 104.044 98.0808 103.437L93.0551 90.3706ZM90.8598 90.7849C89.7157 90.9929 88.9396 91.056 88.464 91.056V105.056C90.0364 105.056 91.6923 104.863 93.3642 104.559L90.8598 90.7849ZM121.03 55.528L115.626 51.078L115.58 51.1338L115.536 51.1905L121.03 55.528ZM117.958 57.544L117.14 50.5919L117.958 57.544ZM115.078 56.968L110.878 62.568L111.135 62.761L111.409 62.9296L115.078 56.968ZM115.27 51.016L120.624 55.5249L120.661 55.4816L120.696 55.4377L115.27 51.016ZM118.15 45.832L111.438 43.8434V43.8434L118.15 45.832ZM118.918 41.224L125.866 40.3766L111.918 41.224H118.918ZM119.398 45.16V52.16H127.303L126.346 44.3126L119.398 45.16ZM113.158 42.952L117.897 37.8005L113.158 42.952ZM112.966 31.144L117.915 36.0937L117.968 36.0411L118.02 35.9873L112.966 31.144ZM126.886 44.008L133.769 45.2826L133.773 45.2606L133.777 45.2385L126.886 44.008ZM125.062 49.48L131.366 52.5232L131.386 52.4818L131.405 52.4402L125.062 49.48ZM115.536 51.1905C115.404 51.357 115.443 51.2612 115.701 51.0917C115.989 50.9026 116.483 50.6692 117.14 50.5919L118.776 64.4961C122.358 64.0746 124.895 61.9284 126.524 59.8655L115.536 51.1905ZM117.14 50.5919C117.24 50.5801 117.473 50.5677 117.795 50.6319C118.125 50.6981 118.455 50.8271 118.746 51.0064L111.409 62.9296C113.745 64.3671 116.324 64.7845 118.776 64.4961L117.14 50.5919ZM119.278 51.368C119.734 51.7104 120.157 52.1938 120.451 52.7815C120.733 53.3462 120.803 53.819 120.818 54.0609L106.842 54.8831C107.008 57.7153 108.228 60.581 110.878 62.568L119.278 51.368ZM120.818 54.0609C120.857 54.7221 120.713 55.2219 120.603 55.4843C120.506 55.7184 120.452 55.7291 120.624 55.5249L109.915 46.507C108.262 48.4706 106.633 51.3319 106.842 54.8831L120.818 54.0609ZM120.696 55.4377C122.555 53.1565 124.032 50.62 124.861 47.8206L111.438 43.8434C111.244 44.5 110.8 45.4195 109.843 46.5943L120.696 55.4377ZM124.861 47.8206C125.504 45.6519 125.918 43.426 125.918 41.224H111.918C111.918 41.71 111.82 42.5561 111.438 43.8434L124.861 47.8206ZM111.969 42.0714L112.449 46.0074L126.346 44.3126L125.866 40.3766L111.969 42.0714ZM119.398 38.16C118.262 38.16 117.98 37.877 117.897 37.8005L108.418 48.1035C111.535 50.971 115.413 52.16 119.398 52.16V38.16ZM117.897 37.8005C117.863 37.7688 117.855 37.7552 117.857 37.7592C117.86 37.7636 117.858 37.7618 117.85 37.7422C117.836 37.7088 117.758 37.4984 117.758 37H103.758C103.758 41.135 105.159 45.1046 108.418 48.1035L117.897 37.8005ZM117.758 37C117.758 36.4902 117.834 36.2492 117.86 36.1816C117.877 36.1346 117.885 36.1246 117.915 36.0937L108.016 26.1942C105.011 29.1996 103.758 33.0486 103.758 37H117.758ZM118.02 35.9873C118.028 35.979 118.021 35.9775 118.074 35.9574C118.153 35.9274 118.43 35.84 119.014 35.84V21.84C114.963 21.84 110.968 23.112 107.912 26.3007L118.02 35.9873ZM119.014 35.84C119.557 35.84 119.775 35.9282 119.797 35.9375C119.811 35.9434 119.806 35.9424 119.795 35.9347C119.785 35.9273 119.797 35.9333 119.829 35.9713L130.486 26.8927C127.47 23.3516 123.333 21.84 119.014 21.84V35.84ZM119.829 35.9713C119.854 36 120.366 36.6134 120.366 38.824H134.366C134.366 34.6346 133.406 30.32 130.486 26.8927L119.829 35.9713ZM120.366 38.824C120.366 40.039 120.249 41.3541 119.995 42.7775L133.777 45.2385C134.163 43.0779 134.366 40.937 134.366 38.824H120.366ZM120.003 42.7334C119.81 43.7741 119.413 45.0305 118.718 46.5198L131.405 52.4402C132.502 50.0895 133.321 47.6978 133.769 45.2826L120.003 42.7334ZM118.758 46.4368C118.175 47.6439 117.183 49.1874 115.626 51.078L126.433 59.9779C128.46 57.5166 130.156 55.0281 131.366 52.5232L118.758 46.4368ZM151.406 97.288L150.207 104.184L150.219 104.187L150.232 104.189L151.406 97.288ZM143.342 94.696L140.212 100.957L143.342 94.696ZM140.558 92.296L134.297 95.4265L134.417 95.6669L134.556 95.8975L140.558 92.296ZM139.886 89.224L132.9 88.7874L139.886 89.224ZM140.846 86.44L135.298 82.172L135.191 82.3112L135.091 82.4555L140.846 86.44ZM143.246 84.808L145.05 91.5716L145.193 91.5335L145.334 91.4894L143.246 84.808ZM146.606 85.096L143.89 91.5474L143.907 91.5549L143.925 91.5622L146.606 85.096ZM153.806 87.4L152.395 94.2562V94.2562L153.806 87.4ZM166.19 86.824L170.143 92.6012L170.174 92.58L170.204 92.5586L166.19 86.824ZM163.214 79.144L161.968 86.0321L162.038 86.0448L162.108 86.0561L163.214 79.144ZM153.134 77.32L154.381 70.4319L154.369 70.4297L154.357 70.4276L153.134 77.32ZM143.918 73L138.825 77.8021L138.896 77.877L138.969 77.9497L143.918 73ZM143.438 56.2L148.964 60.4976L148.992 60.461L149.02 60.4241L143.438 56.2ZM150.83 50.824L153.361 57.3505L153.396 57.3371L153.43 57.3233L150.83 50.824ZM169.646 49.672L171.088 42.8221L169.646 49.672ZM176.654 52.168L173.453 58.393L173.488 58.4112L173.524 58.429L176.654 52.168ZM179.054 54.472L172.711 57.4322L172.79 57.6014L172.878 57.7661L179.054 54.472ZM179.534 57.448L172.654 56.158L172.615 56.3679L172.588 56.5798L179.534 57.448ZM175.886 61.864L174.189 55.073L174.135 55.0863L174.083 55.1004L175.886 61.864ZM172.526 61.48L169.555 67.8182L169.739 67.9041L169.927 67.9793L172.526 61.48ZM166.862 59.464L165.106 66.24L165.224 66.2707L165.344 66.2973L166.862 59.464ZM155.63 60.232L159.644 65.9666L159.738 65.9008L159.83 65.832L155.63 60.232ZM154.766 66.472L149.606 71.2021L149.812 71.4264L150.036 71.6321L154.766 66.472ZM158.222 67.912L159.469 61.0239L159.421 61.0152L159.373 61.0072L158.222 67.912ZM168.302 69.736L167.056 76.6241L167.095 76.6312L167.134 76.6379L168.302 69.736ZM177.806 73.96L172.931 78.9831L172.97 79.0205L173.009 79.0574L177.806 73.96ZM175.31 93.928L179.433 99.585L179.441 99.5789L179.45 99.5728L175.31 93.928ZM160.142 91.056C157.751 91.056 155.233 90.8386 152.581 90.3873L150.232 104.189C153.596 104.761 156.902 105.056 160.142 105.056V91.056ZM152.606 90.3915C150.267 89.9848 148.238 89.3178 146.473 88.435L140.212 100.957C143.31 102.506 146.658 103.567 150.207 104.184L152.606 90.3915ZM146.473 88.435C146.266 88.3318 146.216 88.2791 146.257 88.3141C146.305 88.3553 146.431 88.4776 146.561 88.6945L134.556 95.8975C135.984 98.2772 138.069 99.8856 140.212 100.957L146.473 88.435ZM146.819 89.1655C146.799 89.1251 146.822 89.16 146.845 89.2641C146.868 89.3725 146.882 89.5107 146.873 89.6606L132.9 88.7874C132.75 91.1819 133.299 93.4292 134.297 95.4265L146.819 89.1655ZM146.873 89.6607C146.867 89.749 146.846 89.8838 146.792 90.0419C146.737 90.2006 146.666 90.3313 146.602 90.4245L135.091 82.4555C133.779 84.3512 133.042 86.5093 132.9 88.7874L146.873 89.6607ZM146.395 90.708C146.3 90.8312 146.127 91.0164 145.862 91.1965C145.594 91.3791 145.31 91.5024 145.05 91.5716L141.443 78.0444C138.906 78.7208 136.821 80.1925 135.298 82.172L146.395 90.708ZM145.334 91.4894C144.937 91.6134 144.558 91.6403 144.256 91.6144C143.973 91.5902 143.842 91.5274 143.89 91.5474L149.323 78.6446C146.946 77.6437 144.1 77.2075 141.158 78.1266L145.334 91.4894ZM143.925 91.5622C146.852 92.7757 149.684 93.698 152.395 94.2562L155.218 80.5438C153.577 80.206 151.609 79.5923 149.287 78.6298L143.925 91.5622ZM152.395 94.2562C155.011 94.7949 157.628 95.072 160.238 95.072V81.072C158.624 81.072 156.953 80.9011 155.218 80.5438L152.395 94.2562ZM160.238 95.072C163.353 95.072 167.125 94.6663 170.143 92.6012L162.237 81.0469C162.617 80.7869 162.761 80.8236 162.354 80.909C161.968 80.9899 161.29 81.072 160.238 81.072V95.072ZM170.204 92.5586C173.116 90.5203 175.11 87.3375 175.11 83.368H161.11C161.11 82.9664 161.214 82.4234 161.511 81.8885C161.794 81.3797 162.106 81.1381 162.176 81.0894L170.204 92.5586ZM175.11 83.368C175.11 80.4456 174.066 77.1979 171.13 74.9396L162.594 86.0364C162.072 85.6348 161.641 85.0845 161.375 84.4713C161.128 83.8997 161.11 83.4769 161.11 83.368H175.11ZM171.13 74.9396C169.005 73.3048 166.501 72.5809 164.32 72.2319L162.108 86.0561C162.566 86.1293 162.814 86.2065 162.906 86.2404C163 86.2747 162.853 86.2352 162.594 86.0364L171.13 74.9396ZM164.461 72.2559L154.381 70.4319L151.888 84.2081L161.968 86.0321L164.461 72.2559ZM154.357 70.4276C151.368 69.8973 149.758 68.9402 148.868 68.0503L138.969 77.9497C142.431 81.4118 146.965 83.3347 151.911 84.2124L154.357 70.4276ZM149.011 68.1979C148.277 67.4195 147.75 66.3636 147.75 64.456H133.75C133.75 69.4604 135.335 74.1005 138.825 77.8021L149.011 68.1979ZM147.75 64.456C147.75 62.6535 148.221 61.4529 148.964 60.4976L137.913 51.9024C135.072 55.5551 133.75 59.8585 133.75 64.456H147.75ZM149.02 60.4241C149.928 59.2241 151.271 58.1608 153.361 57.3505L148.3 44.2975C144.117 45.9192 140.532 48.4399 137.856 51.9759L149.02 60.4241ZM153.43 57.3233C155.675 56.4252 158.388 55.904 161.678 55.904V41.904C156.905 41.904 152.385 42.6628 148.231 44.3247L153.43 57.3233ZM161.678 55.904C164.148 55.904 166.314 56.1239 168.204 56.5218L171.088 42.8221C168.114 42.1961 164.968 41.904 161.678 41.904V55.904ZM168.204 56.5218C170.016 56.9033 171.761 57.523 173.453 58.393L179.856 45.943C177.067 44.509 174.14 43.4647 171.088 42.8221L168.204 56.5218ZM173.524 58.429C173.569 58.4516 173.453 58.4009 173.271 58.2257C173.077 58.0398 172.869 57.7713 172.711 57.4322L185.398 51.5118C184.147 48.8317 182.035 47.0321 179.785 45.907L173.524 58.429ZM172.878 57.7661C172.801 57.6214 172.7 57.3772 172.648 57.0506C172.594 56.7201 172.607 56.4101 172.654 56.158L186.414 58.738C186.913 56.0772 186.456 53.4744 185.231 51.1779L172.878 57.7661ZM172.588 56.5798C172.6 56.4876 172.628 56.366 172.682 56.2355C172.736 56.1057 172.796 56.0137 172.834 55.964L183.931 64.5C185.317 62.6973 186.195 60.5999 186.48 58.3162L172.588 56.5798ZM172.834 55.964C172.966 55.7922 173.17 55.5869 173.448 55.4052C173.725 55.2238 173.99 55.1227 174.189 55.073L177.584 68.655C180.13 68.0185 182.322 66.5906 183.931 64.5L172.834 55.964ZM174.083 55.1004C175.05 54.8423 175.536 55.1448 175.126 54.9807L169.927 67.9793C172.076 68.8392 174.802 69.3977 177.69 68.6276L174.083 55.1004ZM175.497 55.1418C173.106 54.0209 170.725 53.1517 168.381 52.6307L165.344 66.2973C166.455 66.5443 167.85 67.0191 169.555 67.8182L175.497 55.1418ZM168.619 52.688C166.383 52.1082 164.127 51.792 161.87 51.792V65.792C162.814 65.792 163.886 65.9238 165.106 66.24L168.619 52.688ZM161.87 51.792C158.541 51.792 154.562 52.2834 151.43 54.632L159.83 65.832C159.475 66.0983 159.334 66.0629 159.724 65.9727C160.105 65.8849 160.789 65.792 161.87 65.792V51.792ZM151.616 54.4974C148.704 56.5357 146.71 59.7185 146.71 63.688H160.71C160.71 64.0896 160.607 64.6326 160.309 65.1675C160.027 65.6763 159.714 65.9179 159.644 65.9666L151.616 54.4974ZM146.71 63.688C146.71 66.442 147.662 69.0815 149.606 71.2021L159.926 61.7419C160.144 61.9795 160.365 62.3103 160.519 62.7174C160.672 63.1195 160.71 63.4654 160.71 63.688H146.71ZM150.036 71.6321C152.183 73.5999 154.818 74.4412 157.071 74.8168L159.373 61.0072C159.197 60.9779 159.072 60.9488 158.991 60.9265C158.909 60.9042 158.882 60.8917 158.899 60.8985C158.928 60.9107 159.176 61.0187 159.496 61.3119L150.036 71.6321ZM156.976 74.8001L167.056 76.6241L169.549 62.8479L159.469 61.0239L156.976 74.8001ZM167.134 76.6379C170.426 77.195 172.099 78.1758 172.931 78.9831L182.682 68.9369C179.161 65.5202 174.498 63.685 169.47 62.8341L167.134 76.6379ZM173.009 79.0574C173.503 79.5222 174.07 80.3381 174.07 82.408H188.07C188.07 77.3099 186.462 72.4938 182.604 68.8626L173.009 79.0574ZM174.07 82.408C174.07 85.0987 173.167 86.8189 171.171 88.2832L179.45 99.5728C185.133 95.4051 188.07 89.4453 188.07 82.408H174.07ZM171.187 88.271C168.969 89.8875 165.515 91.056 160.142 91.056V105.056C167.441 105.056 174.099 103.473 179.433 99.585L171.187 88.271ZM238.141 96.04L241.213 89.75L238.141 96.04ZM231.709 90.568L225.884 94.4509V94.4509L231.709 90.568ZM232.093 74.632L237.287 79.324L237.324 79.2831L237.361 79.2415L232.093 74.632ZM240.829 70.312L242.243 77.1676L242.295 77.1568L242.347 77.1453L240.829 70.312ZM261.949 68.968H268.949V61.968H261.949V68.968ZM261.949 76.456V83.456H268.949V76.456H261.949ZM248.989 77.032L250.103 83.9427L250.191 83.9285L250.279 83.9121L248.989 77.032ZM244.669 78.76L239.906 73.6304L239.811 73.7186L239.719 73.8103L244.669 78.76ZM245.245 86.632L240.431 91.7137L240.495 91.7752L240.562 91.8351L245.245 86.632ZM255.613 87.112L259.174 93.1385L259.213 93.1152L259.252 93.0914L255.613 87.112ZM259.069 83.56L265.163 87.0044L265.194 86.9495L265.224 86.894L259.069 83.56ZM258.397 61.384L253.575 66.459L253.644 66.524L253.714 66.5871L258.397 61.384ZM246.205 60.232L247.535 67.1045L247.618 67.0884L247.701 67.0703L246.205 60.232ZM239.581 62.248L237.011 55.7369L236.846 55.802L236.684 55.8754L239.581 62.248ZM235.837 62.728L233.507 69.3289L233.683 69.391L233.862 69.4436L235.837 62.728ZM233.341 60.808L227.338 64.4095L227.394 64.5023L227.452 64.5933L233.341 60.808ZM233.437 54.472L239.373 58.182L239.423 58.1022L239.47 58.0211L233.437 54.472ZM236.605 52.072L238.904 58.6835L239.068 58.6266L239.228 58.5618L236.605 52.072ZM245.053 49.576L243.902 42.6712L243.888 42.6735L243.875 42.6758L245.053 49.576ZM264.541 51.112L261.566 57.4487L261.644 57.4849L261.722 57.5192L264.541 51.112ZM271.741 57.736L265.561 61.0233L265.575 61.051L265.59 61.0786L271.741 57.736ZM272.413 95.944L267.21 91.2612L272.413 95.944ZM262.333 95.944L257.13 100.627L257.193 100.697L257.258 100.765L262.333 95.944ZM260.605 86.92L265.16 81.6052L253.605 71.7005V86.92H260.605ZM261.277 87.496L268.17 88.7125L268.864 84.78L265.832 82.1812L261.277 87.496ZM258.781 93.16L253.315 88.7871L253.303 88.8011L253.292 88.8151L258.781 93.16ZM254.077 96.808L256.86 103.231L256.949 103.192L257.037 103.151L254.077 96.808ZM247.453 91.056C244.924 91.056 242.892 90.57 241.213 89.75L235.069 102.33C238.894 104.198 243.07 105.056 247.453 105.056V91.056ZM241.213 89.75C239.454 88.8911 238.31 87.8502 237.533 86.6851L225.884 94.4509C228.18 97.8938 231.324 100.501 235.069 102.33L241.213 89.75ZM237.533 86.6851C236.796 85.5787 236.405 84.3486 236.405 82.792H222.405C222.405 86.9954 223.55 90.9493 225.884 94.4509L237.533 86.6851ZM236.405 82.792C236.405 80.5477 236.965 79.6806 237.287 79.324L226.898 69.94C223.636 73.5514 222.405 78.1243 222.405 82.792H236.405ZM237.361 79.2415C237.749 78.7978 238.979 77.8411 242.243 77.1676L239.414 63.4564C234.614 64.4469 230.02 66.3702 226.825 70.0225L237.361 79.2415ZM242.347 77.1453C245.673 76.4063 250.446 75.968 256.861 75.968V61.968C249.964 61.968 244.049 62.4257 239.31 63.4787L242.347 77.1453ZM256.861 75.968H261.949V61.968H256.861V75.968ZM254.949 68.968V76.456H268.949V68.968H254.949ZM261.949 69.456H256.957V83.456H261.949V69.456ZM256.957 69.456C253.473 69.456 250.34 69.6566 247.699 70.1519L250.279 83.9121C251.733 83.6394 253.912 83.456 256.957 83.456V69.456ZM247.874 70.1213C245.319 70.5334 242.277 71.4284 239.906 73.6304L249.432 83.8896C249.105 84.193 248.894 84.2538 249.02 84.2033C249.146 84.1532 249.479 84.0434 250.103 83.9427L247.874 70.1213ZM239.719 73.8103C237.263 76.2663 236.421 79.3796 236.421 82.216H250.421C250.421 82.1317 250.433 82.3027 250.317 82.6255C250.19 82.9759 249.959 83.3688 249.618 83.7097L239.719 73.8103ZM236.421 82.216C236.421 85.7802 237.714 89.1401 240.431 91.7137L250.059 81.5503C250.086 81.5757 250.136 81.6291 250.195 81.7126C250.253 81.797 250.306 81.8924 250.347 81.9917C250.434 82.2029 250.421 82.3096 250.421 82.216H236.421ZM240.562 91.8351C243.541 94.5165 247.272 95.36 250.717 95.36V81.36C250.085 81.36 249.771 81.2814 249.681 81.2529C249.616 81.2325 249.746 81.2652 249.927 81.4289L240.562 91.8351ZM250.717 95.36C253.653 95.36 256.548 94.6901 259.174 93.1385L252.052 81.0855C251.861 81.1979 251.492 81.36 250.717 81.36V95.36ZM259.252 93.0914C261.725 91.5863 263.731 89.5378 265.163 87.0044L252.975 80.1156C252.743 80.5262 252.444 80.8457 251.973 81.1326L259.252 93.0914ZM265.224 86.894C266.664 84.2353 267.317 81.3424 267.317 78.376H253.317C253.317 79.2496 253.138 79.8127 252.914 80.226L265.224 86.894ZM267.317 78.376V67.336H253.317V78.376H267.317ZM267.317 67.336C267.317 63.7573 266.548 59.3023 263.079 56.1809L253.714 66.5871C253.261 66.1795 253.154 65.8207 253.175 65.885C253.188 65.9245 253.225 66.0558 253.258 66.3051C253.291 66.5538 253.317 66.8928 253.317 67.336H267.317ZM263.218 56.309C259.961 53.2149 255.513 52.56 251.869 52.56V66.56C252.98 66.56 253.621 66.674 253.921 66.7578C254.208 66.838 253.963 66.8276 253.575 66.459L263.218 56.309ZM251.869 52.56C249.545 52.56 247.148 52.8601 244.709 53.3937L247.701 67.0703C249.357 66.7079 250.737 66.56 251.869 66.56V52.56ZM244.875 53.3595C242.365 53.8453 239.734 54.662 237.011 55.7369L242.151 68.7591C244.292 67.914 246.077 67.3867 247.535 67.1045L244.875 53.3595ZM236.684 55.8754C236.477 55.9697 236.491 55.9314 236.699 55.9048C236.93 55.8752 237.33 55.8707 237.812 56.0124L233.862 69.4436C237.066 70.3862 240.098 69.7023 242.477 68.6206L236.684 55.8754ZM238.166 56.1271C238.251 56.157 238.439 56.2381 238.665 56.4116C238.896 56.5892 239.089 56.8045 239.229 57.0227L227.452 64.5933C228.941 66.9082 231.083 68.4734 233.507 69.3289L238.166 56.1271ZM239.343 57.2065C239.358 57.232 239.398 57.3072 239.431 57.4248C239.465 57.5436 239.477 57.654 239.477 57.736H225.477C225.477 60.1308 226.129 62.3947 227.338 64.4095L239.343 57.2065ZM239.477 57.736C239.477 57.8179 239.464 57.9236 239.432 58.0312C239.401 58.1365 239.368 58.1888 239.373 58.182L227.501 50.762C226.201 52.8423 225.477 55.2073 225.477 57.736H239.477ZM239.47 58.0211C239.304 58.3043 239.1 58.5112 238.936 58.6356C238.787 58.7486 238.742 58.74 238.904 58.6835L234.305 45.4605C231.646 46.3855 229.069 48.0903 227.403 50.9229L239.47 58.0211ZM239.228 58.5618C241.868 57.4947 244.196 56.8236 246.231 56.4762L243.875 42.6758C240.662 43.2244 237.358 44.2173 233.981 45.5822L239.228 58.5618ZM246.204 56.4808C248.59 56.0831 250.662 55.904 252.445 55.904V41.904C249.747 41.904 246.892 42.1729 243.902 42.6712L246.204 56.4808ZM252.445 55.904C256.749 55.904 259.668 56.5577 261.566 57.4487L267.515 44.7753C263.141 42.7223 257.997 41.904 252.445 41.904V55.904ZM261.722 57.5192C263.523 58.312 264.719 59.4419 265.561 61.0233L277.921 54.4487C275.562 50.0141 271.958 46.728 267.36 44.7048L261.722 57.5192ZM265.59 61.0786C266.456 62.6719 267.141 65.2197 267.141 69.16H281.141C281.141 63.7563 280.225 58.6881 277.891 54.3934L265.59 61.0786ZM267.141 69.16V90.472H281.141V69.16H267.141ZM267.141 90.472C267.141 91.1039 267.062 91.4177 267.034 91.5081C267.013 91.5728 267.046 91.4431 267.21 91.2612L277.616 100.627C280.297 97.6473 281.141 93.9169 281.141 90.472H267.141ZM267.21 91.2612C267.292 91.1697 267.394 91.079 267.509 91.0004C267.624 90.9224 267.723 90.8755 267.788 90.8506C267.913 90.8025 267.833 90.864 267.421 90.864V104.864C271.021 104.864 274.803 103.752 277.616 100.627L267.21 91.2612ZM267.421 90.864C267.012 90.864 266.906 90.8036 266.988 90.8348C267.03 90.8507 267.102 90.8834 267.188 90.94C267.274 90.9969 267.349 91.0612 267.408 91.1227L257.258 100.765C260.091 103.748 263.803 104.864 267.421 104.864V90.864ZM267.536 91.2613C267.699 91.4431 267.732 91.5728 267.712 91.5081C267.683 91.4177 267.605 91.1039 267.605 90.472H253.605C253.605 93.9168 254.448 97.6473 257.13 100.627L267.536 91.2613ZM267.605 90.472V86.92H253.605V90.472H267.605ZM256.049 92.2348L256.721 92.8108L265.832 82.1812L265.16 81.6052L256.049 92.2348ZM254.383 86.2795C254.187 87.3935 253.805 88.1741 253.315 88.7871L264.247 97.5329C266.316 94.9459 267.599 91.9505 268.17 88.7125L254.383 86.2795ZM253.292 88.8151C252.806 89.4291 252.132 89.9909 251.117 90.4647L257.037 103.151C259.862 101.833 262.323 99.9629 264.269 97.5049L253.292 88.8151ZM251.293 90.3851C250.404 90.7704 249.173 91.056 247.453 91.056V105.056C250.725 105.056 253.909 104.51 256.86 103.231L251.293 90.3851ZM329.143 95.944L324.068 100.765L324.13 100.83L324.193 100.894L329.143 95.944ZM329.143 51.016L324.193 46.0662V46.0663L329.143 51.016ZM339.703 51.016L334.628 55.8372L334.69 55.9023L334.753 55.9657L339.703 51.016ZM341.527 62.536L334.777 64.3921L348.527 62.536H341.527ZM340.471 58.696L334.051 55.9049L333.066 58.1703L333.721 60.5521L340.471 58.696ZM346.423 51.592L350.306 57.4164H350.306L346.423 51.592ZM365.047 51.496L360.992 57.2023L365.047 51.496ZM370.231 59.464V66.464H379.511L376.961 57.5409L370.231 59.464ZM368.887 59.464L362.459 56.6914L358.244 66.464H368.887V59.464ZM375.319 51.784L379.111 57.668L379.127 57.6577L379.143 57.6473L375.319 51.784ZM394.327 51.112L390.558 57.0109L390.653 57.0713L390.749 57.1287L394.327 51.112ZM399.607 57.64L393.088 60.1908L393.098 60.2153L393.107 60.2397L399.607 57.64ZM399.415 95.944L394.465 90.9943L394.402 91.0577L394.34 91.1228L399.415 95.944ZM388.663 95.944L383.588 100.765L383.65 100.83L383.713 100.894L388.663 95.944ZM385.303 62.344L379.439 66.1679L379.537 66.3171L379.642 66.4612L385.303 62.344ZM369.655 95.944L364.705 90.9943L364.642 91.0577L364.58 91.1227L369.655 95.944ZM358.999 95.944L363.948 90.9943V90.9942L358.999 95.944ZM355.543 62.344L349.679 66.1679L349.777 66.3171L349.882 66.4612L355.543 62.344ZM344.119 63.016L349.585 67.3889L344.119 63.016ZM334.615 90.864C334.049 90.864 333.81 90.7862 333.788 90.7788C333.781 90.7764 333.82 90.7896 333.887 90.8308C333.955 90.8729 334.027 90.9288 334.092 90.9943L324.193 100.894C327.154 103.855 330.985 104.864 334.615 104.864V90.864ZM334.218 91.1228C334.289 91.1973 334.343 91.2725 334.38 91.3356C334.416 91.397 334.423 91.4255 334.416 91.4024C334.397 91.3474 334.319 91.0711 334.319 90.472H320.319C320.319 94.008 321.243 97.7918 324.068 100.765L334.218 91.1228ZM334.319 90.472V56.392H320.319V90.472H334.319ZM334.319 56.392C334.319 55.7889 334.398 55.5369 334.404 55.5211C334.404 55.519 334.385 55.5746 334.33 55.6655C334.274 55.7585 334.194 55.8638 334.092 55.9657L324.193 46.0663C321.233 49.0262 320.319 52.8822 320.319 56.392H334.319ZM334.092 55.9657C334.048 56.01 333.992 56.0555 333.931 56.0944C333.87 56.1329 333.826 56.1504 333.815 56.1546C333.794 56.162 333.963 56.096 334.423 56.096V42.096C330.793 42.096 327.083 43.1764 324.193 46.0662L334.092 55.9657ZM334.423 56.096C334.94 56.096 335.119 56.1692 335.079 56.1546C335.055 56.1458 334.986 56.1178 334.894 56.0581C334.8 55.9975 334.708 55.9217 334.628 55.8372L344.778 46.1947C341.87 43.1336 338.031 42.096 334.423 42.096V56.096ZM334.753 55.9657C334.651 55.8638 334.572 55.7585 334.515 55.6655C334.46 55.5746 334.441 55.519 334.442 55.5211C334.447 55.5369 334.527 55.7889 334.527 56.392H348.527C348.527 52.8822 347.612 49.0262 344.652 46.0663L334.753 55.9657ZM334.527 56.392V62.536H348.527V56.392H334.527ZM348.276 60.6799L347.22 56.8399L333.721 60.5521L334.777 64.3921L348.276 60.6799ZM346.89 61.4871C347.63 59.7852 348.73 58.4671 350.306 57.4164L342.54 45.7676C338.74 48.3009 335.871 51.7188 334.051 55.9049L346.89 61.4871ZM350.306 57.4164C351.699 56.4873 353.476 55.904 355.927 55.904V41.904C351.081 41.904 346.522 43.1127 342.54 45.7676L350.306 57.4164ZM355.927 55.904C358.451 55.904 359.987 56.4881 360.992 57.2023L369.101 45.7897C365.242 43.0479 360.699 41.904 355.927 41.904V55.904ZM360.992 57.2023C361.833 57.7993 362.801 58.9413 363.5 61.387L376.961 57.5409C375.612 52.8187 373.125 48.6487 369.101 45.7897L360.992 57.2023ZM370.231 52.464H368.887V66.464H370.231V52.464ZM375.314 62.2366C376.194 60.1977 377.444 58.7421 379.111 57.668L371.527 45.9C367.433 48.5379 364.396 52.2023 362.459 56.6914L375.314 62.2366ZM379.143 57.6473C380.864 56.5247 382.875 55.904 385.399 55.904V41.904C380.37 41.904 375.662 43.2033 371.495 45.9207L379.143 57.6473ZM385.399 55.904C388.147 55.904 389.698 56.4611 390.558 57.0109L398.095 45.2131C394.348 42.8189 389.947 41.904 385.399 41.904V55.904ZM390.749 57.1287C391.585 57.626 392.416 58.4731 393.088 60.1908L406.125 55.0892C404.494 50.9189 401.804 47.414 397.904 45.0952L390.749 57.1287ZM393.107 60.2397C393.816 62.0122 394.335 64.7278 394.335 68.68H408.335C408.335 63.6722 407.701 59.0278 406.106 55.0403L393.107 60.2397ZM394.335 68.68V90.472H408.335V68.68H394.335ZM394.335 90.472C394.335 91.0381 394.257 91.2773 394.25 91.2984C394.247 91.3054 394.26 91.2663 394.302 91.1996C394.344 91.1316 394.4 91.0597 394.465 90.9943L404.365 100.894C407.325 97.9329 408.335 94.1015 408.335 90.472H394.335ZM394.34 91.1228C394.42 91.0383 394.512 90.9625 394.606 90.9019C394.698 90.8422 394.767 90.8142 394.791 90.8054C394.831 90.7908 394.652 90.864 394.135 90.864V104.864C397.743 104.864 401.582 103.826 404.49 100.765L394.34 91.1228ZM394.135 90.864C393.569 90.864 393.329 90.7862 393.308 90.7788C393.301 90.7764 393.34 90.7896 393.407 90.8308C393.475 90.8729 393.547 90.9288 393.612 90.9943L383.713 100.894C386.674 103.855 390.505 104.864 394.135 104.864V90.864ZM393.738 91.1227C393.809 91.1972 393.863 91.2725 393.9 91.3356C393.936 91.397 393.943 91.4255 393.936 91.4024C393.917 91.3474 393.839 91.0711 393.839 90.472H379.839C379.839 94.008 380.763 97.7918 383.588 100.765L393.738 91.1227ZM393.839 90.472V69.16H379.839V90.472H393.839ZM393.839 69.16C393.839 65.5833 393.316 61.4614 390.964 58.2268L379.642 66.4612C379.438 66.1811 379.513 66.1397 379.626 66.6429C379.737 67.1344 379.839 67.944 379.839 69.16H393.839ZM391.166 58.5201C388.485 54.4086 384.133 53.136 380.311 53.136V67.136C380.801 67.136 380.789 67.216 380.503 67.0897C380.351 67.0225 380.152 66.9093 379.944 66.7341C379.734 66.5576 379.565 66.3598 379.439 66.1679L391.166 58.5201ZM380.311 53.136C375.72 53.136 371.447 54.8502 368.413 58.6431L379.345 67.3889C379.408 67.31 379.447 67.2775 379.459 67.2685C379.469 67.2604 379.479 67.254 379.499 67.2448C379.53 67.2309 379.753 67.136 380.311 67.136V53.136ZM368.413 58.6431C365.534 62.2417 364.575 66.7356 364.575 71.176H378.575C378.575 68.5764 379.152 67.6303 379.345 67.3889L368.413 58.6431ZM364.575 71.176V90.472H378.575V71.176H364.575ZM364.575 90.472C364.575 91.0381 364.497 91.2773 364.49 91.2984C364.487 91.3054 364.5 91.2663 364.542 91.1996C364.584 91.1316 364.64 91.0597 364.705 90.9943L374.604 100.894C377.565 97.9329 378.575 94.1015 378.575 90.472H364.575ZM364.58 91.1227C364.66 91.0383 364.752 90.9625 364.846 90.9019C364.938 90.8422 365.007 90.8142 365.031 90.8054C365.071 90.7908 364.892 90.864 364.375 90.864V104.864C367.983 104.864 371.822 103.826 374.73 100.765L364.58 91.1227ZM364.375 90.864C363.861 90.864 363.657 90.7918 363.657 90.7918C363.657 90.7918 363.66 90.7927 363.665 90.795C363.67 90.7972 363.678 90.8005 363.688 90.8052C363.708 90.8148 363.734 90.8288 363.765 90.848C363.83 90.8886 363.894 90.9394 363.948 90.9943L354.049 100.894C356.975 103.82 360.746 104.864 364.375 104.864V90.864ZM363.948 90.9942C364.014 91.0597 364.07 91.1316 364.112 91.1996C364.153 91.2663 364.166 91.3053 364.164 91.2984C364.157 91.2772 364.079 91.0381 364.079 90.472H350.079C350.079 94.1015 351.088 97.9329 354.049 100.894L363.948 90.9942ZM364.079 90.472V69.16H350.079V90.472H364.079ZM364.079 69.16C364.079 65.5833 363.556 61.4614 361.204 58.2268L349.882 66.4612C349.678 66.1811 349.753 66.1397 349.866 66.6429C349.977 67.1344 350.079 67.944 350.079 69.16H364.079ZM361.406 58.5201C358.725 54.4086 354.373 53.136 350.551 53.136V67.136C351.041 67.136 351.029 67.216 350.743 67.0897C350.591 67.0225 350.392 66.9093 350.184 66.7341C349.974 66.5576 349.805 66.3598 349.679 66.1679L361.406 58.5201ZM350.551 53.136C345.96 53.136 341.687 54.8502 338.653 58.6431L349.585 67.3889C349.648 67.31 349.687 67.2775 349.699 67.2685C349.709 67.2604 349.719 67.254 349.739 67.2448C349.77 67.2309 349.993 67.136 350.551 67.136V53.136ZM338.653 58.6431C335.774 62.2417 334.815 66.7356 334.815 71.176H348.815C348.815 68.5764 349.392 67.6303 349.585 67.3889L338.653 58.6431ZM334.815 71.176V90.472H348.815V71.176H334.815ZM334.815 90.472C334.815 90.8066 334.794 91.0589 334.769 91.2398C334.744 91.4202 334.716 91.5158 334.707 91.5443C334.698 91.5709 334.709 91.5295 334.759 91.4445C334.81 91.3569 334.889 91.246 335 91.1318C335.112 91.0173 335.228 90.9281 335.331 90.8645C335.432 90.8024 335.496 90.78 335.498 90.7791C335.498 90.779 335.434 90.8009 335.286 90.8226C335.138 90.8444 334.918 90.864 334.615 90.864V104.864C338.141 104.864 342.061 103.948 345.029 100.9C347.964 97.8869 348.815 93.9695 348.815 90.472H334.815ZM426.743 96.04L429.815 89.75L426.743 96.04ZM420.311 90.568L414.487 94.4509V94.4509L420.311 90.568ZM420.695 74.632L425.89 79.324L425.927 79.2831L425.963 79.2415L420.695 74.632ZM429.431 70.312L430.846 77.1676L430.898 77.1568L430.95 77.1453L429.431 70.312ZM450.551 68.968H457.551V61.968H450.551V68.968ZM450.551 76.456V83.456H457.551V76.456H450.551ZM437.591 77.032L438.706 83.9427L438.794 83.9285L438.881 83.9121L437.591 77.032ZM433.271 78.76L428.508 73.6304L428.413 73.7186L428.322 73.8103L433.271 78.76ZM433.847 86.632L429.033 91.7137L429.098 91.7752L429.164 91.8351L433.847 86.632ZM444.215 87.112L447.776 93.1385L447.816 93.1152L447.855 93.0914L444.215 87.112ZM447.671 83.56L453.765 87.0044L453.796 86.9495L453.826 86.894L447.671 83.56ZM446.999 61.384L442.178 66.459L442.246 66.524L442.316 66.5871L446.999 61.384ZM434.807 60.232L436.137 67.1045L436.22 67.0884L436.303 67.0703L434.807 60.232ZM428.183 62.248L425.613 55.7369L425.448 55.802L425.287 55.8754L428.183 62.248ZM424.439 62.728L422.109 69.3289L422.285 69.391L422.464 69.4436L424.439 62.728ZM421.943 60.808L415.941 64.4095L415.996 64.5023L416.055 64.5933L421.943 60.808ZM422.039 54.472L427.975 58.182L428.025 58.1022L428.073 58.0211L422.039 54.472ZM425.207 52.072L427.507 58.6835L427.67 58.6266L427.831 58.5618L425.207 52.072ZM433.655 49.576L432.504 42.6712L432.491 42.6735L432.477 42.6758L433.655 49.576ZM453.143 51.112L450.169 57.4487L450.246 57.4849L450.324 57.5192L453.143 51.112ZM460.343 57.736L454.163 61.0233L454.178 61.051L454.193 61.0786L460.343 57.736ZM461.015 95.944L455.812 91.2612L461.015 95.944ZM450.935 95.944L445.732 100.627L445.795 100.697L445.86 100.765L450.935 95.944ZM449.207 86.92L453.763 81.6052L442.207 71.7005V86.92H449.207ZM449.879 87.496L456.773 88.7125L457.467 84.78L454.435 82.1812L449.879 87.496ZM447.383 93.16L441.917 88.7871L441.906 88.8011L441.895 88.8151L447.383 93.16ZM442.679 96.808L445.462 103.231L445.552 103.192L445.639 103.151L442.679 96.808ZM436.055 91.056C433.526 91.056 431.494 90.57 429.815 89.75L423.671 102.33C427.496 104.198 431.672 105.056 436.055 105.056V91.056ZM429.815 89.75C428.056 88.8911 426.912 87.8502 426.136 86.6851L414.487 94.4509C416.782 97.8938 419.926 100.501 423.671 102.33L429.815 89.75ZM426.136 86.6851C425.398 85.5787 425.007 84.3486 425.007 82.792H411.007C411.007 86.9954 412.152 90.9493 414.487 94.4509L426.136 86.6851ZM425.007 82.792C425.007 80.5477 425.568 79.6806 425.89 79.324L415.501 69.94C412.239 73.5514 411.007 78.1243 411.007 82.792H425.007ZM425.963 79.2415C426.352 78.7978 427.582 77.8411 430.846 77.1676L428.017 63.4564C423.217 64.4469 418.623 66.3702 415.427 70.0225L425.963 79.2415ZM430.95 77.1453C434.275 76.4063 439.048 75.968 445.463 75.968V61.968C438.566 61.968 432.651 62.4257 427.913 63.4787L430.95 77.1453ZM445.463 75.968H450.551V61.968H445.463V75.968ZM443.551 68.968V76.456H457.551V68.968H443.551ZM450.551 69.456H445.559V83.456H450.551V69.456ZM445.559 69.456C442.076 69.456 438.943 69.6566 436.301 70.1519L438.881 83.9121C440.336 83.6394 442.515 83.456 445.559 83.456V69.456ZM436.477 70.1213C433.922 70.5334 430.879 71.4284 428.508 73.6304L438.034 83.8896C437.708 84.193 437.497 84.2538 437.623 84.2033C437.748 84.1532 438.082 84.0434 438.706 83.9427L436.477 70.1213ZM428.322 73.8103C425.865 76.2663 425.023 79.3796 425.023 82.216H439.023C439.023 82.1317 439.036 82.3027 438.919 82.6255C438.793 82.9759 438.562 83.3688 438.221 83.7097L428.322 73.8103ZM425.023 82.216C425.023 85.7802 426.316 89.1401 429.033 91.7137L438.661 81.5503C438.688 81.5757 438.739 81.6291 438.797 81.7126C438.856 81.797 438.908 81.8924 438.949 81.9917C439.036 82.2029 439.023 82.3096 439.023 82.216H425.023ZM429.164 91.8351C432.144 94.5165 435.874 95.36 439.319 95.36V81.36C438.687 81.36 438.374 81.2814 438.283 81.2529C438.218 81.2325 438.348 81.2652 438.53 81.4289L429.164 91.8351ZM439.319 95.36C442.256 95.36 445.151 94.6901 447.776 93.1385L440.654 81.0855C440.464 81.1979 440.095 81.36 439.319 81.36V95.36ZM447.855 93.0914C450.328 91.5863 452.333 89.5378 453.765 87.0044L441.577 80.1156C441.345 80.5262 441.047 80.8457 440.576 81.1326L447.855 93.0914ZM453.826 86.894C455.266 84.2353 455.919 81.3424 455.919 78.376H441.919C441.919 79.2496 441.74 79.8127 441.516 80.226L453.826 86.894ZM455.919 78.376V67.336H441.919V78.376H455.919ZM455.919 67.336C455.919 63.7573 455.15 59.3023 451.682 56.1809L442.316 66.5871C441.864 66.1795 441.757 65.8207 441.777 65.885C441.79 65.9245 441.827 66.0558 441.861 66.3051C441.894 66.5538 441.919 66.8928 441.919 67.336H455.919ZM451.82 56.309C448.564 53.2149 444.115 52.56 440.471 52.56V66.56C441.582 66.56 442.224 66.674 442.523 66.7578C442.811 66.838 442.566 66.8276 442.178 66.459L451.82 56.309ZM440.471 52.56C438.147 52.56 435.751 52.8601 433.311 53.3937L436.303 67.0703C437.96 66.7079 439.339 66.56 440.471 66.56V52.56ZM433.477 53.3595C430.967 53.8453 428.336 54.662 425.613 55.7369L430.753 68.7591C432.894 67.914 434.679 67.3867 436.137 67.1045L433.477 53.3595ZM425.287 55.8754C425.079 55.9697 425.094 55.9314 425.301 55.9048C425.532 55.8752 425.932 55.8707 426.414 56.0124L422.464 69.4436C425.669 70.3862 428.7 69.7023 431.08 68.6206L425.287 55.8754ZM426.769 56.1271C426.854 56.157 427.042 56.2381 427.267 56.4116C427.498 56.5892 427.691 56.8045 427.831 57.0227L416.055 64.5933C417.543 66.9082 419.685 68.4734 422.109 69.3289L426.769 56.1271ZM427.946 57.2065C427.961 57.232 428.001 57.3072 428.034 57.4248C428.067 57.5436 428.079 57.654 428.079 57.736H414.079C414.079 60.1308 414.732 62.3947 415.941 64.4095L427.946 57.2065ZM428.079 57.736C428.079 57.8179 428.066 57.9236 428.035 58.0312C428.004 58.1365 427.971 58.1888 427.975 58.182L416.103 50.762C414.803 52.8423 414.079 55.2073 414.079 57.736H428.079ZM428.073 58.0211C427.906 58.3043 427.703 58.5112 427.538 58.6356C427.389 58.7486 427.344 58.74 427.507 58.6835L422.908 45.4605C420.248 46.3855 417.672 48.0903 416.006 50.9229L428.073 58.0211ZM427.831 58.5618C430.47 57.4947 432.798 56.8236 434.833 56.4762L432.477 42.6758C429.264 43.2244 425.96 44.2173 422.584 45.5822L427.831 58.5618ZM434.806 56.4808C437.192 56.0831 439.265 55.904 441.047 55.904V41.904C438.35 41.904 435.494 42.1729 432.504 42.6712L434.806 56.4808ZM441.047 55.904C445.351 55.904 448.271 56.5577 450.169 57.4487L456.118 44.7753C451.744 42.7223 446.599 41.904 441.047 41.904V55.904ZM450.324 57.5192C452.126 58.312 453.322 59.4419 454.163 61.0233L466.523 54.4487C464.165 50.0141 460.561 46.728 455.962 44.7048L450.324 57.5192ZM454.193 61.0786C455.059 62.6719 455.743 65.2197 455.743 69.16H469.743C469.743 63.7563 468.828 58.6881 466.494 54.3934L454.193 61.0786ZM455.743 69.16V90.472H469.743V69.16H455.743ZM455.743 90.472C455.743 91.1039 455.665 91.4177 455.636 91.5081C455.616 91.5728 455.648 91.4431 455.812 91.2612L466.218 100.627C468.9 97.6473 469.743 93.9169 469.743 90.472H455.743ZM455.812 91.2612C455.895 91.1697 455.997 91.079 456.112 91.0004C456.226 90.9224 456.325 90.8755 456.39 90.8506C456.516 90.8025 456.436 90.864 456.023 90.864V104.864C459.624 104.864 463.405 103.752 466.218 100.627L455.812 91.2612ZM456.023 90.864C455.615 90.864 455.508 90.8036 455.591 90.8348C455.633 90.8507 455.705 90.8834 455.79 90.94C455.877 90.9969 455.952 91.0612 456.01 91.1227L445.86 100.765C448.694 103.748 452.406 104.864 456.023 104.864V90.864ZM456.138 91.2613C456.302 91.4431 456.335 91.5728 456.314 91.5081C456.286 91.4177 456.207 91.1039 456.207 90.472H442.207C442.207 93.9168 443.051 97.6473 445.732 100.627L456.138 91.2613ZM456.207 90.472V86.92H442.207V90.472H456.207ZM444.652 92.2348L445.324 92.8108L454.435 82.1812L453.763 81.6052L444.652 92.2348ZM442.986 86.2795C442.789 87.3935 442.408 88.1741 441.917 88.7871L452.849 97.5329C454.919 94.9459 456.201 91.9505 456.773 88.7125L442.986 86.2795ZM441.895 88.8151C441.409 89.4291 440.734 89.9909 439.719 90.4647L445.639 103.151C448.464 101.833 450.926 99.9629 452.872 97.5049L441.895 88.8151ZM439.896 90.3851C439.007 90.7704 437.775 91.056 436.055 91.056V105.056C439.327 105.056 442.512 104.51 445.462 103.231L439.896 90.3851ZM493.237 95.848L490.106 102.109L490.133 102.122L490.16 102.136L493.237 95.848ZM486.613 89.416L480.352 92.5465L480.38 92.6029L480.409 92.6588L486.613 89.416ZM484.501 60.712H491.501V53.712H484.501V60.712ZM476.245 59.272L471.295 64.2217L471.375 64.3016L471.457 64.3788L476.245 59.272ZM476.245 51.304L481.021 56.4214L481.027 56.4161L481.032 56.4108L476.245 51.304ZM484.501 49.864V56.864H491.501V49.864H484.501ZM486.421 37.096L491.242 42.171L491.307 42.1092L491.37 42.0457L486.421 37.096ZM497.173 37.096L492.098 41.9172L492.16 41.9823L492.223 42.0457L497.173 37.096ZM498.997 49.864H491.997V56.864H498.997V49.864ZM512.245 51.304L507.295 56.2537L507.38 56.3391L507.469 56.4214L512.245 51.304ZM498.997 60.712V53.712H491.997V60.712H498.997ZM500.821 84.232L495.63 88.9284L495.69 88.9948L495.752 89.0596L500.821 84.232ZM509.557 85.96L511.131 92.7807L509.557 85.96ZM511.861 85.576L511.362 78.5938L511.294 78.5986L511.227 78.6047L511.861 85.576ZM514.069 86.44L508.866 91.1227L508.989 91.2596L509.119 91.3897L514.069 86.44ZM514.165 94.408L520.561 97.251V97.251L514.165 94.408ZM511.477 96.904L513.99 103.437L514.033 103.421L514.076 103.403L511.477 96.904ZM508.021 97.672L507.115 90.7308L506.941 90.7535L506.769 90.7849L508.021 97.672ZM504.373 91.056C500.698 91.056 498.109 90.439 496.314 89.5605L490.16 102.136C494.381 104.201 499.216 105.056 504.373 105.056V91.056ZM496.367 89.587C494.689 88.7479 493.581 87.6361 492.816 86.1732L480.409 92.6588C482.588 96.8279 485.897 100.004 490.106 102.109L496.367 89.587ZM492.874 86.2855C492.095 84.7278 491.501 82.3345 491.501 78.76H477.501C477.501 83.7615 478.315 88.4722 480.352 92.5465L492.874 86.2855ZM491.501 78.76V60.712H477.501V78.76H491.501ZM484.501 53.712H480.469V67.712H484.501V53.712ZM480.469 53.712C480.189 53.712 480.173 53.6737 480.327 53.7264C480.407 53.7536 480.52 53.801 480.651 53.8787C480.783 53.957 480.913 54.0537 481.032 54.1652L471.457 64.3788C474.109 66.8646 477.409 67.712 480.469 67.712V53.712ZM481.194 54.3223C481.456 54.5835 481.639 54.8912 481.739 55.1629C481.829 55.409 481.805 55.5004 481.805 55.336H467.805C467.805 58.4112 468.738 61.6644 471.295 64.2217L481.194 54.3223ZM481.805 55.336C481.805 55.0459 481.846 55.0896 481.757 55.3384C481.654 55.6258 481.428 56.0417 481.021 56.4214L471.469 46.1866C468.631 48.835 467.805 52.3365 467.805 55.336H481.805ZM481.032 56.4108C480.913 56.5223 480.783 56.619 480.651 56.6973C480.52 56.775 480.407 56.8224 480.327 56.8496C480.173 56.9023 480.189 56.864 480.469 56.864V42.864C477.409 42.864 474.109 43.7114 471.457 46.1972L481.032 56.4108ZM480.469 56.864H484.501V42.864H480.469V56.864ZM491.501 49.864V42.568H477.501V49.864H491.501ZM491.501 42.568C491.501 42.2644 491.521 42.0454 491.543 41.8989C491.565 41.7534 491.587 41.6914 491.586 41.6936C491.584 41.6983 491.561 41.7618 491.499 41.86C491.436 41.9603 491.349 42.0691 491.242 42.171L481.599 32.021C478.467 34.9966 477.501 38.9628 477.501 42.568H491.501ZM491.37 42.0457C491.316 42.1006 491.252 42.1514 491.187 42.192C491.156 42.2112 491.13 42.2252 491.11 42.2348C491.1 42.2394 491.092 42.2428 491.087 42.245C491.082 42.2472 491.079 42.2482 491.079 42.2482C491.079 42.2482 491.283 42.176 491.797 42.176V28.176C488.168 28.176 484.397 29.2201 481.471 32.1463L491.37 42.0457ZM491.797 42.176C492.367 42.176 492.581 42.2549 492.562 42.2482C492.548 42.243 492.482 42.2174 492.386 42.1564C492.289 42.0944 492.189 42.0131 492.098 41.9172L502.248 32.2748C499.305 29.1772 495.403 28.176 491.797 28.176V42.176ZM492.223 42.0457C492.11 41.9327 492.026 41.8191 491.968 41.7235C491.912 41.6304 491.896 41.5776 491.9 41.5896C491.913 41.6276 491.997 41.9144 491.997 42.568H505.997C505.997 39.057 505.114 35.138 502.122 32.1462L492.223 42.0457ZM491.997 42.568V49.864H505.997V42.568H491.997ZM498.997 56.864H508.117V42.864H498.997V56.864ZM508.117 56.864C508.401 56.864 508.388 56.9036 508.187 56.8334C507.955 56.7523 507.614 56.5728 507.295 56.2537L517.194 46.3543C514.542 43.7022 511.149 42.864 508.117 42.864V56.864ZM507.469 56.4214C507.062 56.0417 506.835 55.6258 506.733 55.3384C506.644 55.0896 506.685 55.0459 506.685 55.336H520.685C520.685 52.3365 519.859 48.835 517.021 46.1866L507.469 56.4214ZM506.685 55.336C506.685 55.5004 506.661 55.409 506.751 55.1629C506.85 54.8912 507.034 54.5835 507.295 54.3223L517.194 64.2217C519.752 61.6645 520.685 58.4112 520.685 55.336H506.685ZM507.295 54.3223C507.614 54.0032 507.955 53.8237 508.187 53.7426C508.388 53.6724 508.401 53.712 508.117 53.712V67.712C511.149 67.712 514.542 66.8738 517.194 64.2217L507.295 54.3223ZM508.117 53.712H498.997V67.712H508.117V53.712ZM491.997 60.712V78.184H505.997V60.712H491.997ZM491.997 78.184C491.997 81.7875 492.797 85.7969 495.63 88.9284L506.011 79.5356C506.203 79.7474 506.207 79.8661 506.155 79.6908C506.094 79.4903 505.997 79.0226 505.997 78.184H491.997ZM495.752 89.0596C498.878 92.3422 503.126 93.248 506.869 93.248V79.248C506.035 79.248 505.625 79.1429 505.506 79.1032C505.425 79.0762 505.633 79.1345 505.89 79.4044L495.752 89.0596ZM506.869 93.248C508.294 93.248 509.723 93.1055 511.131 92.7807L507.983 79.1393C507.726 79.1985 507.363 79.248 506.869 79.248V93.248ZM511.131 92.7807C511.714 92.6461 512.164 92.5773 512.495 92.5472L511.227 78.6047C510.15 78.7027 509.063 78.8899 507.983 79.1393L511.131 92.7807ZM512.359 92.5582C511.911 92.5902 511.26 92.5468 510.534 92.2627C509.798 91.9749 509.24 91.5391 508.866 91.1227L519.272 81.7573C517.18 79.4334 514.303 78.3837 511.362 78.5938L512.359 92.5582ZM509.119 91.3897C508.537 90.8076 508.229 90.2461 508.082 89.9229C507.932 89.5969 507.885 89.3813 507.88 89.3568C507.872 89.3234 507.888 89.3866 507.904 89.5758C507.92 89.7603 507.933 90.0229 507.933 90.376H521.933C521.933 89.0809 521.847 87.6893 521.554 86.3551C521.291 85.1551 520.684 83.1555 519.018 81.4902L509.119 91.3897ZM507.933 90.376C507.933 91.1417 507.805 91.4812 507.768 91.565L520.561 97.251C521.548 95.0308 521.933 92.6823 521.933 90.376H507.933ZM507.768 91.565C507.884 91.3037 508.078 91.0145 508.346 90.7664C508.604 90.5269 508.819 90.4279 508.877 90.4047L514.076 103.403C516.877 102.283 519.236 100.233 520.561 97.251L507.768 91.565ZM508.964 90.3706C508.966 90.3696 508.928 90.3842 508.841 90.4096C508.755 90.4347 508.633 90.4666 508.47 90.5027C508.141 90.5759 507.695 90.6552 507.115 90.7308L508.926 104.613C510.636 104.39 512.411 104.044 513.99 103.437L508.964 90.3706ZM506.769 90.7849C505.624 90.9929 504.848 91.056 504.373 91.056V105.056C505.945 105.056 507.601 104.863 509.273 104.559L506.769 90.7849ZM536.765 95.08L533.427 101.233L533.489 101.267L533.551 101.299L536.765 95.08ZM528.029 86.44L521.899 89.8215L528.029 86.44ZM531.677 55.432L526.874 50.3389L526.838 50.3736L526.801 50.4089L531.677 55.432ZM539.74 50.632L542.035 57.2453L542.095 57.2245L542.154 57.2027L539.74 50.632ZM556.541 49.672L554.981 56.496L555.074 56.5173L555.168 56.5361L556.541 49.672ZM563.164 52.072L559.889 58.2585L560.087 58.3634L560.292 58.4554L563.164 52.072ZM565.757 54.568L559.284 57.2332L559.381 57.4697L559.496 57.6985L565.757 54.568ZM566.333 57.832L573.285 58.6499L573.287 58.6275L573.29 58.605L566.333 57.832ZM565.085 60.808L559.58 56.4833L559.558 56.5115L559.536 56.54L565.085 60.808ZM562.589 62.536L564.286 69.327L564.483 69.2778L564.676 69.2174L562.589 62.536ZM559.133 61.96L555.625 68.018L555.811 68.1252L556.002 68.221L559.133 61.96ZM555.292 60.424L553.595 67.215L553.633 67.2245L553.671 67.2336L555.292 60.424ZM546.557 60.904L549.107 67.4227L549.228 67.3753L549.348 67.3235L546.557 60.904ZM542.812 63.496L537.581 58.8455L537.572 58.855L537.564 58.8646L542.812 63.496ZM540.508 67.624L533.894 65.3342L533.854 65.4492L533.818 65.5654L540.508 67.624ZM542.812 83.368L537.458 87.877L537.522 87.9531L537.588 88.0273L542.812 83.368ZM555.292 86.536L556.665 93.4001L556.829 93.3674L556.99 93.327L555.292 86.536ZM559.133 85L556.002 78.739L555.879 78.8004L555.759 78.8665L559.133 85ZM562.589 84.52L564.676 77.8386L562.589 84.52ZM564.989 86.344L559.1 90.1293L559.26 90.3778L559.44 90.612L564.989 86.344ZM566.044 89.32L559.055 89.7083L559.067 89.9237L559.092 90.1379L566.044 89.32ZM565.469 92.584L559.135 89.6034L559.094 89.6903L559.055 89.7783L565.469 92.584ZM562.973 94.984L559.976 88.6578L559.909 88.6897L559.842 88.723L562.973 94.984ZM556.445 97.288L555.033 90.4318L554.937 90.4516L554.841 90.4741L556.445 97.288ZM550.205 91.056C545.997 91.056 542.657 90.2451 539.978 88.861L533.551 101.299C538.552 103.883 544.172 105.056 550.205 105.056V91.056ZM540.102 88.9268C537.486 87.5079 535.55 85.5824 534.158 83.0585L521.899 89.8215C524.603 94.7216 528.491 98.5561 533.427 101.233L540.102 88.9268ZM534.158 83.0585C532.782 80.5645 531.956 77.3889 531.956 73.288H517.956C517.956 79.2991 519.179 84.8915 521.899 89.8215L534.158 83.0585ZM531.956 73.288C531.956 70.2231 532.423 67.6995 533.221 65.6155L520.148 60.6085C518.642 64.5405 517.956 68.8009 517.956 73.288H531.956ZM533.221 65.6155C534.033 63.4979 535.151 61.8144 536.552 60.4551L526.801 50.4089C523.85 53.2736 521.641 56.7101 520.148 60.6085L533.221 65.6155ZM536.479 60.5251C537.945 59.143 539.759 58.035 542.035 57.2453L537.446 44.0187C533.45 45.405 529.889 47.497 526.874 50.3389L536.479 60.5251ZM542.154 57.2027C544.411 56.3737 547.067 55.904 550.205 55.904V41.904C545.662 41.904 541.342 42.5863 537.327 44.0613L542.154 57.2027ZM550.205 55.904C551.589 55.904 553.174 56.083 554.981 56.496L558.1 42.848C555.427 42.237 552.788 41.904 550.205 41.904V55.904ZM555.168 56.5361C556.695 56.8414 558.265 57.3986 559.889 58.2585L566.44 45.8855C563.712 44.4414 560.866 43.3986 557.913 42.8079L555.168 56.5361ZM560.292 58.4554C560.321 58.4685 560.153 58.3978 559.917 58.1702C559.665 57.9277 559.436 57.6026 559.284 57.2332L572.229 51.9027C570.972 48.8503 568.614 46.848 566.037 45.6885L560.292 58.4554ZM559.496 57.6985C559.46 57.6284 559.417 57.5135 559.391 57.3685C559.366 57.2242 559.369 57.1131 559.375 57.059L573.29 58.605C573.565 56.1296 573.141 53.6842 572.018 51.4375L559.496 57.6985ZM559.38 57.0141C559.391 56.9203 559.419 56.8035 559.469 56.6849C559.518 56.5681 559.567 56.5001 559.58 56.4833L570.589 65.1327C572.055 63.266 573 61.0707 573.285 58.6499L559.38 57.0141ZM559.536 56.54C559.641 56.404 559.795 56.2478 559.996 56.1087C560.196 55.9703 560.378 55.893 560.501 55.8546L564.676 69.2174C567.042 68.478 569.095 67.0758 570.633 65.076L559.536 56.54ZM560.891 55.745C561.405 55.6164 561.837 55.6343 562.107 55.6792C562.354 55.7204 562.414 55.7745 562.263 55.699L556.002 68.221C558.243 69.3413 561.143 70.1127 564.286 69.327L560.891 55.745ZM562.64 55.902C560.845 54.863 558.931 54.0946 556.914 53.6144L553.671 67.2336C554.342 67.3934 554.988 67.649 555.625 68.018L562.64 55.902ZM556.99 53.633C555.234 53.1939 553.445 52.944 551.645 52.944V66.944C552.148 66.944 552.791 67.0141 553.595 67.215L556.99 53.633ZM551.645 52.944C548.949 52.944 546.273 53.3941 543.765 54.4845L549.348 67.3235C549.784 67.1339 550.5 66.944 551.645 66.944V52.944ZM544.006 54.3853C541.532 55.3531 539.358 56.8464 537.581 58.8455L548.044 68.1465C548.315 67.8416 548.637 67.6069 549.107 67.4227L544.006 54.3853ZM537.564 58.8646C535.886 60.766 534.706 62.9876 533.894 65.3342L547.123 69.9138C547.463 68.9324 547.819 68.402 548.061 68.1273L537.564 58.8646ZM533.818 65.5654C533.057 68.0386 532.74 70.6766 532.74 73.384H546.74C546.74 71.7394 546.936 70.5374 547.199 69.6826L533.818 65.5654ZM532.74 73.384C532.74 78.711 534.041 83.8196 537.458 87.877L548.167 78.859C547.488 78.0524 546.74 76.505 546.74 73.384H532.74ZM537.588 88.0273C541.282 92.1681 546.288 93.92 551.645 93.92V79.92C549.449 79.92 548.567 79.3039 548.037 78.7087L537.588 88.0273ZM551.645 93.92C553.314 93.92 554.992 93.7347 556.665 93.4001L553.92 79.6719C553.033 79.8493 552.279 79.92 551.645 79.92V93.92ZM556.99 93.327C558.913 92.8462 560.754 92.0972 562.506 91.1335L555.759 78.8665C554.951 79.3108 554.232 79.5858 553.595 79.745L556.99 93.327ZM562.263 91.261C562.373 91.2061 562.249 91.2877 561.919 91.3334C561.56 91.3834 561.055 91.3747 560.501 91.2014L564.676 77.8386C561.41 76.818 558.346 77.5669 556.002 78.739L562.263 91.261ZM560.501 91.2014C560.291 91.1357 560.01 91.0086 559.721 90.7891C559.432 90.5692 559.228 90.3276 559.1 90.1293L570.877 82.5587C569.406 80.2707 567.255 78.6445 564.676 77.8386L560.501 91.2014ZM559.44 90.612C559.31 90.4431 559.205 90.2484 559.135 90.0529C559.068 89.8628 559.057 89.735 559.055 89.7083L573.034 88.9317C572.9 86.5168 572.122 84.137 570.537 82.076L559.44 90.612ZM559.092 90.1379C559.076 89.9987 559.082 89.8574 559.103 89.7355C559.124 89.6181 559.15 89.571 559.135 89.6034L571.802 95.5646C572.815 93.4126 573.292 91.0145 572.997 88.5021L559.092 90.1379ZM559.055 89.7783C559.212 89.4207 559.432 89.1219 559.657 88.9062C559.868 88.7033 560.011 88.6411 559.976 88.6578L565.969 101.31C568.385 100.166 570.625 98.262 571.882 95.3897L559.055 89.7783ZM559.842 88.723C558.159 89.5643 556.559 90.1176 555.033 90.4318L557.856 104.144C560.682 103.562 563.434 102.58 566.103 101.245L559.842 88.723ZM554.841 90.4741C553.126 90.8778 551.586 91.056 550.205 91.056V105.056C552.791 105.056 555.411 104.722 558.048 104.102L554.841 90.4741ZM582.608 95.944L577.533 100.765L577.595 100.83L577.658 100.894L582.608 95.944ZM582.608 30.376L587.558 35.3257V35.3257L582.608 30.376ZM593.36 30.376L588.285 35.1972L588.409 35.3274L588.539 35.451L593.36 30.376ZM595.28 58.696V65.696H602.28V58.696H595.28ZM593.936 58.696L587.6 55.7216L582.918 65.696H593.936V58.696ZM600.464 51.496L603.966 57.5571L603.987 57.545L604.008 57.5329L600.464 51.496ZM619.76 51.112L616.136 57.1005L616.194 57.1358L616.253 57.17L619.76 51.112ZM625.232 57.64L618.762 60.3123L618.773 60.3376L618.783 60.3628L625.232 57.64ZM625.136 95.944L620.186 90.9943L620.123 91.0577L620.061 91.1228L625.136 95.944ZM614.384 95.944L609.309 100.765L609.371 100.83L609.434 100.894L614.384 95.944ZM610.736 62.344L605.224 66.6582L605.328 66.7913L605.438 66.9193L610.736 62.344ZM597.968 63.016L592.935 58.1508L592.893 58.1949L592.851 58.2398L597.968 63.016ZM588.08 90.864C587.514 90.864 587.275 90.7862 587.254 90.7788C587.247 90.7764 587.286 90.7896 587.353 90.8308C587.421 90.8729 587.492 90.9288 587.558 90.9943L577.658 100.894C580.619 103.855 584.451 104.864 588.08 104.864V90.864ZM587.683 91.1227C587.754 91.1973 587.808 91.2725 587.845 91.3356C587.881 91.397 587.889 91.4255 587.881 91.4024C587.863 91.3474 587.784 91.0711 587.784 90.472H573.784C573.784 94.008 574.708 97.7918 577.533 100.765L587.683 91.1227ZM587.784 90.472V35.848H573.784V90.472H587.784ZM587.784 35.848C587.784 35.1944 587.868 34.9076 587.881 34.8696C587.885 34.8576 587.869 34.9104 587.813 35.0035C587.755 35.0991 587.671 35.2127 587.558 35.3257L577.658 25.4263C574.667 28.418 573.784 32.337 573.784 35.848H587.784ZM587.558 35.3257C587.493 35.3912 587.421 35.4471 587.353 35.4892C587.286 35.5304 587.247 35.5436 587.254 35.5412C587.275 35.5338 587.514 35.456 588.08 35.456V21.456C584.451 21.456 580.619 22.4654 577.658 25.4263L587.558 35.3257ZM588.08 35.456C588.598 35.456 588.776 35.5292 588.736 35.5145C588.712 35.5058 588.644 35.4778 588.551 35.4181C588.457 35.3575 588.365 35.2817 588.285 35.1972L598.435 25.5548C595.527 22.4936 591.689 21.456 588.08 21.456V35.456ZM588.539 35.451C588.432 35.3491 588.345 35.2403 588.282 35.1399C588.22 35.0418 588.197 34.9783 588.195 34.9736C588.194 34.9714 588.216 35.0334 588.238 35.1789C588.26 35.3254 588.28 35.5444 588.28 35.848H602.28C602.28 32.2428 601.314 28.2766 598.181 25.301L588.539 35.451ZM588.28 35.848V58.696H602.28V35.848H588.28ZM595.28 51.696H593.936V65.696H595.28V51.696ZM600.273 61.6703C601.164 59.7715 602.378 58.4749 603.966 57.5571L596.962 45.4349C592.791 47.8451 589.652 51.3485 587.6 55.7216L600.273 61.6703ZM604.008 57.5329C605.784 56.4901 607.87 55.904 610.448 55.904V41.904C605.603 41.904 601.032 43.0459 596.921 45.4591L604.008 57.5329ZM610.448 55.904C613.354 55.904 615.1 56.4736 616.136 57.1005L623.385 45.1235C619.557 42.8064 615.094 41.904 610.448 41.904V55.904ZM616.253 57.17C617.176 57.7046 618.052 58.5927 618.762 60.3123L631.702 54.9677C629.98 50.7993 627.208 47.3354 623.267 45.054L616.253 57.17ZM618.783 60.3628C619.514 62.0933 620.056 64.7619 620.056 68.68H634.056C634.056 63.6381 633.382 58.9467 631.681 54.9172L618.783 60.3628ZM620.056 68.68V90.472H634.056V68.68H620.056ZM620.056 90.472C620.056 91.0381 619.978 91.2773 619.971 91.2984C619.969 91.3054 619.982 91.2663 620.023 91.1996C620.065 91.1316 620.121 91.0597 620.186 90.9943L630.086 100.894C633.047 97.9329 634.056 94.1015 634.056 90.472H620.056ZM620.061 91.1228C620.152 91.0269 620.253 90.9456 620.35 90.8835C620.445 90.8226 620.511 90.797 620.526 90.7918C620.545 90.7851 620.33 90.864 619.76 90.864V104.864C623.366 104.864 627.269 103.863 630.211 100.765L620.061 91.1228ZM619.76 90.864C619.247 90.864 619.043 90.7918 619.043 90.7918C619.042 90.7918 619.045 90.7927 619.05 90.795C619.056 90.7972 619.063 90.8005 619.073 90.8052C619.093 90.8148 619.119 90.8288 619.15 90.848C619.215 90.8886 619.279 90.9394 619.334 90.9943L609.434 100.894C612.361 103.82 616.131 104.864 619.76 104.864V90.864ZM619.459 91.1228C619.53 91.1973 619.584 91.2725 619.621 91.3356C619.657 91.397 619.665 91.4255 619.657 91.4024C619.639 91.3474 619.56 91.0711 619.56 90.472H605.56C605.56 94.008 606.484 97.7918 609.309 100.765L619.459 91.1228ZM619.56 90.472V69.352H605.56V90.472H619.56ZM619.56 69.352C619.56 65.5555 618.918 61.1078 616.034 57.7687L605.438 66.9193C605.169 66.607 605.219 66.4876 605.33 66.9152C605.442 67.346 605.56 68.1211 605.56 69.352H619.56ZM616.249 58.0298C613.389 54.3763 609.241 53.136 605.36 53.136V67.136C605.889 67.136 606.002 67.2179 605.869 67.1631C605.797 67.1338 605.683 67.0761 605.552 66.978C605.42 66.8791 605.309 66.7668 605.224 66.6582L616.249 58.0298ZM605.36 53.136C600.702 53.136 596.312 54.6579 592.935 58.1508L603.001 67.8811C603.337 67.5341 603.875 67.136 605.36 67.136V53.136ZM592.851 58.2398C589.597 61.7264 588.28 66.1311 588.28 70.696H602.28C602.28 68.8609 602.756 68.1456 603.086 67.7922L592.851 58.2398ZM588.28 70.696V90.472H602.28V70.696H588.28ZM588.28 90.472C588.28 90.8066 588.26 91.0589 588.234 91.2398C588.209 91.4202 588.182 91.5158 588.172 91.5443C588.164 91.5709 588.174 91.5295 588.224 91.4445C588.275 91.3569 588.355 91.246 588.466 91.1318C588.577 91.0173 588.693 90.9281 588.796 90.8645C588.897 90.8024 588.961 90.78 588.964 90.7791C588.964 90.779 588.9 90.8009 588.752 90.8226C588.603 90.8444 588.383 90.864 588.08 90.864V104.864C591.607 104.864 595.526 103.948 598.495 100.9C601.43 97.8869 602.28 93.9695 602.28 90.472H588.28ZM683.603 74.824L688.732 70.0608L683.603 74.824ZM682.067 70.888L675.097 71.5401L675.103 71.6006L675.109 71.661L682.067 70.888ZM678.995 38.056L685.964 37.4039L685.958 37.3434L685.952 37.283L678.995 38.056ZM680.627 31.144L686.053 35.5657L686.092 35.5176L686.131 35.4687L680.627 31.144ZM693.299 31.144L687.794 35.4687L687.833 35.5176L687.872 35.5657L693.299 31.144ZM694.931 38.056L687.973 37.283L687.967 37.3434L687.961 37.4039L694.931 38.056ZM691.859 70.888L698.816 71.661L698.822 71.6006L698.828 71.5401L691.859 70.888ZM690.323 74.824L685.193 70.0608L685.098 70.1628L685.008 70.2685L690.323 74.824ZM680.915 95.176L675.861 100.019L675.912 100.073L675.965 100.126L680.915 95.176ZM680.915 83.464L685.864 88.4137L680.915 83.464ZM693.011 83.464L687.85 88.1941L687.953 88.3062L688.061 88.4137L693.011 83.464ZM693.011 95.176L687.957 90.3327L687.903 90.3887L687.85 90.4459L693.011 95.176ZM687.059 69.168C687.029 69.168 687.256 69.1636 687.628 69.308C688.027 69.4631 688.42 69.7248 688.732 70.0608L678.473 79.5872C680.896 82.1964 684.069 83.168 687.059 83.168V69.168ZM688.732 70.0608C688.999 70.3484 689.099 70.5819 689.116 70.6232C689.122 70.6409 689.11 70.6127 689.09 70.5267C689.07 70.4406 689.045 70.306 689.024 70.115L675.109 71.661C675.399 74.2709 676.269 77.2139 678.473 79.5872L688.732 70.0608ZM689.036 70.2359L685.964 37.4039L672.025 38.7081L675.097 71.5401L689.036 70.2359ZM685.952 37.283C685.861 36.467 685.923 35.9963 685.975 35.7765C686 35.6702 686.024 35.6165 686.033 35.5982C686.041 35.5814 686.046 35.574 686.053 35.5657L675.2 26.7223C672.279 30.3071 671.575 34.6676 672.037 38.829L685.952 37.283ZM686.131 35.4687C686.12 35.4819 686.091 35.5151 686.045 35.5498C685.999 35.5842 685.973 35.5935 685.99 35.5867C686.029 35.5705 686.33 35.456 687.059 35.456V21.456C682.651 21.456 678.199 22.9038 675.122 26.8192L686.131 35.4687ZM687.059 35.456C687.369 35.456 687.584 35.4814 687.72 35.5067C687.854 35.5315 687.911 35.556 687.913 35.5569C687.915 35.5577 687.907 35.5545 687.893 35.546C687.878 35.5375 687.861 35.5262 687.844 35.5126C687.804 35.4823 687.788 35.4608 687.794 35.4687L698.803 26.8192C695.789 22.9832 691.463 21.456 687.059 21.456V35.456ZM687.872 35.5657C687.879 35.574 687.884 35.5814 687.892 35.5982C687.901 35.6165 687.925 35.6702 687.95 35.7765C688.002 35.9963 688.064 36.467 687.973 37.283L701.888 38.829C702.35 34.6676 701.646 30.3071 698.725 26.7223L687.872 35.5657ZM687.961 37.4039L684.889 70.2359L698.828 71.5401L701.9 38.7081L687.961 37.4039ZM684.901 70.115C684.88 70.306 684.855 70.4406 684.835 70.5267C684.815 70.6127 684.803 70.6409 684.81 70.6232C684.826 70.5819 684.926 70.3484 685.193 70.0608L695.452 79.5872C697.656 77.2139 698.526 74.2709 698.816 71.661L684.901 70.115ZM685.008 70.2685C685.341 69.8797 685.784 69.5574 686.265 69.3593C686.716 69.1739 687.024 69.168 687.059 69.168V83.168C690.076 83.168 693.281 82.1288 695.637 79.3795L685.008 70.2685ZM687.059 90.48C686.478 90.48 686.177 90.3934 686.06 90.3497C685.965 90.314 685.921 90.2826 685.864 90.2262L675.965 100.126C679.046 103.207 682.999 104.48 687.059 104.48V90.48ZM685.968 90.3327C685.926 90.2882 685.707 90.1299 685.707 89.224H671.707C671.707 93.1821 672.959 96.9918 675.861 100.019L685.968 90.3327ZM685.707 89.224C685.707 88.7684 685.776 88.5623 685.795 88.5135C685.805 88.4862 685.812 88.4752 685.815 88.4708C685.818 88.4662 685.831 88.4475 685.864 88.4137L675.965 78.5143C672.996 81.4832 671.707 85.2773 671.707 89.224H685.707ZM685.864 88.4137C685.921 88.3574 685.965 88.326 686.06 88.2903C686.177 88.2466 686.478 88.16 687.059 88.16V74.16C682.999 74.16 679.046 75.4331 675.965 78.5143L685.864 88.4137ZM687.059 88.16C687.646 88.16 687.899 88.2483 687.94 88.264C687.959 88.2715 687.945 88.2679 687.913 88.2465C687.881 88.2248 687.859 88.2033 687.85 88.1941L698.171 78.7339C695.142 75.4301 691.098 74.16 687.059 74.16V88.16ZM688.061 88.4137C688.095 88.4475 688.107 88.4662 688.11 88.4708C688.113 88.4752 688.12 88.4862 688.13 88.5135C688.149 88.5623 688.219 88.7684 688.219 89.224H702.219C702.219 85.2773 700.929 81.4832 697.96 78.5143L688.061 88.4137ZM688.219 89.224C688.219 90.1299 687.999 90.2882 687.957 90.3327L698.064 100.019C700.966 96.9918 702.219 93.1821 702.219 89.224H688.219ZM687.85 90.4459C687.859 90.4367 687.881 90.4152 687.913 90.3935C687.945 90.3721 687.959 90.3685 687.94 90.376C687.899 90.3917 687.646 90.48 687.059 90.48V104.48C691.098 104.48 695.142 103.21 698.171 99.9061L687.85 90.4459Z" fill="white" mask="url(#path-1-outside-1_0_1730)"/>
</svg>
