<svg width="756" height="42" viewBox="0 0 756 42" fill="none" xmlns="http://www.w3.org/2000/svg">
<path d="M736.735 4.35265C743.724 4.38688 747.218 4.404 749.814 5.91948C751.514 6.9123 752.923 8.3352 753.899 10.0452C755.389 12.6553 755.372 16.1498 755.338 23.1386C755.303 30.1274 755.286 33.6218 753.771 36.2173C752.778 37.9176 751.355 39.3266 749.645 40.3027C747.035 41.7927 743.541 41.7756 736.552 41.7414L18.6882 38.2253C11.6994 38.1911 8.20497 38.174 5.60952 36.6585C3.90916 35.6657 2.50016 34.2428 1.52403 32.5328C0.034047 29.9226 0.0511623 26.4282 0.0853929 19.4394C0.119623 12.4506 0.136739 8.95619 1.65222 6.36073C2.64505 4.66041 4.06793 3.25138 5.77793 2.27527C8.3881 0.785274 11.8825 0.802389 18.8713 0.83662L736.735 4.35265Z" fill="#E2F2F5"/>
<g clip-path="url(#clip0_0_1750)">
<path d="M29.0954 0.886715C32.6204 0.90398 34.3829 0.912613 35.4727 2.01307C36.5624 3.11352 36.5538 4.87604 36.5365 8.40108L36.4266 30.8343C36.4094 34.3594 36.4007 36.1219 35.3003 37.2116C34.1998 38.3013 32.4373 38.2927 28.9122 38.2754L20.5908 38.2347C13.602 38.2005 10.1076 38.1833 7.51214 36.6678C5.81182 35.675 4.40279 34.2521 3.42667 32.5422C1.93668 29.932 1.9538 26.4376 1.98803 19.4488C2.02226 12.4599 2.03937 8.96553 3.55486 6.37007C4.54768 4.66974 5.97058 3.26072 7.68054 2.2846C10.2907 0.794611 13.7851 0.811726 20.7739 0.845957L29.0954 0.886715Z" fill="#C4C4C4" fill-opacity="0.74"/>
<path d="M9.67009 0.791932L26.4219 38.2636L1.01951 38.1392L-14.5226 0.673439L9.67009 0.791932Z" fill="#FFCF25"/>
<path d="M33.2805 1.13754C34.0658 1.14139 34.7761 1.60439 35.0966 2.32127L50.0562 35.7841C50.6494 37.111 49.674 38.6075 48.2206 38.6003L27.2482 38.4976C26.4432 38.4937 25.7191 38.0075 25.4106 37.264L11.5312 3.80644C10.9833 2.48557 11.9584 1.03311 13.3884 1.04011L33.2805 1.13754Z" fill="#FCE492"/>
</g>
<defs>
<clipPath id="clip0_0_1750">
<path d="M159.335 1.52466L159.152 38.9134L18.6882 38.2254C11.6994 38.1912 8.20497 38.1741 5.60952 36.6586C3.90919 35.6658 2.50016 34.2429 1.52406 32.5329C0.0340617 29.9227 0.051177 26.4283 0.0854076 19.4395C0.119638 12.4507 0.136754 8.95625 1.65225 6.36079C2.64505 4.66047 4.06796 3.25144 5.77793 2.27533C8.3881 0.785334 11.8825 0.802449 18.8713 0.836679L159.335 1.52466Z" fill="white"/>
</clipPath>
</defs>
</svg>
